<?xml version="1.0" encoding="utf-8"?>
<!-- Generator: Adobe Illustrator 23.0.0, SVG Export Plug-In . SVG Version: 6.00 Build 0)  -->
<svg version="1.1" id="Layer_1" xmlns="http://www.w3.org/2000/svg" xmlns:xlink="http://www.w3.org/1999/xlink" x="0px" y="0px"
	 viewBox="0 0 2075 1800" style="enable-background:new 0 0 2075 1800;" xml:space="preserve">
<style type="text/css">
	.st0{fill:#EF9B75;}
	.st1{fill:#FFFFFF;stroke:#F05453;stroke-width:5;stroke-miterlimit:10;}
	.st2{fill:none;stroke:#F05453;stroke-width:5;stroke-miterlimit:10;}
	.st3{fill:#F05453;}
	.st4{fill:#FFFFFF;}
	.st5{fill:#F05453;stroke:#FFFFFF;stroke-width:5;stroke-miterlimit:10;}
	.st6{fill:#2FB5E3;}
	.st7{font-family:'Roboto-Medium';}
	.st8{font-size:56px;}
</style>
<polygon class="st0" points="440.3,444.5 440.3,598.7 440.3,603.1 381,603.1 381,888.4 452.2,888.4 452.2,1021.9 675.4,1021.9 
	675.4,1473.7 1319.3,1473.7 1319.3,1457.6 1418.3,1457.6 1418.3,1428 1527,1428 1527,1376.6 1552.2,1376.6 1552.2,1335.1 
	1527,1335.1 1527,1102.9 1552.2,1102.9 1552.2,1060.5 1528.9,1060.5 1528.9,1030.7 1624.8,1030.7 1624.8,746.2 1624.8,678.2 
	1624.8,598.7 1624.8,484.5 1624.8,444.5 "/>
<polygon class="st1" points="1483.6,670.6 471.5,670.6 471.5,746.2 1267.2,746.2 1267.2,1007 1267.2,1030.7 1378.4,1030.7 
	1378.4,1007 1329.5,1007 1329.5,746.2 1483.6,746.2 1631.8,746.2 1631.8,670.6 "/>
<rect x="1419" y="746.2" class="st1" width="64.6" height="53.8"/>
<line class="st2" x1="1419" y1="800" x2="1483.6" y2="746.2"/>
<line class="st2" x1="1419" y1="746.2" x2="1483.6" y2="800"/>
<g>
	<rect x="559.4" y="746.2" class="st3" width="54.8" height="142.2"/>
	<rect x="563" y="759.4" class="st4" width="48.4" height="4.9"/>
	<rect x="563" y="768.5" class="st4" width="48.4" height="4.8"/>
	<rect x="563" y="777.7" class="st4" width="48.4" height="4.9"/>
	<rect x="563" y="786.9" class="st4" width="48.4" height="4.9"/>
	<rect x="563" y="796" class="st4" width="48.4" height="4.9"/>
	<rect x="563" y="805.2" class="st4" width="48.4" height="4.9"/>
	<rect x="563" y="814.3" class="st4" width="48.4" height="4.8"/>
	<rect x="563" y="823.5" class="st4" width="48.4" height="4.8"/>
	<rect x="563" y="832.7" class="st4" width="48.4" height="4.8"/>
	<rect x="563" y="841.8" class="st4" width="48.4" height="4.8"/>
	<rect x="563" y="851" class="st4" width="48.4" height="4.9"/>
	<rect x="563" y="860.2" class="st4" width="48.4" height="4.9"/>
	<rect x="563" y="869.3" class="st4" width="48.4" height="4.9"/>
	<rect x="563" y="878.5" class="st4" width="48.4" height="4.9"/>
	<rect x="563" y="750.2" class="st4" width="48.4" height="4.9"/>
</g>
<g>
	<rect x="1483.6" y="746.2" class="st3" width="54.8" height="142.2"/>
	<rect x="1487.2" y="759.4" class="st4" width="48.4" height="4.9"/>
	<rect x="1487.2" y="768.5" class="st4" width="48.4" height="4.8"/>
	<rect x="1487.2" y="777.7" class="st4" width="48.4" height="4.9"/>
	<rect x="1487.2" y="786.9" class="st4" width="48.4" height="4.9"/>
	<rect x="1487.2" y="796" class="st4" width="48.4" height="4.9"/>
	<rect x="1487.2" y="805.2" class="st4" width="48.4" height="4.9"/>
	<rect x="1487.2" y="814.3" class="st4" width="48.4" height="4.8"/>
	<rect x="1487.2" y="823.5" class="st4" width="48.4" height="4.8"/>
	<rect x="1487.2" y="832.7" class="st4" width="48.4" height="4.8"/>
	<rect x="1487.2" y="841.8" class="st4" width="48.4" height="4.8"/>
	<rect x="1487.2" y="851" class="st4" width="48.4" height="4.9"/>
	<rect x="1487.2" y="860.2" class="st4" width="48.4" height="4.9"/>
	<rect x="1487.2" y="869.3" class="st4" width="48.4" height="4.9"/>
	<rect x="1487.2" y="878.5" class="st4" width="48.4" height="4.9"/>
	<rect x="1487.2" y="750.2" class="st4" width="48.4" height="4.9"/>
</g>
<polygon class="st5" points="772.3,746.2 719,746.2 683.4,746.2 683.4,881 719,881 772.3,881 772.3,1030.7 1267.2,1030.7 
	1267.2,746.2 "/>
<polygon class="st5" points="1378.4,1030.7 1237.6,1030.7 1237.6,1062.4 1099.2,1062.4 1099.2,1473.7 1237.6,1473.7 1237.6,1473.7 
	1319.3,1473.7 1319.3,1432.2 1378.4,1432.2 "/>
<polygon class="st4" points="1290.6,1059.7 1281.2,1043.5 1271.9,1027.3 1290.6,1027.3 1309.3,1027.3 1299.9,1043.5 "/>
<polygon class="st4" points="703.9,775.5 694.5,759.4 685.2,743.2 703.9,743.2 722.5,743.2 713.2,759.4 "/>
<polygon class="st3" points="503.9,707.1 487.7,716.4 471.5,725.8 471.5,707.1 471.5,688.4 487.7,697.8 "/>
<polygon class="st4" points="1234.9,907.1 1251.1,897.8 1267.2,888.4 1267.2,907.1 1267.2,925.8 1251.1,916.4 "/>
<polygon class="st4" points="1234.9,869.3 1251.1,860 1267.2,850.6 1267.2,869.3 1267.2,888 1251.1,878.7 "/>
<polygon class="st3" points="1599.4,708.7 1615.6,718.1 1631.8,727.4 1631.8,708.7 1631.8,690 1615.6,699.4 "/>
<path class="st6" d="M1275.8,1252.2c0,20.4-16.6,37-37,37c-20.4,0-37-16.6-37-37c0-20.4,16.6-37,37-37
	C1259.2,1215.2,1275.8,1231.8,1275.8,1252.2z"/>
<text transform="matrix(1 0 0 1 1223.7188 1272.5376)" class="st4 st7 st8">2</text>
<path class="st6" d="M1043.4,883.3c0,20.4-16.6,37-37,37c-20.4,0-37-16.6-37-37c0-20.4,16.6-37,37-37
	C1026.8,846.4,1043.4,862.9,1043.4,883.3z"/>
<text transform="matrix(1 0 0 1 990.3086 904.7007)" class="st4 st7 st8">1</text>
</svg>
