<?xml version="1.0" encoding="utf-8"?>
<!-- Generator: Adobe Illustrator 23.0.0, SVG Export Plug-In . SVG Version: 6.00 Build 0)  -->
<svg version="1.1" id="Layer_1" xmlns="http://www.w3.org/2000/svg" xmlns:xlink="http://www.w3.org/1999/xlink" x="0px" y="0px"
	 viewBox="0 0 2075 2076" style="enable-background:new 0 0 2075 2076;" xml:space="preserve">
<style type="text/css">
	.st0{fill:#EF9B75;}
	.st1{fill:#F05453;}
	.st2{fill:#FFFFFF;}
	.st3{fill:#FFFFFF;stroke:#F05453;stroke-width:5;stroke-miterlimit:10;}
	.st4{fill:#F05453;stroke:#FFFFFF;stroke-width:5;stroke-miterlimit:10;}
	.st5{fill:none;stroke:#F05453;stroke-width:5;stroke-miterlimit:10;}
	.st6{fill:#465051;}
	.st7{font-family:'Roboto-Medium';}
	.st8{font-size:56px;}
	.st9{fill:#1C998B;}
</style>
<polygon class="st0" points="836.8,130.3 350.5,130.3 350.5,448.7 1323.2,448.7 1323.2,527.7 1435.1,527.7 1435.1,527.7 
	1599.8,527.7 1599.8,367.1 1455.2,367.1 1455.2,165.3 1435.1,165.3 1323.2,165.3 1323.2,132.7 1323.2,130.3 "/>
<g>
	<rect x="1056.5" y="1747.9" class="st1" width="47.1" height="215.1"/>
	<rect x="1059.6" y="1801.5" class="st2" width="41.6" height="6.1"/>
	<rect x="1059.6" y="1813" class="st2" width="41.6" height="6.1"/>
	<rect x="1059.6" y="1824.5" class="st2" width="41.6" height="6.1"/>
	<rect x="1059.6" y="1835.9" class="st2" width="41.6" height="6.1"/>
	<rect x="1059.6" y="1847.4" class="st2" width="41.6" height="6.1"/>
	<rect x="1059.6" y="1858.9" class="st2" width="41.6" height="6.1"/>
	<rect x="1059.6" y="1870.3" class="st2" width="41.6" height="6.1"/>
	<rect x="1059.6" y="1881.8" class="st2" width="41.6" height="6.1"/>
	<rect x="1059.6" y="1893.3" class="st2" width="41.6" height="6.1"/>
	<rect x="1059.6" y="1904.7" class="st2" width="41.6" height="6.1"/>
	<rect x="1059.6" y="1916.2" class="st2" width="41.6" height="6.1"/>
	<rect x="1059.6" y="1927.7" class="st2" width="41.6" height="6.1"/>
	<rect x="1059.6" y="1939.1" class="st2" width="41.6" height="6.1"/>
	<rect x="1059.6" y="1950.6" class="st2" width="41.6" height="6.1"/>
	<rect x="1059.6" y="1790.1" class="st2" width="41.6" height="6.1"/>
	<rect x="1059.6" y="1767.2" class="st2" width="41.6" height="6.1"/>
	<rect x="1059.6" y="1778.6" class="st2" width="41.6" height="6.1"/>
	<rect x="1059.6" y="1755.7" class="st2" width="41.6" height="6.1"/>
</g>
<polygon class="st3" points="1068.8,1185.4 958.7,1185.4 627.6,1185.4 540.9,1185.4 540.9,1348.7 541.3,1551.6 627.6,1551.6 
	723.2,1551.6 723.2,1368.5 958.7,1368.5 958.7,1551.6 907.4,1551.6 907.4,1672.9 907.4,1676.2 907.4,1748.6 907.4,1748.6 
	1103.6,1748.6 1103.6,1713.2 1103.6,1676.2 1103.6,1676.2 1103.6,1551.6 1099.6,1551.6 1080.2,1551.6 1068.8,1551.6 1068.8,1368.5 
	1429.9,1368.5 1429.9,1551.6 1516.2,1551.6 1516.2,1368.5 1516.2,1185.4 "/>
<rect x="354.6" y="449.2" class="st4" width="972.7" height="736.7"/>
<polygon class="st2" points="1291,1153 1300.4,1169.2 1309.7,1185.4 1291,1185.4 1272.3,1185.4 1281.7,1169.2 "/>
<rect x="1211.1" y="1368.5" class="st4" width="218.7" height="183.1"/>
<rect x="723.2" y="1368.5" class="st4" width="235.6" height="183.1"/>
<polyline class="st0" points="540.9,1348.7 471.3,1348.7 471.3,1185.4 350.5,1185.4 350.5,1368.5 315,1368.5 315,1551.6 
	541.3,1551.6 "/>
<rect x="1068.8" y="1368.5" class="st4" width="142.3" height="183.1"/>
<g>
	<rect x="1584.2" y="1185.4" class="st1" width="73.3" height="168.7"/>
	<rect x="1589" y="1201.1" class="st2" width="64.8" height="5.8"/>
	<rect x="1589" y="1211.9" class="st2" width="64.8" height="5.8"/>
	<rect x="1589" y="1222.8" class="st2" width="64.8" height="5.8"/>
	<rect x="1589" y="1233.7" class="st2" width="64.8" height="5.8"/>
	<rect x="1589" y="1244.5" class="st2" width="64.8" height="5.8"/>
	<rect x="1589" y="1255.4" class="st2" width="64.8" height="5.8"/>
	<rect x="1589" y="1266.3" class="st2" width="64.8" height="5.8"/>
	<rect x="1589" y="1277.2" class="st2" width="64.8" height="5.8"/>
	<rect x="1589" y="1288" class="st2" width="64.8" height="5.8"/>
	<rect x="1589" y="1298.9" class="st2" width="64.8" height="5.8"/>
	<rect x="1589" y="1309.8" class="st2" width="64.8" height="5.8"/>
	<rect x="1589" y="1320.6" class="st2" width="64.8" height="5.8"/>
	<rect x="1589" y="1331.5" class="st2" width="64.8" height="5.8"/>
	<rect x="1589" y="1342.4" class="st2" width="64.8" height="5.8"/>
	<rect x="1589" y="1190.2" class="st2" width="64.8" height="5.8"/>
</g>
<g>
	<rect x="1516.2" y="1187" class="st3" width="69.4" height="55"/>
	<line class="st5" x1="1585.6" y1="1187" x2="1516.2" y2="1242.1"/>
	<line class="st5" x1="1585.6" y1="1242.1" x2="1516.2" y2="1187"/>
</g>
<g>
	<rect x="467.5" y="1185.4" class="st1" width="73.3" height="168.7"/>
	<rect x="472.4" y="1201.1" class="st2" width="64.8" height="5.8"/>
	<rect x="472.4" y="1211.9" class="st2" width="64.8" height="5.8"/>
	<rect x="472.4" y="1222.8" class="st2" width="64.8" height="5.8"/>
	<rect x="472.4" y="1233.7" class="st2" width="64.8" height="5.8"/>
	<rect x="472.4" y="1244.5" class="st2" width="64.8" height="5.8"/>
	<rect x="472.4" y="1255.4" class="st2" width="64.8" height="5.8"/>
	<rect x="472.4" y="1266.3" class="st2" width="64.8" height="5.8"/>
	<rect x="472.4" y="1277.2" class="st2" width="64.8" height="5.8"/>
	<rect x="472.4" y="1288" class="st2" width="64.8" height="5.8"/>
	<rect x="472.4" y="1298.9" class="st2" width="64.8" height="5.8"/>
	<rect x="472.4" y="1309.8" class="st2" width="64.8" height="5.8"/>
	<rect x="472.4" y="1320.6" class="st2" width="64.8" height="5.8"/>
	<rect x="472.4" y="1331.5" class="st2" width="64.8" height="5.8"/>
	<rect x="472.4" y="1342.4" class="st2" width="64.8" height="5.8"/>
	<rect x="472.4" y="1190.2" class="st2" width="64.8" height="5.8"/>
</g>
<polygon class="st1" points="986,1519.2 995.3,1535.4 1004.7,1551.6 986,1551.6 967.3,1551.6 976.6,1535.4 "/>
<polygon class="st1" points="1033.4,1519.2 1042.7,1535.4 1052.1,1551.6 1033.4,1551.6 1014.7,1551.6 1024.1,1535.4 "/>
<polygon class="st2" points="592.9,1153 602.3,1169.2 611.6,1185.4 592.9,1185.4 574.2,1185.4 583.6,1169.2 "/>
<polygon class="st2" points="637,1153 646.4,1169.2 655.7,1185.4 637,1185.4 618.4,1185.4 627.7,1169.2 "/>
<polygon class="st2" points="755.5,1519.2 739.4,1528.6 723.2,1537.9 723.2,1519.2 723.2,1500.5 739.4,1509.9 "/>
<polygon class="st2" points="1395,1519.2 1411.2,1509.9 1427.4,1500.5 1427.4,1519.2 1427.4,1537.9 1411.2,1528.6 "/>
<polygon class="st2" points="1291,1153 1300.4,1169.2 1309.7,1185.4 1291,1185.4 1272.3,1185.4 1281.7,1169.2 "/>
<polygon class="st2" points="1364.1,1153 1373.5,1169.2 1382.8,1185.4 1364.1,1185.4 1345.4,1185.4 1354.8,1169.2 "/>
<polygon class="st2" points="1411.2,1153 1420.5,1169.2 1429.9,1185.4 1411.2,1185.4 1392.5,1185.4 1401.8,1169.2 "/>
<g>
	<rect x="916.6" y="1091.1" class="st2" width="281.8" height="78.7"/>
	<rect x="1120.2" y="1096.3" class="st1" width="8" height="69.5"/>
	<rect x="1105.2" y="1096.3" class="st1" width="7.9" height="69.5"/>
	<rect x="1090.1" y="1096.3" class="st1" width="8" height="69.5"/>
	<rect x="1075.1" y="1096.3" class="st1" width="8" height="69.5"/>
	<rect x="1060.1" y="1096.3" class="st1" width="8" height="69.5"/>
	<rect x="1045.1" y="1096.3" class="st1" width="8" height="69.5"/>
	<rect x="1030.1" y="1096.3" class="st1" width="8" height="69.5"/>
	<rect x="1015" y="1096.3" class="st1" width="8" height="69.5"/>
	<rect x="1000" y="1096.3" class="st1" width="8" height="69.5"/>
	<rect x="985" y="1096.3" class="st1" width="8" height="69.5"/>
	<rect x="970" y="1096.3" class="st1" width="8" height="69.5"/>
	<rect x="954.9" y="1096.3" class="st1" width="8" height="69.5"/>
	<rect x="939.9" y="1096.3" class="st1" width="8" height="69.5"/>
	<rect x="924.9" y="1096.3" class="st1" width="8" height="69.5"/>
	<rect x="1135.2" y="1096.3" class="st1" width="8" height="69.5"/>
	<rect x="1165.3" y="1096.3" class="st1" width="8" height="69.5"/>
	<rect x="1150.2" y="1096.3" class="st1" width="8" height="69.5"/>
	<rect x="1180.3" y="1096.3" class="st1" width="8" height="69.5"/>
</g>
<g>
	<rect x="1593.8" y="369.1" class="st1" width="73.3" height="157.5"/>
	<rect x="1598.7" y="383.7" class="st2" width="64.8" height="5.4"/>
	<rect x="1598.7" y="393.8" class="st2" width="64.8" height="5.4"/>
	<rect x="1598.7" y="404" class="st2" width="64.8" height="5.4"/>
	<rect x="1598.7" y="414.1" class="st2" width="64.8" height="5.4"/>
	<rect x="1598.7" y="424.3" class="st2" width="64.8" height="5.4"/>
	<rect x="1598.7" y="434.4" class="st2" width="64.8" height="5.4"/>
	<rect x="1598.7" y="444.6" class="st2" width="64.8" height="5.4"/>
	<rect x="1598.7" y="454.7" class="st2" width="64.8" height="5.4"/>
	<rect x="1598.7" y="464.9" class="st2" width="64.8" height="5.4"/>
	<rect x="1598.7" y="475" class="st2" width="64.8" height="5.4"/>
	<rect x="1598.7" y="485.2" class="st2" width="64.8" height="5.4"/>
	<rect x="1598.7" y="495.3" class="st2" width="64.8" height="5.4"/>
	<rect x="1598.7" y="505.5" class="st2" width="64.8" height="5.4"/>
	<rect x="1598.7" y="515.6" class="st2" width="64.8" height="5.4"/>
	<rect x="1598.7" y="373.5" class="st2" width="64.8" height="5.4"/>
</g>
<polygon class="st4" points="1668.7,184.1 1668.7,184.1 1455.2,184.1 1455.2,367.1 1668.7,367.1 1668.7,527.7 1754.1,527.7 
	1754.1,184.1 "/>
<rect x="1327.2" y="527.7" class="st4" width="430.9" height="657.7"/>
<polygon class="st2" points="1364.1,1153 1373.5,1169.2 1382.8,1185.4 1364.1,1185.4 1345.4,1185.4 1354.8,1169.2 "/>
<polygon class="st2" points="1399.7,1153 1409,1169.2 1418.4,1185.4 1399.7,1185.4 1381,1185.4 1390.3,1169.2 "/>
<polygon class="st2" points="1711.9,494.7 1721.2,510.8 1730.5,527 1711.9,527 1693.2,527 1702.5,510.8 "/>
<rect x="1468.1" y="991.3" class="st2" width="22.2" height="22.2"/>
<rect x="826.2" y="1009.3" class="st2" width="22.2" height="22.2"/>
<rect x="826.2" y="830.7" class="st2" width="22.2" height="22.2"/>
<rect x="826.2" y="666" class="st2" width="22.2" height="22.2"/>
<rect x="1632.2" y="991.3" class="st2" width="22.2" height="22.2"/>
<rect x="1468.1" y="822" class="st2" width="22.2" height="22.2"/>
<rect x="1632.2" y="822" class="st2" width="22.2" height="22.2"/>
<rect x="1468.1" y="663.3" class="st2" width="22.2" height="22.2"/>
<rect x="1632.2" y="663.3" class="st2" width="22.2" height="22.2"/>
<g>
	<path class="st6" d="M877.9,1460c0,20.4-16.6,37-37,37c-20.4,0-37-16.6-37-37c0-20.4,16.6-37,37-37
		C861.4,1423.1,877.9,1439.6,877.9,1460z"/>
	<text transform="matrix(1 0 0 1 816.3301 1482.1157)" class="st2 st7 st8">W</text>
</g>
<g>
	<path class="st6" d="M1335.6,1460c0,20.4-16.6,37-37,37c-20.4,0-37-16.6-37-37c0-20.4,16.6-37,37-37
		C1319,1423.1,1335.6,1439.6,1335.6,1460z"/>
	<text transform="matrix(1 0 0 1 1274.0723 1481.1157)" class="st2 st7 st8">M</text>
</g>
<g>
	<path class="st9" d="M655.3,809.5c0,20.4-16.6,37-37,37c-20.4,0-37-16.6-37-37c0-20.4,16.6-37,37-37
		C638.8,772.5,655.3,789.1,655.3,809.5z"/>
	<text transform="matrix(1 0 0 1 602.4473 830.5161)" class="st2 st7 st8">3</text>
</g>
<g>
	<path class="st9" d="M1599,809.5c0,20.4-16.6,37-37,37c-20.4,0-37-16.6-37-37c0-20.4,16.6-37,37-37
		C1582.5,772.5,1599,789.1,1599,809.5z"/>
	<text transform="matrix(1 0 0 1 1545.1162 829.5161)" class="st2 st7 st8">6</text>
</g>
<g>
	<path class="st9" d="M1626,271.2c0,20.4-16.6,37-37,37c-20.4,0-37-16.6-37-37c0-20.4,16.6-37,37-37
		C1609.5,234.3,1626,250.8,1626,271.2z"/>
	<text transform="matrix(1 0 0 1 1573.127 293.2485)" class="st2 st7 st8">7</text>
</g>
</svg>
