<?xml version="1.0" encoding="utf-8"?>
<!-- Generator: Adobe Illustrator 23.0.0, SVG Export Plug-In . SVG Version: 6.00 Build 0)  -->
<svg version="1.1" id="Layer_1" xmlns="http://www.w3.org/2000/svg" xmlns:xlink="http://www.w3.org/1999/xlink" x="0px" y="0px"
	 viewBox="0 0 2075 2015" style="enable-background:new 0 0 2075 2015;" xml:space="preserve">
<style type="text/css">
	.st0{fill:#EF9B75;}
	.st1{fill:#FFFFFF;}
	.st2{fill:#F05453;stroke:#FFFFFF;stroke-width:3;stroke-miterlimit:10;}
	.st3{fill:#F05453;}
	.st4{fill:#FFFFFF;stroke:#F05453;stroke-width:5;stroke-miterlimit:10;}
	.st5{fill:none;stroke:#F05453;stroke-width:5;stroke-miterlimit:10;}
	.st6{fill:#1C998B;}
	.st7{font-family:'Roboto-Medium';}
	.st8{font-size:56px;}
	.st9{fill:#465051;}
</style>
<polygon class="st0" points="1829.6,225.7 1477.9,225.7 1477.9,167.4 1475.7,167.4 1475.7,127.1 1196.1,127.1 1196.1,167.4 
	791.6,167.4 791.6,109.1 582.5,109.1 582.5,225.7 250,225.7 250,1829.2 1196.1,1829.2 1196.1,1866 1411.7,1866 1411.7,1829.2 
	1829.6,1829.2 "/>
<path class="st1" d="M1693.5,344.2v-59.4h-174.4h-52.6h-75.4v59.4h75.4v210.5h-54.8h-215.6v20.6v72v355.9V1134v110.8l0,0V1417h39.6
	h155.4v0h86.8v159.9h-66.3v72.5h66.3h80h135.6v-72.5h-135.6V1417h135.6v-60.6V1265l0,0v-152.1V554.7h-89.9v0h-84.5V344.2H1693.5z
	 M1603.6,632.1v480.8V1265l0,0h-191.9v-189.7h-20.6V647.3h20.6v-15.2H1603.6z"/>
<rect x="1389.3" y="151" class="st2" width="304.3" height="132.9"/>
<rect x="1391.1" y="985.9" class="st2" width="212.5" height="279.2"/>
<rect x="637.1" y="1417" class="st2" width="724.3" height="160"/>
<rect x="1411.7" y="1649.5" class="st2" width="205.4" height="179.7"/>
<rect x="1617.1" y="1649.5" class="st2" width="212.5" height="179.7"/>
<rect x="1693.5" y="1404.2" class="st2" width="136.1" height="245.3"/>
<rect x="1347.7" y="344.2" class="st2" width="118.8" height="210.5"/>
<rect x="1361.4" y="1417" class="st2" width="116.5" height="160"/>
<g>
	<rect x="914.3" y="1329.4" class="st1" width="281.8" height="78.7"/>
	<rect x="1117.9" y="1334.6" class="st3" width="8" height="69.5"/>
	<rect x="1102.9" y="1334.6" class="st3" width="7.9" height="69.5"/>
	<rect x="1087.8" y="1334.6" class="st3" width="8" height="69.5"/>
	<rect x="1072.8" y="1334.6" class="st3" width="8" height="69.5"/>
	<rect x="1057.8" y="1334.6" class="st3" width="8" height="69.5"/>
	<rect x="1042.8" y="1334.6" class="st3" width="8" height="69.5"/>
	<rect x="1027.7" y="1334.6" class="st3" width="8" height="69.5"/>
	<rect x="1012.7" y="1334.6" class="st3" width="8" height="69.5"/>
	<rect x="997.7" y="1334.6" class="st3" width="8" height="69.5"/>
	<rect x="982.7" y="1334.6" class="st3" width="8" height="69.5"/>
	<rect x="967.7" y="1334.6" class="st3" width="8" height="69.5"/>
	<rect x="952.6" y="1334.6" class="st3" width="8" height="69.5"/>
	<rect x="937.6" y="1334.6" class="st3" width="8" height="69.5"/>
	<rect x="922.6" y="1334.6" class="st3" width="8" height="69.5"/>
	<rect x="1132.9" y="1334.6" class="st3" width="8" height="69.5"/>
	<rect x="1162.9" y="1334.6" class="st3" width="8" height="69.5"/>
	<rect x="1147.9" y="1334.6" class="st3" width="8" height="69.5"/>
	<rect x="1178" y="1334.6" class="st3" width="8" height="69.5"/>
</g>
<g>
	<rect x="1624.1" y="1412.6" class="st3" width="71.4" height="168.7"/>
	<rect x="1628.8" y="1428.2" class="st1" width="63" height="5.8"/>
	<rect x="1628.8" y="1439.1" class="st1" width="63" height="5.8"/>
	<rect x="1628.8" y="1450" class="st1" width="63" height="5.8"/>
	<rect x="1628.8" y="1460.9" class="st1" width="63" height="5.8"/>
	<rect x="1628.8" y="1471.7" class="st1" width="63" height="5.8"/>
	<rect x="1628.8" y="1482.6" class="st1" width="63" height="5.8"/>
	<rect x="1628.8" y="1493.5" class="st1" width="63" height="5.8"/>
	<rect x="1628.8" y="1504.3" class="st1" width="63" height="5.8"/>
	<rect x="1628.8" y="1515.2" class="st1" width="63" height="5.8"/>
	<rect x="1628.8" y="1526.1" class="st1" width="63" height="5.8"/>
	<rect x="1628.8" y="1537" class="st1" width="63" height="5.8"/>
	<rect x="1628.8" y="1547.8" class="st1" width="63" height="5.8"/>
	<rect x="1628.8" y="1558.7" class="st1" width="63" height="5.8"/>
	<rect x="1628.8" y="1569.6" class="st1" width="63" height="5.8"/>
	<rect x="1628.8" y="1417.4" class="st1" width="63" height="5.8"/>
</g>
<g>
	<rect x="1557.9" y="1414.2" class="st4" width="67.6" height="55"/>
	<line class="st5" x1="1625.5" y1="1414.2" x2="1557.9" y2="1469.3"/>
	<line class="st5" x1="1625.5" y1="1469.3" x2="1557.9" y2="1414.2"/>
</g>
<polygon class="st1" points="1725.9,1615.6 1709.7,1624.9 1693.5,1634.3 1693.5,1615.6 1693.5,1596.9 1709.7,1606.2 "/>
<polygon class="st1" points="1644.2,1681.8 1634.8,1665.7 1625.5,1649.5 1644.2,1649.5 1662.9,1649.5 1653.5,1665.7 "/>
<polygon class="st1" points="1514.4,1681.8 1505.1,1665.7 1495.7,1649.5 1514.4,1649.5 1533.1,1649.5 1523.7,1665.7 "/>
<polygon class="st1" points="1412.2,256.6 1420.1,270.3 1427.9,283.9 1412.2,283.9 1396.4,283.9 1404.3,270.3 "/>
<polygon class="st1" points="1549.4,256.6 1557.2,270.3 1565.1,283.9 1549.4,283.9 1533.6,283.9 1541.5,270.3 "/>
<polygon class="st1" points="1427,376 1417.7,359.8 1408.3,343.7 1427,343.7 1445.7,343.7 1436.4,359.8 "/>
<g>
	<rect x="1620.5" y="346" class="st3" width="71.4" height="168.7"/>
	<rect x="1625.2" y="361.6" class="st1" width="63" height="5.8"/>
	<rect x="1625.2" y="372.5" class="st1" width="63" height="5.8"/>
	<rect x="1625.2" y="383.4" class="st1" width="63" height="5.8"/>
	<rect x="1625.2" y="394.3" class="st1" width="63" height="5.8"/>
	<rect x="1625.2" y="405.1" class="st1" width="63" height="5.8"/>
	<rect x="1625.2" y="416" class="st1" width="63" height="5.8"/>
	<rect x="1625.2" y="426.9" class="st1" width="63" height="5.8"/>
	<rect x="1625.2" y="437.7" class="st1" width="63" height="5.8"/>
	<rect x="1625.2" y="448.6" class="st1" width="63" height="5.8"/>
	<rect x="1625.2" y="459.5" class="st1" width="63" height="5.8"/>
	<rect x="1625.2" y="470.4" class="st1" width="63" height="5.8"/>
	<rect x="1625.2" y="481.2" class="st1" width="63" height="5.8"/>
	<rect x="1625.2" y="492.1" class="st1" width="63" height="5.8"/>
	<rect x="1625.2" y="503" class="st1" width="63" height="5.8"/>
	<rect x="1625.2" y="350.8" class="st1" width="63" height="5.8"/>
</g>
<polygon class="st1" points="1331.6,1447.3 1322.2,1431.1 1312.9,1414.9 1331.6,1414.9 1350.3,1414.9 1340.9,1431.1 "/>
<polygon class="st1" points="1446.4,1442 1462.6,1432.7 1478.7,1423.3 1478.7,1442 1478.7,1460.7 1462.6,1451.3 "/>
<polygon class="st1" points="1571.6,1200.5 1587.8,1191.2 1603.9,1181.9 1603.9,1200.5 1603.9,1219.2 1587.8,1209.9 "/>
<polygon class="st1" points="1571.6,1161 1587.8,1151.7 1603.9,1142.3 1603.9,1161 1603.9,1179.7 1587.8,1170.4 "/>
<polygon class="st3" points="1440.2,593.6 1424,603 1407.8,612.3 1407.8,593.6 1407.8,574.9 1424,584.3 "/>
<polygon class="st3" points="1424,1310.5 1407.8,1319.9 1391.7,1329.2 1391.7,1310.5 1391.7,1291.8 1407.8,1301.2 "/>
<polygon class="st3" points="1424,1356 1407.8,1365.3 1391.7,1374.7 1391.7,1356 1391.7,1337.3 1407.8,1346.6 "/>
<path class="st6" d="M1641.1,221.4c0,20.4-16.5,36.9-36.9,36.9c-20.4,0-36.9-16.5-36.9-36.9c0-20.4,16.5-36.9,36.9-36.9
	C1624.6,184.5,1641.1,201,1641.1,221.4z"/>
<g>
	<text transform="matrix(1 0 0 1 1585.6235 240.0918)" class="st1 st7 st8">4</text>
</g>
<path class="st9" d="M1444.1,470.4c0,20.4-16.6,37-37,37c-20.4,0-37-16.6-37-37c0-20.4,16.6-37,37-37
	C1427.5,433.4,1444.1,449.9,1444.1,470.4z"/>
<text transform="matrix(1 0 0 1 1382.5898 491.4258)" class="st1 st7 st8">M</text>
<path class="st9" d="M1456.7,1500.9c0,20.4-16.6,37-37,37c-20.4,0-37-16.6-37-37c0-20.4,16.6-37,37-37
	C1440.1,1464,1456.7,1480.5,1456.7,1500.9z"/>
<text transform="matrix(1 0 0 1 1395.0342 1523.0239)" class="st1 st7 st8">W</text>
<path class="st6" d="M1556.1,1113.4c0,20.4-16.5,36.9-36.9,36.9c-20.4,0-36.9-16.5-36.9-36.9c0-20.4,16.5-36.9,36.9-36.9
	C1539.6,1076.5,1556.1,1093,1556.1,1113.4z"/>
<text transform="matrix(1 0 0 1 1501.2949 1132.3975)" class="st1 st7 st8">4</text>
<path class="st6" d="M1554.3,1743.8c0,20.4-16.5,36.9-36.9,36.9c-20.4,0-36.9-16.5-36.9-36.9c0-20.4,16.5-36.9,36.9-36.9
	C1537.8,1706.9,1554.3,1723.4,1554.3,1743.8z"/>
<text transform="matrix(1 0 0 1 1499.4912 1764.7954)" class="st1 st7 st8">4</text>
<path class="st6" d="M1772.3,1738.4c0,20.4-16.5,36.9-36.9,36.9c-20.4,0-36.9-16.5-36.9-36.9c0-20.4,16.5-36.9,36.9-36.9
	C1755.7,1701.4,1772.3,1718,1772.3,1738.4z"/>
<text transform="matrix(1 0 0 1 1717.4302 1758.3291)" class="st1 st7 st8">4</text>
<path class="st6" d="M1802.6,1532.1c0,20.4-16.5,36.9-36.9,36.9c-20.4,0-36.9-16.5-36.9-36.9c0-20.4,16.5-36.9,36.9-36.9
	C1786.1,1495.2,1802.6,1511.7,1802.6,1532.1z"/>
<text transform="matrix(1 0 0 1 1746.8003 1552.0869)" class="st1 st7 st8">4</text>
</svg>
