<?xml version="1.0" encoding="utf-8"?>
<!-- Generator: Adobe Illustrator 21.1.0, SVG Export Plug-In . SVG Version: 6.00 Build 0)  -->
<svg version="1.1" id="Layer_1" xmlns="http://www.w3.org/2000/svg" xmlns:xlink="http://www.w3.org/1999/xlink" x="0px" y="0px"
	 viewBox="0 0 200 200" style="enable-background:new 0 0 200 200;" xml:space="preserve">
<style type="text/css">
	.st0{clip-path:url(#SVGID_2_);}
	.st1{clip-path:url(#SVGID_4_);fill:#2FB5E3;}
	.st2{clip-path:url(#SVGID_6_);}
	.st3{clip-path:url(#SVGID_8_);fill:#2FB5E3;}
	.st4{clip-path:url(#SVGID_10_);}
	.st5{clip-path:url(#SVGID_12_);fill:#2FB5E3;}
	.st6{clip-path:url(#SVGID_14_);}
	.st7{clip-path:url(#SVGID_16_);fill:#2FB5E3;}
	.st8{clip-path:url(#SVGID_18_);}
	.st9{clip-path:url(#SVGID_20_);fill:#2FB5E3;}
	.st10{clip-path:url(#SVGID_22_);}
	.st11{clip-path:url(#SVGID_24_);fill:#2FB5E3;}
	.st12{clip-path:url(#SVGID_26_);}
	.st13{clip-path:url(#SVGID_28_);fill:#2FB5E3;}
	.st14{clip-path:url(#SVGID_30_);}
	.st15{clip-path:url(#SVGID_32_);fill:#2FB5E3;}
	.st16{clip-path:url(#SVGID_34_);}
	.st17{clip-path:url(#SVGID_36_);fill:#2FB5E3;}
</style>
<g>
	<g>
		<defs>
			<path id="SVGID_1_" d="M70.4,161.9c1.3-0.5,2.8,0.3,3.3,1.7l7.3,20c0.5,1.4-0.2,2.9-1.5,3.4l-18.9,6.9c-1.3,0.5-2.8-0.3-3.3-1.7
				l-7.3-20c-0.5-1.4,0.2-2.9,1.5-3.4L70.4,161.9z"/>
		</defs>
		<clipPath id="SVGID_2_">
			<use xlink:href="#SVGID_1_"  style="overflow:visible;"/>
		</clipPath>
		<g class="st0">
			<defs>
				<rect id="SVGID_3_" x="-177.2" y="-1534" width="7591.3" height="7275"/>
			</defs>
			<clipPath id="SVGID_4_">
				<use xlink:href="#SVGID_3_"  style="overflow:visible;"/>
			</clipPath>
			
				<rect x="26.6" y="138.2" transform="matrix(0.9397 -0.342 0.342 0.9397 -56.8826 33.1531)" class="st1" width="77.9" height="79.4"/>
		</g>
	</g>
	<g>
		<defs>
			<path id="SVGID_5_" d="M48.9,102.8c1.3-0.5,2.8,0.3,3.3,1.7l7.3,20c0.5,1.4-0.2,2.9-1.5,3.4l-18.9,6.9c-1.3,0.5-2.8-0.3-3.3-1.7
				l-7.3-20c-0.5-1.4,0.2-2.9,1.5-3.4L48.9,102.8z"/>
		</defs>
		<clipPath id="SVGID_6_">
			<use xlink:href="#SVGID_5_"  style="overflow:visible;"/>
		</clipPath>
		<g class="st2">
			<defs>
				<rect id="SVGID_7_" x="-177.2" y="-1534" width="7591.3" height="7275"/>
			</defs>
			<clipPath id="SVGID_8_">
				<use xlink:href="#SVGID_7_"  style="overflow:visible;"/>
			</clipPath>
			
				<rect x="5.1" y="79.1" transform="matrix(0.9397 -0.342 0.342 0.9397 -37.9717 22.2349)" class="st3" width="77.9" height="79.4"/>
		</g>
	</g>
	<g>
		<defs>
			<path id="SVGID_9_" d="M27.4,43.7c1.3-0.5,2.8,0.3,3.3,1.7l7.3,20c0.5,1.4-0.2,2.9-1.5,3.4l-18.9,6.9c-1.3,0.5-2.8-0.3-3.3-1.7
				L7.1,54c-0.5-1.4,0.2-2.9,1.5-3.4L27.4,43.7z"/>
		</defs>
		<clipPath id="SVGID_10_">
			<use xlink:href="#SVGID_9_"  style="overflow:visible;"/>
		</clipPath>
		<g class="st4">
			<defs>
				<rect id="SVGID_11_" x="-177.2" y="-1534" width="7591.3" height="7275"/>
			</defs>
			<clipPath id="SVGID_12_">
				<use xlink:href="#SVGID_11_"  style="overflow:visible;"/>
			</clipPath>
			
				<rect x="-16.4" y="20" transform="matrix(0.9397 -0.342 0.342 0.9397 -19.0608 11.3167)" class="st5" width="77.9" height="79.4"/>
		</g>
	</g>
	<g>
		<defs>
			<path id="SVGID_13_" d="M121.9,143.2c1.3-0.5,2.8,0.3,3.3,1.7l7.3,20c0.5,1.4-0.2,2.9-1.5,3.4l-18.9,6.9
				c-1.3,0.5-2.8-0.3-3.3-1.7l-7.3-20c-0.5-1.4,0.2-2.9,1.5-3.4L121.9,143.2z"/>
		</defs>
		<clipPath id="SVGID_14_">
			<use xlink:href="#SVGID_13_"  style="overflow:visible;"/>
		</clipPath>
		<g class="st6">
			<defs>
				<rect id="SVGID_15_" x="-177.2" y="-1534" width="7591.3" height="7275"/>
			</defs>
			<clipPath id="SVGID_16_">
				<use xlink:href="#SVGID_15_"  style="overflow:visible;"/>
			</clipPath>
			
				<rect x="78" y="119.4" transform="matrix(0.9397 -0.342 0.342 0.9397 -47.379 49.6138)" class="st7" width="77.9" height="79.4"/>
		</g>
	</g>
	<g>
		<defs>
			<path id="SVGID_17_" d="M100.4,84.1c1.3-0.5,2.8,0.3,3.3,1.7l7.3,20c0.5,1.4-0.2,2.9-1.5,3.4l-18.9,6.9c-1.3,0.5-2.8-0.3-3.3-1.7
				l-7.3-20c-0.5-1.4,0.2-2.9,1.5-3.4L100.4,84.1z"/>
		</defs>
		<clipPath id="SVGID_18_">
			<use xlink:href="#SVGID_17_"  style="overflow:visible;"/>
		</clipPath>
		<g class="st8">
			<defs>
				<rect id="SVGID_19_" x="-177.2" y="-1534" width="7591.3" height="7275"/>
			</defs>
			<clipPath id="SVGID_20_">
				<use xlink:href="#SVGID_19_"  style="overflow:visible;"/>
			</clipPath>
			
				<rect x="56.5" y="60.4" transform="matrix(0.9397 -0.342 0.342 0.9397 -28.4681 38.6956)" class="st9" width="77.9" height="79.4"/>
		</g>
	</g>
	<g>
		<defs>
			<path id="SVGID_21_" d="M78.9,25c1.3-0.5,2.8,0.3,3.3,1.7l7.3,20c0.5,1.4-0.2,2.9-1.5,3.4L69.1,57c-1.3,0.5-2.8-0.3-3.3-1.7
				l-7.3-20c-0.5-1.4,0.2-2.9,1.5-3.4L78.9,25z"/>
		</defs>
		<clipPath id="SVGID_22_">
			<use xlink:href="#SVGID_21_"  style="overflow:visible;"/>
		</clipPath>
		<g class="st10">
			<defs>
				<rect id="SVGID_23_" x="-177.2" y="-1534" width="7591.3" height="7275"/>
			</defs>
			<clipPath id="SVGID_24_">
				<use xlink:href="#SVGID_23_"  style="overflow:visible;"/>
			</clipPath>
			<rect x="35" y="1.3" transform="matrix(0.9397 -0.342 0.342 0.9397 -9.5572 27.7773)" class="st11" width="77.9" height="79.4"/>
		</g>
	</g>
	<g>
		<defs>
			<path id="SVGID_25_" d="M173.3,124.5c1.3-0.5,2.8,0.3,3.3,1.7l7.3,20c0.5,1.4-0.2,2.9-1.5,3.4l-18.9,6.9
				c-1.3,0.5-2.8-0.3-3.3-1.7l-7.3-20c-0.5-1.4,0.2-2.9,1.5-3.4L173.3,124.5z"/>
		</defs>
		<clipPath id="SVGID_26_">
			<use xlink:href="#SVGID_25_"  style="overflow:visible;"/>
		</clipPath>
		<g class="st12">
			<defs>
				<rect id="SVGID_27_" x="-177.2" y="-1534" width="7591.3" height="7275"/>
			</defs>
			<clipPath id="SVGID_28_">
				<use xlink:href="#SVGID_27_"  style="overflow:visible;"/>
			</clipPath>
			
				<rect x="129.5" y="100.7" transform="matrix(0.9397 -0.342 0.342 0.9397 -37.8755 66.0745)" class="st13" width="77.9" height="79.4"/>
		</g>
	</g>
	<g>
		<defs>
			<path id="SVGID_29_" d="M151.8,65.4c1.3-0.5,2.8,0.3,3.3,1.7l7.3,20c0.5,1.4-0.2,2.9-1.5,3.4l-18.9,6.9c-1.3,0.5-2.8-0.3-3.3-1.7
				l-7.3-20c-0.5-1.4,0.2-2.9,1.5-3.4L151.8,65.4z"/>
		</defs>
		<clipPath id="SVGID_30_">
			<use xlink:href="#SVGID_29_"  style="overflow:visible;"/>
		</clipPath>
		<g class="st14">
			<defs>
				<rect id="SVGID_31_" x="-177.2" y="-1534" width="7591.3" height="7275"/>
			</defs>
			<clipPath id="SVGID_32_">
				<use xlink:href="#SVGID_31_"  style="overflow:visible;"/>
			</clipPath>
			
				<rect x="108" y="41.6" transform="matrix(0.9397 -0.342 0.342 0.9397 -18.9645 55.1562)" class="st15" width="77.9" height="79.4"/>
		</g>
	</g>
	<g>
		<defs>
			<path id="SVGID_33_" d="M130.3,6.3c1.3-0.5,2.8,0.3,3.3,1.7l7.3,20c0.5,1.4-0.2,2.9-1.5,3.4l-18.9,6.9c-1.3,0.5-2.8-0.3-3.3-1.7
				l-7.3-20c-0.5-1.4,0.2-2.9,1.5-3.4L130.3,6.3z"/>
		</defs>
		<clipPath id="SVGID_34_">
			<use xlink:href="#SVGID_33_"  style="overflow:visible;"/>
		</clipPath>
		<g class="st16">
			<defs>
				<rect id="SVGID_35_" x="-177.2" y="-1534" width="7591.3" height="7275"/>
			</defs>
			<clipPath id="SVGID_36_">
				<use xlink:href="#SVGID_35_"  style="overflow:visible;"/>
			</clipPath>
			
				<rect x="86.5" y="-17.4" transform="matrix(0.9397 -0.342 0.342 0.9397 -5.364428e-02 44.238)" class="st17" width="77.9" height="79.4"/>
		</g>
	</g>
</g>
</svg>
