<?xml version="1.0" encoding="utf-8"?>
<!-- Generator: Adobe Illustrator 21.1.0, SVG Export Plug-In . SVG Version: 6.00 Build 0)  -->
<svg version="1.1" id="Layer_1" xmlns="http://www.w3.org/2000/svg" xmlns:xlink="http://www.w3.org/1999/xlink" x="0px" y="0px"
	 viewBox="0 0 200 200" style="enable-background:new 0 0 200 200;" xml:space="preserve">
<style type="text/css">
	.st0{clip-path:url(#SVGID_2_);}
	.st1{clip-path:url(#SVGID_4_);fill:#2FB5E3;}
	.st2{clip-path:url(#SVGID_6_);}
	.st3{clip-path:url(#SVGID_8_);fill:#2FB5E3;}
	.st4{clip-path:url(#SVGID_10_);}
	.st5{clip-path:url(#SVGID_12_);fill:#2FB5E3;}
	.st6{clip-path:url(#SVGID_14_);}
	.st7{clip-path:url(#SVGID_16_);fill:#2FB5E3;}
	.st8{clip-path:url(#SVGID_18_);}
	.st9{clip-path:url(#SVGID_20_);fill:#2FB5E3;}
	.st10{clip-path:url(#SVGID_22_);}
	.st11{clip-path:url(#SVGID_24_);fill:#2FB5E3;}
	.st12{clip-path:url(#SVGID_26_);}
	.st13{clip-path:url(#SVGID_28_);fill:#2FB5E3;}
	.st14{clip-path:url(#SVGID_30_);}
	.st15{clip-path:url(#SVGID_32_);fill:#2FB5E3;}
	.st16{clip-path:url(#SVGID_34_);}
	.st17{clip-path:url(#SVGID_36_);fill:#2FB5E3;}
</style>
<g>
	<g>
		<defs>
			<path id="SVGID_1_" d="M104.3,159.3c0.9-0.9,2.4-0.9,3.4,0l14,13.5c1,0.9,1,2.5,0.2,3.4l-12.7,13.2c-0.9,0.9-2.4,0.9-3.4,0
				l-14-13.5c-1-0.9-1-2.5-0.2-3.4L104.3,159.3z"/>
		</defs>
		<clipPath id="SVGID_2_">
			<use xlink:href="#SVGID_1_"  style="overflow:visible;"/>
		</clipPath>
		<g class="st0">
			<defs>
				<rect id="SVGID_3_" x="-6012" y="-3821.8" width="6915.9" height="4351.3"/>
			</defs>
			<clipPath id="SVGID_4_">
				<use xlink:href="#SVGID_3_"  style="overflow:visible;"/>
			</clipPath>
			
				<rect x="71.2" y="138.1" transform="matrix(0.6947 -0.7193 0.7193 0.6947 -92.793 129.9808)" class="st1" width="71" height="72.4"/>
		</g>
	</g>
	<g>
		<defs>
			<path id="SVGID_5_" d="M63.1,119.5c0.9-0.9,2.4-0.9,3.4,0l14,13.5c1,0.9,1,2.5,0.2,3.4l-12.7,13.2c-0.9,0.9-2.4,0.9-3.4,0
				l-14-13.5c-1-0.9-1-2.5-0.2-3.4L63.1,119.5z"/>
		</defs>
		<clipPath id="SVGID_6_">
			<use xlink:href="#SVGID_5_"  style="overflow:visible;"/>
		</clipPath>
		<g class="st2">
			<defs>
				<rect id="SVGID_7_" x="-6012" y="-3821.8" width="6915.9" height="4351.3"/>
			</defs>
			<clipPath id="SVGID_8_">
				<use xlink:href="#SVGID_7_"  style="overflow:visible;"/>
			</clipPath>
			
				<rect x="30" y="98.3" transform="matrix(0.6947 -0.7193 0.7193 0.6947 -76.7511 88.1903)" class="st3" width="71" height="72.4"/>
		</g>
	</g>
	<g>
		<defs>
			<path id="SVGID_9_" d="M21.9,79.7c0.9-0.9,2.4-0.9,3.4,0l14,13.5c1,0.9,1,2.5,0.2,3.4l-12.7,13.2c-0.9,0.9-2.4,0.9-3.4,0
				l-14-13.5c-1-0.9-1-2.5-0.2-3.4L21.9,79.7z"/>
		</defs>
		<clipPath id="SVGID_10_">
			<use xlink:href="#SVGID_9_"  style="overflow:visible;"/>
		</clipPath>
		<g class="st4">
			<defs>
				<rect id="SVGID_11_" x="-6012" y="-3821.8" width="6915.9" height="4351.3"/>
			</defs>
			<clipPath id="SVGID_12_">
				<use xlink:href="#SVGID_11_"  style="overflow:visible;"/>
			</clipPath>
			
				<rect x="-11.2" y="58.5" transform="matrix(0.6947 -0.7193 0.7193 0.6947 -60.7093 46.3999)" class="st5" width="71" height="72.4"/>
		</g>
	</g>
	<g>
		<defs>
			<path id="SVGID_13_" d="M138.9,123.4c0.9-0.9,2.4-0.9,3.4,0l14,13.5c1,0.9,1,2.5,0.2,3.4l-12.7,13.2c-0.9,0.9-2.4,0.9-3.4,0
				l-14-13.5c-1-0.9-1-2.5-0.2-3.4L138.9,123.4z"/>
		</defs>
		<clipPath id="SVGID_14_">
			<use xlink:href="#SVGID_13_"  style="overflow:visible;"/>
		</clipPath>
		<g class="st6">
			<defs>
				<rect id="SVGID_15_" x="-6012" y="-3821.8" width="6915.9" height="4351.3"/>
			</defs>
			<clipPath id="SVGID_16_">
				<use xlink:href="#SVGID_15_"  style="overflow:visible;"/>
			</clipPath>
			
				<rect x="105.9" y="102.2" transform="matrix(0.6947 -0.7193 0.7193 0.6947 -56.4171 143.9442)" class="st7" width="71" height="72.4"/>
		</g>
	</g>
	<g>
		<defs>
			<path id="SVGID_17_" d="M97.7,83.6c0.9-0.9,2.4-0.9,3.4,0l14,13.5c1,0.9,1,2.5,0.2,3.4l-12.7,13.2c-0.9,0.9-2.4,0.9-3.4,0
				l-14-13.5c-1-0.9-1-2.5-0.2-3.4L97.7,83.6z"/>
		</defs>
		<clipPath id="SVGID_18_">
			<use xlink:href="#SVGID_17_"  style="overflow:visible;"/>
		</clipPath>
		<g class="st8">
			<defs>
				<rect id="SVGID_19_" x="-6012" y="-3821.8" width="6915.9" height="4351.3"/>
			</defs>
			<clipPath id="SVGID_20_">
				<use xlink:href="#SVGID_19_"  style="overflow:visible;"/>
			</clipPath>
			
				<rect x="64.7" y="62.5" transform="matrix(0.6947 -0.7193 0.7193 0.6947 -40.3752 102.1537)" class="st9" width="71" height="72.4"/>
		</g>
	</g>
	<g>
		<defs>
			<path id="SVGID_21_" d="M56.5,43.8c0.9-0.9,2.4-0.9,3.4,0l14,13.5c1,0.9,1,2.5,0.2,3.4L61.3,73.9c-0.9,0.9-2.4,0.9-3.4,0L44,60.4
				c-1-0.9-1-2.5-0.2-3.4L56.5,43.8z"/>
		</defs>
		<clipPath id="SVGID_22_">
			<use xlink:href="#SVGID_21_"  style="overflow:visible;"/>
		</clipPath>
		<g class="st10">
			<defs>
				<rect id="SVGID_23_" x="-6012" y="-3821.8" width="6915.9" height="4351.3"/>
			</defs>
			<clipPath id="SVGID_24_">
				<use xlink:href="#SVGID_23_"  style="overflow:visible;"/>
			</clipPath>
			
				<rect x="23.5" y="22.7" transform="matrix(0.6947 -0.7193 0.7193 0.6947 -24.3334 60.3632)" class="st11" width="71" height="72.4"/>
		</g>
	</g>
	<g>
		<defs>
			<path id="SVGID_25_" d="M173.6,87.5c0.9-0.9,2.4-0.9,3.4,0l14,13.5c1,0.9,1,2.5,0.2,3.4l-12.7,13.2c-0.9,0.9-2.4,0.9-3.4,0
				l-14-13.5c-1-0.9-1-2.5-0.2-3.4L173.6,87.5z"/>
		</defs>
		<clipPath id="SVGID_26_">
			<use xlink:href="#SVGID_25_"  style="overflow:visible;"/>
		</clipPath>
		<g class="st12">
			<defs>
				<rect id="SVGID_27_" x="-6012" y="-3821.8" width="6915.9" height="4351.3"/>
			</defs>
			<clipPath id="SVGID_28_">
				<use xlink:href="#SVGID_27_"  style="overflow:visible;"/>
			</clipPath>
			
				<rect x="140.5" y="66.4" transform="matrix(0.6947 -0.7193 0.7193 0.6947 -20.0413 157.9077)" class="st13" width="71" height="72.4"/>
		</g>
	</g>
	<g>
		<defs>
			<path id="SVGID_29_" d="M132.4,47.7c0.9-0.9,2.4-0.9,3.4,0l14,13.5c1,0.9,1,2.5,0.2,3.4l-12.7,13.2c-0.9,0.9-2.4,0.9-3.4,0
				l-14-13.5c-1-0.9-1-2.5-0.2-3.4L132.4,47.7z"/>
		</defs>
		<clipPath id="SVGID_30_">
			<use xlink:href="#SVGID_29_"  style="overflow:visible;"/>
		</clipPath>
		<g class="st14">
			<defs>
				<rect id="SVGID_31_" x="-6012" y="-3821.8" width="6915.9" height="4351.3"/>
			</defs>
			<clipPath id="SVGID_32_">
				<use xlink:href="#SVGID_31_"  style="overflow:visible;"/>
			</clipPath>
			
				<rect x="99.3" y="26.6" transform="matrix(0.6947 -0.7193 0.7193 0.6947 -3.9994 116.1171)" class="st15" width="71" height="72.4"/>
		</g>
	</g>
	<g>
		<defs>
			<path id="SVGID_33_" d="M91.2,8C92.1,7,93.6,7,94.6,8l14,13.5c1,0.9,1,2.5,0.2,3.4L96,38c-0.9,0.9-2.4,0.9-3.4,0l-14-13.5
				c-1-0.9-1-2.5-0.2-3.4L91.2,8z"/>
		</defs>
		<clipPath id="SVGID_34_">
			<use xlink:href="#SVGID_33_"  style="overflow:visible;"/>
		</clipPath>
		<g class="st16">
			<defs>
				<rect id="SVGID_35_" x="-6012" y="-3821.8" width="6915.9" height="4351.3"/>
			</defs>
			<clipPath id="SVGID_36_">
				<use xlink:href="#SVGID_35_"  style="overflow:visible;"/>
			</clipPath>
			
				<rect x="58.1" y="-13.2" transform="matrix(0.6947 -0.7193 0.7193 0.6947 12.0424 74.3266)" class="st17" width="71" height="72.4"/>
		</g>
	</g>
</g>
</svg>
