<?xml version="1.0" encoding="utf-8"?>
<!-- Generator: Adobe Illustrator 21.1.0, SVG Export Plug-In . SVG Version: 6.00 Build 0)  -->
<svg version="1.1" id="Layer_1" xmlns="http://www.w3.org/2000/svg" xmlns:xlink="http://www.w3.org/1999/xlink" x="0px" y="0px"
	 viewBox="0 0 200 200" style="enable-background:new 0 0 200 200;" xml:space="preserve">
<style type="text/css">
	.st0{clip-path:url(#SVGID_2_);}
	.st1{clip-path:url(#SVGID_4_);fill:#2FB5E3;}
	.st2{clip-path:url(#SVGID_6_);}
	.st3{clip-path:url(#SVGID_8_);fill:#2FB5E3;}
	.st4{clip-path:url(#SVGID_10_);}
	.st5{clip-path:url(#SVGID_12_);fill:#2FB5E3;}
	.st6{clip-path:url(#SVGID_14_);}
	.st7{clip-path:url(#SVGID_16_);fill:#2FB5E3;}
	.st8{clip-path:url(#SVGID_18_);}
	.st9{clip-path:url(#SVGID_20_);fill:#2FB5E3;}
	.st10{clip-path:url(#SVGID_22_);}
	.st11{clip-path:url(#SVGID_24_);fill:#2FB5E3;}
	.st12{clip-path:url(#SVGID_26_);}
	.st13{clip-path:url(#SVGID_28_);fill:#2FB5E3;}
	.st14{clip-path:url(#SVGID_30_);}
	.st15{clip-path:url(#SVGID_32_);fill:#2FB5E3;}
	.st16{clip-path:url(#SVGID_34_);}
	.st17{clip-path:url(#SVGID_36_);fill:#2FB5E3;}
	.st18{clip-path:url(#SVGID_38_);}
	.st19{clip-path:url(#SVGID_40_);fill:#2FB5E3;}
	.st20{clip-path:url(#SVGID_42_);}
	.st21{clip-path:url(#SVGID_44_);fill:#2FB5E3;}
	.st22{clip-path:url(#SVGID_46_);}
	.st23{clip-path:url(#SVGID_48_);fill:#2FB5E3;}
	.st24{clip-path:url(#SVGID_50_);}
	.st25{clip-path:url(#SVGID_52_);fill:#2FB5E3;}
	.st26{clip-path:url(#SVGID_54_);}
	.st27{clip-path:url(#SVGID_56_);fill:#2FB5E3;}
	.st28{clip-path:url(#SVGID_58_);}
	.st29{clip-path:url(#SVGID_60_);fill:#2FB5E3;}
	.st30{clip-path:url(#SVGID_62_);}
	.st31{clip-path:url(#SVGID_64_);fill:#2FB5E3;}
	.st32{clip-path:url(#SVGID_66_);}
	.st33{clip-path:url(#SVGID_68_);fill:#2FB5E3;}
	.st34{clip-path:url(#SVGID_70_);}
	.st35{clip-path:url(#SVGID_72_);fill:#2FB5E3;}
	.st36{clip-path:url(#SVGID_74_);}
	.st37{clip-path:url(#SVGID_76_);fill:#2FB5E3;}
	.st38{clip-path:url(#SVGID_78_);}
	.st39{clip-path:url(#SVGID_80_);fill:#2FB5E3;}
	.st40{clip-path:url(#SVGID_82_);}
	.st41{clip-path:url(#SVGID_84_);fill:#2FB5E3;}
	.st42{clip-path:url(#SVGID_86_);}
	.st43{clip-path:url(#SVGID_88_);fill:#2FB5E3;}
	.st44{clip-path:url(#SVGID_90_);}
	.st45{clip-path:url(#SVGID_92_);fill:#2FB5E3;}
	.st46{clip-path:url(#SVGID_94_);}
	.st47{clip-path:url(#SVGID_96_);fill:#2FB5E3;}
	.st48{clip-path:url(#SVGID_98_);}
	.st49{clip-path:url(#SVGID_100_);fill:#2FB5E3;}
	.st50{clip-path:url(#SVGID_102_);}
	.st51{clip-path:url(#SVGID_104_);fill:#2FB5E3;}
	.st52{clip-path:url(#SVGID_106_);}
	.st53{clip-path:url(#SVGID_108_);fill:#2FB5E3;}
	.st54{clip-path:url(#SVGID_110_);}
	.st55{clip-path:url(#SVGID_112_);fill:#2FB5E3;}
	.st56{clip-path:url(#SVGID_114_);}
	.st57{clip-path:url(#SVGID_116_);fill:#2FB5E3;}
	.st58{clip-path:url(#SVGID_118_);}
	.st59{clip-path:url(#SVGID_120_);fill:#2FB5E3;}
	.st60{clip-path:url(#SVGID_122_);}
	.st61{clip-path:url(#SVGID_124_);fill:#2FB5E3;}
	.st62{clip-path:url(#SVGID_126_);}
	.st63{clip-path:url(#SVGID_128_);fill:#2FB5E3;}
	.st64{clip-path:url(#SVGID_130_);}
	.st65{clip-path:url(#SVGID_132_);fill:#2FB5E3;}
	.st66{clip-path:url(#SVGID_134_);}
	.st67{clip-path:url(#SVGID_136_);fill:#2FB5E3;}
	.st68{clip-path:url(#SVGID_138_);}
	.st69{clip-path:url(#SVGID_140_);fill:#2FB5E3;}
	.st70{clip-path:url(#SVGID_142_);}
	.st71{clip-path:url(#SVGID_144_);fill:#2FB5E3;}
</style>
<g>
	<g>
		<defs>
			<path id="SVGID_1_" d="M126.2,180.7c3.1,0.6,5.2,3.5,4.7,6.5c-0.5,3.1-3.5,5.1-6.7,4.5c-3.1-0.6-5.2-3.5-4.7-6.5
				C120.1,182.1,123.1,180.1,126.2,180.7"/>
		</defs>
		<clipPath id="SVGID_2_">
			<use xlink:href="#SVGID_1_"  style="overflow:visible;"/>
		</clipPath>
		<g class="st0">
			<defs>
				<rect id="SVGID_3_" x="-3781.8" y="-920.6" width="5198.2" height="4981.6"/>
			</defs>
			<clipPath id="SVGID_4_">
				<use xlink:href="#SVGID_3_"  style="overflow:visible;"/>
			</clipPath>
			
				<rect x="101.6" y="162.4" transform="matrix(0.1736 -0.9848 0.9848 0.1736 -79.8453 277.227)" class="st1" width="47.3" height="47.6"/>
		</g>
	</g>
	<g>
		<defs>
			<path id="SVGID_5_" d="M155.7,185.8c3.1,0.6,5.2,3.5,4.7,6.5c-0.5,3.1-3.5,5.1-6.7,4.5c-3.1-0.6-5.2-3.5-4.7-6.5
				C149.5,187.3,152.5,185.3,155.7,185.8"/>
		</defs>
		<clipPath id="SVGID_6_">
			<use xlink:href="#SVGID_5_"  style="overflow:visible;"/>
		</clipPath>
		<g class="st2">
			<defs>
				<rect id="SVGID_7_" x="-3781.8" y="-920.6" width="5198.2" height="4981.6"/>
			</defs>
			<clipPath id="SVGID_8_">
				<use xlink:href="#SVGID_7_"  style="overflow:visible;"/>
			</clipPath>
			
				<rect x="131" y="167.6" transform="matrix(0.1736 -0.9848 0.9848 0.1736 -60.6498 310.4747)" class="st3" width="47.3" height="47.6"/>
		</g>
	</g>
	<g>
		<defs>
			<path id="SVGID_9_" d="M96.8,175.5c3.1,0.6,5.2,3.5,4.7,6.5c-0.5,3.1-3.5,5.1-6.7,4.5c-3.1-0.6-5.2-3.5-4.7-6.5
				C90.7,176.9,93.7,174.9,96.8,175.5"/>
		</defs>
		<clipPath id="SVGID_10_">
			<use xlink:href="#SVGID_9_"  style="overflow:visible;"/>
		</clipPath>
		<g class="st4">
			<defs>
				<rect id="SVGID_11_" x="-3781.8" y="-920.6" width="5198.2" height="4981.6"/>
			</defs>
			<clipPath id="SVGID_12_">
				<use xlink:href="#SVGID_11_"  style="overflow:visible;"/>
			</clipPath>
			
				<rect x="72.2" y="157.2" transform="matrix(0.1736 -0.9848 0.9848 0.1736 -99.0422 243.9771)" class="st5" width="47.3" height="47.6"/>
		</g>
	</g>
	<g>
		<defs>
			<path id="SVGID_13_" d="M137.3,118c3.1,0.6,5.2,3.5,4.7,6.5c-0.5,3.1-3.5,5.1-6.7,4.5c-3.1-0.6-5.2-3.5-4.7-6.5
				C131.2,119.5,134.2,117.5,137.3,118"/>
		</defs>
		<clipPath id="SVGID_14_">
			<use xlink:href="#SVGID_13_"  style="overflow:visible;"/>
		</clipPath>
		<g class="st6">
			<defs>
				<rect id="SVGID_15_" x="-3781.8" y="-920.6" width="5198.2" height="4981.6"/>
			</defs>
			<clipPath id="SVGID_16_">
				<use xlink:href="#SVGID_15_"  style="overflow:visible;"/>
			</clipPath>
			
				<rect x="112.7" y="99.7" transform="matrix(0.1736 -0.9848 0.9848 0.1736 -9.0232 236.338)" class="st7" width="47.3" height="47.6"/>
		</g>
	</g>
	<g>
		<defs>
			<path id="SVGID_17_" d="M166.7,123.2c3.1,0.6,5.2,3.5,4.7,6.5c-0.5,3.1-3.5,5.1-6.7,4.5c-3.1-0.6-5.2-3.5-4.7-6.5
				C160.6,124.7,163.6,122.6,166.7,123.2"/>
		</defs>
		<clipPath id="SVGID_18_">
			<use xlink:href="#SVGID_17_"  style="overflow:visible;"/>
		</clipPath>
		<g class="st8">
			<defs>
				<rect id="SVGID_19_" x="-3781.8" y="-920.6" width="5198.2" height="4981.6"/>
			</defs>
			<clipPath id="SVGID_20_">
				<use xlink:href="#SVGID_19_"  style="overflow:visible;"/>
			</clipPath>
			
				<rect x="142.1" y="104.9" transform="matrix(0.1736 -0.9848 0.9848 0.1736 10.1723 269.5856)" class="st9" width="47.3" height="47.6"/>
		</g>
	</g>
	<g>
		<defs>
			<path id="SVGID_21_" d="M107.9,112.8c3.1,0.6,5.2,3.5,4.7,6.5c-0.5,3.1-3.5,5.1-6.7,4.5c-3.1-0.6-5.2-3.5-4.7-6.5
				C101.8,114.3,104.7,112.3,107.9,112.8"/>
		</defs>
		<clipPath id="SVGID_22_">
			<use xlink:href="#SVGID_21_"  style="overflow:visible;"/>
		</clipPath>
		<g class="st10">
			<defs>
				<rect id="SVGID_23_" x="-3781.8" y="-920.6" width="5198.2" height="4981.6"/>
			</defs>
			<clipPath id="SVGID_24_">
				<use xlink:href="#SVGID_23_"  style="overflow:visible;"/>
			</clipPath>
			
				<rect x="83.2" y="94.5" transform="matrix(0.1736 -0.9848 0.9848 0.1736 -28.2201 203.0879)" class="st11" width="47.3" height="47.6"/>
		</g>
	</g>
	<g>
		<defs>
			<path id="SVGID_25_" d="M131.8,149.3c3.1,0.6,5.2,3.5,4.7,6.5c-0.5,3.1-3.5,5.1-6.7,4.5c-3.1-0.6-5.2-3.5-4.7-6.5
				C125.6,150.8,128.6,148.8,131.8,149.3"/>
		</defs>
		<clipPath id="SVGID_26_">
			<use xlink:href="#SVGID_25_"  style="overflow:visible;"/>
		</clipPath>
		<g class="st12">
			<defs>
				<rect id="SVGID_27_" x="-3781.8" y="-920.6" width="5198.2" height="4981.6"/>
			</defs>
			<clipPath id="SVGID_28_">
				<use xlink:href="#SVGID_27_"  style="overflow:visible;"/>
			</clipPath>
			
				<rect x="107.1" y="131" transform="matrix(0.1736 -0.9848 0.9848 0.1736 -44.4339 256.7823)" class="st13" width="47.3" height="47.6"/>
		</g>
	</g>
	<g>
		<defs>
			<path id="SVGID_29_" d="M161.2,154.5c3.1,0.6,5.2,3.5,4.7,6.5c-0.5,3.1-3.5,5.1-6.7,4.5c-3.1-0.6-5.2-3.5-4.7-6.5
				C155.1,156,158,154,161.2,154.5"/>
		</defs>
		<clipPath id="SVGID_30_">
			<use xlink:href="#SVGID_29_"  style="overflow:visible;"/>
		</clipPath>
		<g class="st14">
			<defs>
				<rect id="SVGID_31_" x="-3781.8" y="-920.6" width="5198.2" height="4981.6"/>
			</defs>
			<clipPath id="SVGID_32_">
				<use xlink:href="#SVGID_31_"  style="overflow:visible;"/>
			</clipPath>
			
				<rect x="136.5" y="136.2" transform="matrix(0.1736 -0.9848 0.9848 0.1736 -25.2384 290.03)" class="st15" width="47.3" height="47.6"/>
		</g>
	</g>
	<g>
		<defs>
			<path id="SVGID_33_" d="M102.4,144.2c3.1,0.6,5.2,3.5,4.7,6.5c-0.5,3.1-3.5,5.1-6.7,4.5c-3.1-0.6-5.2-3.5-4.7-6.5
				C96.2,145.6,99.2,143.6,102.4,144.2"/>
		</defs>
		<clipPath id="SVGID_34_">
			<use xlink:href="#SVGID_33_"  style="overflow:visible;"/>
		</clipPath>
		<g class="st16">
			<defs>
				<rect id="SVGID_35_" x="-3781.8" y="-920.6" width="5198.2" height="4981.6"/>
			</defs>
			<clipPath id="SVGID_36_">
				<use xlink:href="#SVGID_35_"  style="overflow:visible;"/>
			</clipPath>
			
				<rect x="77.7" y="125.9" transform="matrix(0.1736 -0.9848 0.9848 0.1736 -63.6308 223.5323)" class="st17" width="47.3" height="47.6"/>
		</g>
	</g>
	<g>
		<defs>
			<path id="SVGID_37_" d="M142.5,88.7c3.1,0.6,5.2,3.5,4.7,6.5c-0.5,3.1-3.5,5.1-6.7,4.5c-3.1-0.6-5.2-3.5-4.7-6.5
				C136.3,90.2,139.3,88.2,142.5,88.7"/>
		</defs>
		<clipPath id="SVGID_38_">
			<use xlink:href="#SVGID_37_"  style="overflow:visible;"/>
		</clipPath>
		<g class="st18">
			<defs>
				<rect id="SVGID_39_" x="-3781.8" y="-920.6" width="5198.2" height="4981.6"/>
			</defs>
			<clipPath id="SVGID_40_">
				<use xlink:href="#SVGID_39_"  style="overflow:visible;"/>
			</clipPath>
			
				<rect x="117.8" y="70.4" transform="matrix(0.1736 -0.9848 0.9848 0.1736 24.084 217.2235)" class="st19" width="47.3" height="47.6"/>
		</g>
	</g>
	<g>
		<defs>
			<path id="SVGID_41_" d="M171.9,93.9c3.1,0.6,5.2,3.5,4.7,6.5c-0.5,3.1-3.5,5.1-6.7,4.5c-3.1-0.6-5.2-3.5-4.7-6.5
				C165.7,95.4,168.7,93.4,171.9,93.9"/>
		</defs>
		<clipPath id="SVGID_42_">
			<use xlink:href="#SVGID_41_"  style="overflow:visible;"/>
		</clipPath>
		<g class="st20">
			<defs>
				<rect id="SVGID_43_" x="-3781.8" y="-920.6" width="5198.2" height="4981.6"/>
			</defs>
			<clipPath id="SVGID_44_">
				<use xlink:href="#SVGID_43_"  style="overflow:visible;"/>
			</clipPath>
			
				<rect x="147.2" y="75.6" transform="matrix(0.1736 -0.9848 0.9848 0.1736 43.2796 250.4711)" class="st21" width="47.3" height="47.6"/>
		</g>
	</g>
	<g>
		<defs>
			<path id="SVGID_45_" d="M113,83.5c3.1,0.6,5.2,3.5,4.7,6.5c-0.5,3.1-3.5,5.1-6.7,4.5c-3.1-0.6-5.2-3.5-4.7-6.5
				C106.9,85,109.9,83,113,83.5"/>
		</defs>
		<clipPath id="SVGID_46_">
			<use xlink:href="#SVGID_45_"  style="overflow:visible;"/>
		</clipPath>
		<g class="st22">
			<defs>
				<rect id="SVGID_47_" x="-3781.8" y="-920.6" width="5198.2" height="4981.6"/>
			</defs>
			<clipPath id="SVGID_48_">
				<use xlink:href="#SVGID_47_"  style="overflow:visible;"/>
			</clipPath>
			
				<rect x="88.4" y="65.3" transform="matrix(0.1736 -0.9848 0.9848 0.1736 4.8871 183.9735)" class="st23" width="47.3" height="47.6"/>
		</g>
	</g>
	<g>
		<defs>
			<path id="SVGID_49_" d="M153.5,26.1c3.1,0.6,5.2,3.5,4.7,6.5c-0.5,3.1-3.5,5.1-6.7,4.5c-3.1-0.6-5.2-3.5-4.7-6.5
				C147.4,27.6,150.4,25.5,153.5,26.1"/>
		</defs>
		<clipPath id="SVGID_50_">
			<use xlink:href="#SVGID_49_"  style="overflow:visible;"/>
		</clipPath>
		<g class="st24">
			<defs>
				<rect id="SVGID_51_" x="-3781.8" y="-920.6" width="5198.2" height="4981.6"/>
			</defs>
			<clipPath id="SVGID_52_">
				<use xlink:href="#SVGID_51_"  style="overflow:visible;"/>
			</clipPath>
			
				<rect x="128.9" y="7.8" transform="matrix(0.1736 -0.9848 0.9848 0.1736 94.9061 176.3343)" class="st25" width="47.3" height="47.6"/>
		</g>
	</g>
	<g>
		<defs>
			<path id="SVGID_53_" d="M182.9,31.3c3.1,0.6,5.2,3.5,4.7,6.5c-0.5,3.1-3.5,5.1-6.7,4.5c-3.1-0.6-5.2-3.5-4.7-6.5
				C176.8,32.7,179.8,30.7,182.9,31.3"/>
		</defs>
		<clipPath id="SVGID_54_">
			<use xlink:href="#SVGID_53_"  style="overflow:visible;"/>
		</clipPath>
		<g class="st26">
			<defs>
				<rect id="SVGID_55_" x="-3781.8" y="-920.6" width="5198.2" height="4981.6"/>
			</defs>
			<clipPath id="SVGID_56_">
				<use xlink:href="#SVGID_55_"  style="overflow:visible;"/>
			</clipPath>
			
				<rect x="158.3" y="13" transform="matrix(0.1736 -0.9848 0.9848 0.1736 114.1016 209.5819)" class="st27" width="47.3" height="47.6"/>
		</g>
	</g>
	<g>
		<defs>
			<path id="SVGID_57_" d="M124.1,20.9c3.1,0.6,5.2,3.5,4.7,6.5c-0.5,3.1-3.5,5.1-6.7,4.5c-3.1-0.6-5.2-3.5-4.7-6.5
				C118,22.4,121,20.3,124.1,20.9"/>
		</defs>
		<clipPath id="SVGID_58_">
			<use xlink:href="#SVGID_57_"  style="overflow:visible;"/>
		</clipPath>
		<g class="st28">
			<defs>
				<rect id="SVGID_59_" x="-3781.8" y="-920.6" width="5198.2" height="4981.6"/>
			</defs>
			<clipPath id="SVGID_60_">
				<use xlink:href="#SVGID_59_"  style="overflow:visible;"/>
			</clipPath>
			
				<rect x="99.4" y="2.6" transform="matrix(0.1736 -0.9848 0.9848 0.1736 75.7092 143.0843)" class="st29" width="47.3" height="47.6"/>
		</g>
	</g>
	<g>
		<defs>
			<path id="SVGID_61_" d="M148,57.4c3.1,0.6,5.2,3.5,4.7,6.5c-0.5,3.1-3.5,5.1-6.7,4.5c-3.1-0.6-5.2-3.5-4.7-6.5
				C141.9,58.9,144.8,56.9,148,57.4"/>
		</defs>
		<clipPath id="SVGID_62_">
			<use xlink:href="#SVGID_61_"  style="overflow:visible;"/>
		</clipPath>
		<g class="st30">
			<defs>
				<rect id="SVGID_63_" x="-3781.8" y="-920.6" width="5198.2" height="4981.6"/>
			</defs>
			<clipPath id="SVGID_64_">
				<use xlink:href="#SVGID_63_"  style="overflow:visible;"/>
			</clipPath>
			
				<rect x="123.3" y="39.1" transform="matrix(0.1736 -0.9848 0.9848 0.1736 59.4954 196.7787)" class="st31" width="47.3" height="47.6"/>
		</g>
	</g>
	<g>
		<defs>
			<path id="SVGID_65_" d="M177.4,62.6c3.1,0.6,5.2,3.5,4.7,6.5c-0.5,3.1-3.5,5.1-6.7,4.5c-3.1-0.6-5.2-3.5-4.7-6.5
				C171.3,64.1,174.2,62,177.4,62.6"/>
		</defs>
		<clipPath id="SVGID_66_">
			<use xlink:href="#SVGID_65_"  style="overflow:visible;"/>
		</clipPath>
		<g class="st32">
			<defs>
				<rect id="SVGID_67_" x="-3781.8" y="-920.6" width="5198.2" height="4981.6"/>
			</defs>
			<clipPath id="SVGID_68_">
				<use xlink:href="#SVGID_67_"  style="overflow:visible;"/>
			</clipPath>
			
				<rect x="152.7" y="44.3" transform="matrix(0.1736 -0.9848 0.9848 0.1736 78.6909 230.0264)" class="st33" width="47.3" height="47.6"/>
		</g>
	</g>
	<g>
		<defs>
			<path id="SVGID_69_" d="M118.6,52.2c3.1,0.6,5.2,3.5,4.7,6.5c-0.5,3.1-3.5,5.1-6.7,4.5c-3.1-0.6-5.2-3.5-4.7-6.5
				C112.4,53.7,115.4,51.7,118.6,52.2"/>
		</defs>
		<clipPath id="SVGID_70_">
			<use xlink:href="#SVGID_69_"  style="overflow:visible;"/>
		</clipPath>
		<g class="st34">
			<defs>
				<rect id="SVGID_71_" x="-3781.8" y="-920.6" width="5198.2" height="4981.6"/>
			</defs>
			<clipPath id="SVGID_72_">
				<use xlink:href="#SVGID_71_"  style="overflow:visible;"/>
			</clipPath>
			
				<rect x="93.9" y="33.9" transform="matrix(0.1736 -0.9848 0.9848 0.1736 40.2985 163.5287)" class="st35" width="47.3" height="47.6"/>
		</g>
	</g>
	<g>
		<defs>
			<path id="SVGID_73_" d="M39.8,165.4c3.1,0.6,5.2,3.5,4.7,6.5c-0.5,3.1-3.5,5.1-6.7,4.5c-3.1-0.6-5.2-3.5-4.7-6.5
				C33.7,166.9,36.7,164.9,39.8,165.4"/>
		</defs>
		<clipPath id="SVGID_74_">
			<use xlink:href="#SVGID_73_"  style="overflow:visible;"/>
		</clipPath>
		<g class="st36">
			<defs>
				<rect id="SVGID_75_" x="-3781.8" y="-920.6" width="5198.2" height="4981.6"/>
			</defs>
			<clipPath id="SVGID_76_">
				<use xlink:href="#SVGID_75_"  style="overflow:visible;"/>
			</clipPath>
			
				<rect x="15.2" y="147.1" transform="matrix(0.1736 -0.9848 0.9848 0.1736 -136.2666 179.5025)" class="st37" width="47.3" height="47.6"/>
		</g>
	</g>
	<g>
		<defs>
			<path id="SVGID_77_" d="M69.2,170.6c3.1,0.6,5.2,3.5,4.7,6.5c-0.5,3.1-3.5,5.1-6.7,4.5c-3.1-0.6-5.2-3.5-4.7-6.5
				C63.1,172.1,66.1,170,69.2,170.6"/>
		</defs>
		<clipPath id="SVGID_78_">
			<use xlink:href="#SVGID_77_"  style="overflow:visible;"/>
		</clipPath>
		<g class="st38">
			<defs>
				<rect id="SVGID_79_" x="-3781.8" y="-920.6" width="5198.2" height="4981.6"/>
			</defs>
			<clipPath id="SVGID_80_">
				<use xlink:href="#SVGID_79_"  style="overflow:visible;"/>
			</clipPath>
			
				<rect x="44.6" y="152.3" transform="matrix(0.1736 -0.9848 0.9848 0.1736 -117.0711 212.7502)" class="st39" width="47.3" height="47.6"/>
		</g>
	</g>
	<g>
		<defs>
			<path id="SVGID_81_" d="M10.4,160.2c3.1,0.6,5.2,3.5,4.7,6.5c-0.5,3.1-3.5,5.1-6.7,4.5c-3.1-0.6-5.2-3.5-4.7-6.5
				C4.3,161.7,7.3,159.7,10.4,160.2"/>
		</defs>
		<clipPath id="SVGID_82_">
			<use xlink:href="#SVGID_81_"  style="overflow:visible;"/>
		</clipPath>
		<g class="st40">
			<defs>
				<rect id="SVGID_83_" x="-3781.8" y="-920.6" width="5198.2" height="4981.6"/>
			</defs>
			<clipPath id="SVGID_84_">
				<use xlink:href="#SVGID_83_"  style="overflow:visible;"/>
			</clipPath>
			
				<rect x="-14.2" y="141.9" transform="matrix(0.1736 -0.9848 0.9848 0.1736 -155.4635 146.2525)" class="st41" width="47.3" height="47.6"/>
		</g>
	</g>
	<g>
		<defs>
			
				<ellipse id="SVGID_85_" transform="matrix(0.1736 -0.9848 0.9848 0.1736 -65.4451 138.6132)" cx="49.9" cy="108.3" rx="5.6" ry="5.8"/>
		</defs>
		<clipPath id="SVGID_86_">
			<use xlink:href="#SVGID_85_"  style="overflow:visible;"/>
		</clipPath>
		<g class="st42">
			<defs>
				<rect id="SVGID_87_" x="-3781.8" y="-920.6" width="5198.2" height="4981.6"/>
			</defs>
			<clipPath id="SVGID_88_">
				<use xlink:href="#SVGID_87_"  style="overflow:visible;"/>
			</clipPath>
			
				<rect x="26.2" y="84.5" transform="matrix(0.1736 -0.9848 0.9848 0.1736 -65.4445 138.6134)" class="st43" width="47.3" height="47.6"/>
		</g>
	</g>
	<g>
		<defs>
			<path id="SVGID_89_" d="M80.3,108c3.1,0.6,5.2,3.5,4.7,6.5c-0.5,3.1-3.5,5.1-6.7,4.5c-3.1-0.6-5.2-3.5-4.7-6.5
				C74.1,109.4,77.1,107.4,80.3,108"/>
		</defs>
		<clipPath id="SVGID_90_">
			<use xlink:href="#SVGID_89_"  style="overflow:visible;"/>
		</clipPath>
		<g class="st44">
			<defs>
				<rect id="SVGID_91_" x="-3781.8" y="-920.6" width="5198.2" height="4981.6"/>
			</defs>
			<clipPath id="SVGID_92_">
				<use xlink:href="#SVGID_91_"  style="overflow:visible;"/>
			</clipPath>
			
				<rect x="55.6" y="89.7" transform="matrix(0.1736 -0.9848 0.9848 0.1736 -46.249 171.861)" class="st45" width="47.3" height="47.6"/>
		</g>
	</g>
	<g>
		<defs>
			<path id="SVGID_93_" d="M21.4,97.6c3.1,0.6,5.2,3.5,4.7,6.5c-0.5,3.1-3.5,5.1-6.7,4.5c-3.1-0.6-5.2-3.5-4.7-6.5
				C15.3,99.1,18.3,97,21.4,97.6"/>
		</defs>
		<clipPath id="SVGID_94_">
			<use xlink:href="#SVGID_93_"  style="overflow:visible;"/>
		</clipPath>
		<g class="st46">
			<defs>
				<rect id="SVGID_95_" x="-3781.8" y="-920.6" width="5198.2" height="4981.6"/>
			</defs>
			<clipPath id="SVGID_96_">
				<use xlink:href="#SVGID_95_"  style="overflow:visible;"/>
			</clipPath>
			
				<rect x="-3.2" y="79.3" transform="matrix(0.1736 -0.9848 0.9848 0.1736 -84.6414 105.3633)" class="st47" width="47.3" height="47.6"/>
		</g>
	</g>
	<g>
		<defs>
			<path id="SVGID_97_" d="M45.3,134.1c3.1,0.6,5.2,3.5,4.7,6.5c-0.5,3.1-3.5,5.1-6.7,4.5c-3.1-0.6-5.2-3.5-4.7-6.5
				C39.2,135.6,42.2,133.5,45.3,134.1"/>
		</defs>
		<clipPath id="SVGID_98_">
			<use xlink:href="#SVGID_97_"  style="overflow:visible;"/>
		</clipPath>
		<g class="st48">
			<defs>
				<rect id="SVGID_99_" x="-3781.8" y="-920.6" width="5198.2" height="4981.6"/>
			</defs>
			<clipPath id="SVGID_100_">
				<use xlink:href="#SVGID_99_"  style="overflow:visible;"/>
			</clipPath>
			
				<rect x="20.7" y="115.8" transform="matrix(0.1736 -0.9848 0.9848 0.1736 -100.8552 159.0578)" class="st49" width="47.3" height="47.6"/>
		</g>
	</g>
	<g>
		<defs>
			<path id="SVGID_101_" d="M74.7,139.3c3.1,0.6,5.2,3.5,4.7,6.5c-0.5,3.1-3.5,5.1-6.7,4.5c-3.1-0.6-5.2-3.5-4.7-6.5
				C68.6,140.8,71.6,138.7,74.7,139.3"/>
		</defs>
		<clipPath id="SVGID_102_">
			<use xlink:href="#SVGID_101_"  style="overflow:visible;"/>
		</clipPath>
		<g class="st50">
			<defs>
				<rect id="SVGID_103_" x="-3781.8" y="-920.6" width="5198.2" height="4981.6"/>
			</defs>
			<clipPath id="SVGID_104_">
				<use xlink:href="#SVGID_103_"  style="overflow:visible;"/>
			</clipPath>
			
				<rect x="50.1" y="121" transform="matrix(0.1736 -0.9848 0.9848 0.1736 -81.6597 192.3054)" class="st51" width="47.3" height="47.6"/>
		</g>
	</g>
	<g>
		<defs>
			<path id="SVGID_105_" d="M15.9,128.9c3.1,0.6,5.2,3.5,4.7,6.5c-0.5,3.1-3.5,5.1-6.7,4.5c-3.1-0.6-5.2-3.5-4.7-6.5
				C9.8,130.4,12.8,128.4,15.9,128.9"/>
		</defs>
		<clipPath id="SVGID_106_">
			<use xlink:href="#SVGID_105_"  style="overflow:visible;"/>
		</clipPath>
		<g class="st52">
			<defs>
				<rect id="SVGID_107_" x="-3781.8" y="-920.6" width="5198.2" height="4981.6"/>
			</defs>
			<clipPath id="SVGID_108_">
				<use xlink:href="#SVGID_107_"  style="overflow:visible;"/>
			</clipPath>
			
				<rect x="-8.7" y="110.6" transform="matrix(0.1736 -0.9848 0.9848 0.1736 -120.0522 125.8078)" class="st53" width="47.3" height="47.6"/>
		</g>
	</g>
	<g>
		<defs>
			<path id="SVGID_109_" d="M56,73.5c3.1,0.6,5.2,3.5,4.7,6.5c-0.5,3.1-3.5,5.1-6.7,4.5c-3.1-0.6-5.2-3.5-4.7-6.5
				C49.9,75,52.9,72.9,56,73.5"/>
		</defs>
		<clipPath id="SVGID_110_">
			<use xlink:href="#SVGID_109_"  style="overflow:visible;"/>
		</clipPath>
		<g class="st54">
			<defs>
				<rect id="SVGID_111_" x="-3781.8" y="-920.6" width="5198.2" height="4981.6"/>
			</defs>
			<clipPath id="SVGID_112_">
				<use xlink:href="#SVGID_111_"  style="overflow:visible;"/>
			</clipPath>
			
				<rect x="31.4" y="55.2" transform="matrix(0.1736 -0.9848 0.9848 0.1736 -32.3373 119.4989)" class="st55" width="47.3" height="47.6"/>
		</g>
	</g>
	<g>
		<defs>
			<path id="SVGID_113_" d="M85.4,78.7c3.1,0.6,5.2,3.5,4.7,6.5c-0.5,3.1-3.5,5.1-6.7,4.5s-5.2-3.5-4.7-6.5
				C79.3,80.1,82.3,78.1,85.4,78.7"/>
		</defs>
		<clipPath id="SVGID_114_">
			<use xlink:href="#SVGID_113_"  style="overflow:visible;"/>
		</clipPath>
		<g class="st56">
			<defs>
				<rect id="SVGID_115_" x="-3781.8" y="-920.6" width="5198.2" height="4981.6"/>
			</defs>
			<clipPath id="SVGID_116_">
				<use xlink:href="#SVGID_115_"  style="overflow:visible;"/>
			</clipPath>
			
				<rect x="60.8" y="60.4" transform="matrix(0.1736 -0.9848 0.9848 0.1736 -13.1418 152.7465)" class="st57" width="47.3" height="47.6"/>
		</g>
	</g>
	<g>
		<defs>
			<path id="SVGID_117_" d="M26.6,68.3c3.1,0.6,5.2,3.5,4.7,6.5c-0.5,3.1-3.5,5.1-6.7,4.5c-3.1-0.6-5.2-3.5-4.7-6.5
				C20.5,69.8,23.5,67.7,26.6,68.3"/>
		</defs>
		<clipPath id="SVGID_118_">
			<use xlink:href="#SVGID_117_"  style="overflow:visible;"/>
		</clipPath>
		<g class="st58">
			<defs>
				<rect id="SVGID_119_" x="-3781.8" y="-920.6" width="5198.2" height="4981.6"/>
			</defs>
			<clipPath id="SVGID_120_">
				<use xlink:href="#SVGID_119_"  style="overflow:visible;"/>
			</clipPath>
			
				<rect x="2" y="50" transform="matrix(0.1736 -0.9848 0.9848 0.1736 -51.5342 86.2489)" class="st59" width="47.3" height="47.6"/>
		</g>
	</g>
	<g>
		<defs>
			<path id="SVGID_121_" d="M67.1,10.8c3.1,0.6,5.2,3.5,4.7,6.5c-0.5,3.1-3.5,5.1-6.7,4.5c-3.1-0.6-5.2-3.5-4.7-6.5
				C60.9,12.3,63.9,10.3,67.1,10.8"/>
		</defs>
		<clipPath id="SVGID_122_">
			<use xlink:href="#SVGID_121_"  style="overflow:visible;"/>
		</clipPath>
		<g class="st60">
			<defs>
				<rect id="SVGID_123_" x="-3781.8" y="-920.6" width="5198.2" height="4981.6"/>
			</defs>
			<clipPath id="SVGID_124_">
				<use xlink:href="#SVGID_123_"  style="overflow:visible;"/>
			</clipPath>
			
				<rect x="42.4" y="-7.4" transform="matrix(0.1736 -0.9848 0.9848 0.1736 38.4848 78.6097)" class="st61" width="47.3" height="47.6"/>
		</g>
	</g>
	<g>
		<defs>
			<path id="SVGID_125_" d="M96.5,16c3.1,0.6,5.2,3.5,4.7,6.5c-0.5,3.1-3.5,5.1-6.7,4.5c-3.1-0.6-5.2-3.5-4.7-6.5
				C90.3,17.5,93.3,15.5,96.5,16"/>
		</defs>
		<clipPath id="SVGID_126_">
			<use xlink:href="#SVGID_125_"  style="overflow:visible;"/>
		</clipPath>
		<g class="st62">
			<defs>
				<rect id="SVGID_127_" x="-3781.8" y="-920.6" width="5198.2" height="4981.6"/>
			</defs>
			<clipPath id="SVGID_128_">
				<use xlink:href="#SVGID_127_"  style="overflow:visible;"/>
			</clipPath>
			
				<rect x="71.8" y="-2.3" transform="matrix(0.1736 -0.9848 0.9848 0.1736 57.6803 111.8574)" class="st63" width="47.3" height="47.6"/>
		</g>
	</g>
	<g>
		<defs>
			<path id="SVGID_129_" d="M37.6,5.7c3.1,0.6,5.2,3.5,4.7,6.5c-0.5,3.1-3.5,5.1-6.7,4.5c-3.1-0.6-5.2-3.5-4.7-6.5
				C31.5,7.1,34.5,5.1,37.6,5.7"/>
		</defs>
		<clipPath id="SVGID_130_">
			<use xlink:href="#SVGID_129_"  style="overflow:visible;"/>
		</clipPath>
		<g class="st64">
			<defs>
				<rect id="SVGID_131_" x="-3781.8" y="-920.6" width="5198.2" height="4981.6"/>
			</defs>
			<clipPath id="SVGID_132_">
				<use xlink:href="#SVGID_131_"  style="overflow:visible;"/>
			</clipPath>
			
				<rect x="13" y="-12.6" transform="matrix(0.1736 -0.9848 0.9848 0.1736 19.2879 45.3597)" class="st65" width="47.3" height="47.6"/>
		</g>
	</g>
	<g>
		<defs>
			
				<ellipse id="SVGID_133_" transform="matrix(0.1736 -0.9848 0.9848 0.1736 3.0734 99.0539)" cx="60.6" cy="47.7" rx="5.6" ry="5.8"/>
		</defs>
		<clipPath id="SVGID_134_">
			<use xlink:href="#SVGID_133_"  style="overflow:visible;"/>
		</clipPath>
		<g class="st66">
			<defs>
				<rect id="SVGID_135_" x="-3781.8" y="-920.6" width="5198.2" height="4981.6"/>
			</defs>
			<clipPath id="SVGID_136_">
				<use xlink:href="#SVGID_135_"  style="overflow:visible;"/>
			</clipPath>
			
				<rect x="36.9" y="23.9" transform="matrix(0.1736 -0.9848 0.9848 0.1736 3.0741 99.0541)" class="st67" width="47.3" height="47.6"/>
		</g>
	</g>
	<g>
		<defs>
			<path id="SVGID_137_" d="M90.9,47.3c3.1,0.6,5.2,3.5,4.7,6.5c-0.5,3.1-3.5,5.1-6.7,4.5c-3.1-0.6-5.2-3.5-4.7-6.5
				C84.8,48.8,87.8,46.8,90.9,47.3"/>
		</defs>
		<clipPath id="SVGID_138_">
			<use xlink:href="#SVGID_137_"  style="overflow:visible;"/>
		</clipPath>
		<g class="st68">
			<defs>
				<rect id="SVGID_139_" x="-3781.8" y="-920.6" width="5198.2" height="4981.6"/>
			</defs>
			<clipPath id="SVGID_140_">
				<use xlink:href="#SVGID_139_"  style="overflow:visible;"/>
			</clipPath>
			
				<rect x="66.3" y="29.1" transform="matrix(0.1736 -0.9848 0.9848 0.1736 22.2696 132.3018)" class="st69" width="47.3" height="47.6"/>
		</g>
	</g>
	<g>
		<defs>
			<path id="SVGID_141_" d="M32.1,37c3.1,0.6,5.2,3.5,4.7,6.5c-0.5,3.1-3.5,5.1-6.7,4.5c-3.1-0.6-5.2-3.5-4.7-6.5
				C26,38.5,29,36.4,32.1,37"/>
		</defs>
		<clipPath id="SVGID_142_">
			<use xlink:href="#SVGID_141_"  style="overflow:visible;"/>
		</clipPath>
		<g class="st70">
			<defs>
				<rect id="SVGID_143_" x="-3781.8" y="-920.6" width="5198.2" height="4981.6"/>
			</defs>
			<clipPath id="SVGID_144_">
				<use xlink:href="#SVGID_143_"  style="overflow:visible;"/>
			</clipPath>
			
				<rect x="7.5" y="18.7" transform="matrix(0.1736 -0.9848 0.9848 0.1736 -16.1228 65.8041)" class="st71" width="47.3" height="47.6"/>
		</g>
	</g>
</g>
</svg>
