<?xml version="1.0" encoding="utf-8"?>
<!-- Generator: Adobe Illustrator 21.1.0, SVG Export Plug-In . SVG Version: 6.00 Build 0)  -->
<svg version="1.1" id="Layer_1" xmlns="http://www.w3.org/2000/svg" xmlns:xlink="http://www.w3.org/1999/xlink" x="0px" y="0px"
	 viewBox="0 0 200 200" style="enable-background:new 0 0 200 200;" xml:space="preserve">
<style type="text/css">
	.st0{clip-path:url(#SVGID_2_);}
	.st1{clip-path:url(#SVGID_4_);fill:#EF9B75;}
	.st2{clip-path:url(#SVGID_6_);}
	.st3{clip-path:url(#SVGID_8_);fill:#EF9B75;}
	.st4{clip-path:url(#SVGID_10_);}
	.st5{clip-path:url(#SVGID_12_);fill:#EF9B75;}
	.st6{clip-path:url(#SVGID_14_);}
	.st7{clip-path:url(#SVGID_16_);fill:#EF9B75;}
	.st8{clip-path:url(#SVGID_18_);}
	.st9{clip-path:url(#SVGID_20_);fill:#EF9B75;}
	.st10{clip-path:url(#SVGID_22_);}
	.st11{clip-path:url(#SVGID_24_);fill:#EF9B75;}
	.st12{clip-path:url(#SVGID_26_);}
	.st13{clip-path:url(#SVGID_28_);fill:#EF9B75;}
	.st14{clip-path:url(#SVGID_30_);}
	.st15{clip-path:url(#SVGID_32_);fill:#EF9B75;}
	.st16{clip-path:url(#SVGID_34_);}
	.st17{clip-path:url(#SVGID_36_);fill:#EF9B75;}
	.st18{clip-path:url(#SVGID_38_);}
	.st19{clip-path:url(#SVGID_40_);fill:#EF9B75;}
	.st20{clip-path:url(#SVGID_42_);}
	.st21{clip-path:url(#SVGID_44_);fill:#EF9B75;}
	.st22{clip-path:url(#SVGID_46_);}
	.st23{clip-path:url(#SVGID_48_);fill:#EF9B75;}
	.st24{clip-path:url(#SVGID_50_);}
	.st25{clip-path:url(#SVGID_52_);fill:#EF9B75;}
	.st26{clip-path:url(#SVGID_54_);}
	.st27{clip-path:url(#SVGID_56_);fill:#EF9B75;}
	.st28{clip-path:url(#SVGID_58_);}
	.st29{clip-path:url(#SVGID_60_);fill:#EF9B75;}
	.st30{clip-path:url(#SVGID_62_);}
	.st31{clip-path:url(#SVGID_64_);fill:#EF9B75;}
	.st32{clip-path:url(#SVGID_66_);}
	.st33{clip-path:url(#SVGID_68_);fill:#EF9B75;}
	.st34{clip-path:url(#SVGID_70_);}
	.st35{clip-path:url(#SVGID_72_);fill:#EF9B75;}
	.st36{clip-path:url(#SVGID_74_);}
	.st37{clip-path:url(#SVGID_76_);fill:#EF9B75;}
	.st38{clip-path:url(#SVGID_78_);}
	.st39{clip-path:url(#SVGID_80_);fill:#EF9B75;}
	.st40{clip-path:url(#SVGID_82_);}
	.st41{clip-path:url(#SVGID_84_);fill:#EF9B75;}
	.st42{clip-path:url(#SVGID_86_);}
	.st43{clip-path:url(#SVGID_88_);fill:#EF9B75;}
	.st44{clip-path:url(#SVGID_90_);}
	.st45{clip-path:url(#SVGID_92_);fill:#EF9B75;}
	.st46{clip-path:url(#SVGID_94_);}
	.st47{clip-path:url(#SVGID_96_);fill:#EF9B75;}
	.st48{clip-path:url(#SVGID_98_);}
	.st49{clip-path:url(#SVGID_100_);fill:#EF9B75;}
	.st50{clip-path:url(#SVGID_102_);}
	.st51{clip-path:url(#SVGID_104_);fill:#EF9B75;}
	.st52{clip-path:url(#SVGID_106_);}
	.st53{clip-path:url(#SVGID_108_);fill:#EF9B75;}
	.st54{clip-path:url(#SVGID_110_);}
	.st55{clip-path:url(#SVGID_112_);fill:#EF9B75;}
	.st56{clip-path:url(#SVGID_114_);}
	.st57{clip-path:url(#SVGID_116_);fill:#EF9B75;}
	.st58{clip-path:url(#SVGID_118_);}
	.st59{clip-path:url(#SVGID_120_);fill:#EF9B75;}
	.st60{clip-path:url(#SVGID_122_);}
	.st61{clip-path:url(#SVGID_124_);fill:#EF9B75;}
	.st62{clip-path:url(#SVGID_126_);}
	.st63{clip-path:url(#SVGID_128_);fill:#EF9B75;}
	.st64{clip-path:url(#SVGID_130_);}
	.st65{clip-path:url(#SVGID_132_);fill:#EF9B75;}
	.st66{clip-path:url(#SVGID_134_);}
	.st67{clip-path:url(#SVGID_136_);fill:#EF9B75;}
	.st68{clip-path:url(#SVGID_138_);}
	.st69{clip-path:url(#SVGID_140_);fill:#EF9B75;}
	.st70{clip-path:url(#SVGID_142_);}
	.st71{clip-path:url(#SVGID_144_);fill:#EF9B75;}
</style>
<g>
	<g>
		<defs>
			<path id="SVGID_1_" d="M122.6,31.1c-1.7-2-1.4-5,0.6-6.7c2-1.7,5-1.4,6.7,0.6c1.7,2,1.4,5-0.6,6.7
				C127.3,33.3,124.3,33.1,122.6,31.1"/>
		</defs>
		<clipPath id="SVGID_2_">
			<use xlink:href="#SVGID_1_"  style="overflow:visible;"/>
		</clipPath>
		<g class="st0">
			<defs>
				<rect id="SVGID_3_" x="-781.3" y="-1158.1" width="4458.6" height="4272.8"/>
			</defs>
			<clipPath id="SVGID_4_">
				<use xlink:href="#SVGID_3_"  style="overflow:visible;"/>
			</clipPath>
			<rect x="106" y="7.8" transform="matrix(0.766 -0.6428 0.6428 0.766 11.5097 87.6787)" class="st1" width="40.4" height="40.5"/>
		</g>
	</g>
	<g>
		<defs>
			<path id="SVGID_5_" d="M106.8,12.2c-1.7-2-1.4-5,0.6-6.7c2-1.7,5-1.4,6.7,0.6c1.7,2,1.4,5-0.6,6.7
				C111.5,14.5,108.5,14.3,106.8,12.2"/>
		</defs>
		<clipPath id="SVGID_6_">
			<use xlink:href="#SVGID_5_"  style="overflow:visible;"/>
		</clipPath>
		<g class="st2">
			<defs>
				<rect id="SVGID_7_" x="-781.3" y="-1158.1" width="4458.6" height="4272.8"/>
			</defs>
			<clipPath id="SVGID_8_">
				<use xlink:href="#SVGID_7_"  style="overflow:visible;"/>
			</clipPath>
			
				<rect x="90.2" y="-11" transform="matrix(0.766 -0.6428 0.6428 0.766 19.9052 73.1371)" class="st3" width="40.4" height="40.5"/>
		</g>
	</g>
	<g>
		<defs>
			<path id="SVGID_9_" d="M138.4,49.9c-1.7-2-1.4-5,0.6-6.7c2-1.7,5-1.4,6.7,0.6c1.7,2,1.4,5-0.6,6.7
				C143,52.1,140.1,51.9,138.4,49.9"/>
		</defs>
		<clipPath id="SVGID_10_">
			<use xlink:href="#SVGID_9_"  style="overflow:visible;"/>
		</clipPath>
		<g class="st4">
			<defs>
				<rect id="SVGID_11_" x="-781.3" y="-1158.1" width="4458.6" height="4272.8"/>
			</defs>
			<clipPath id="SVGID_12_">
				<use xlink:href="#SVGID_11_"  style="overflow:visible;"/>
			</clipPath>
			
				<rect x="121.8" y="26.6" transform="matrix(0.766 -0.6428 0.6428 0.766 3.1135 102.2214)" class="st5" width="40.4" height="40.5"/>
		</g>
	</g>
	<g>
		<defs>
			<path id="SVGID_13_" d="M81.7,65.3c-1.7-2-1.4-5,0.6-6.7c2-1.7,5-1.4,6.7,0.6c1.7,2,1.4,5-0.6,6.7C86.4,67.6,83.4,67.3,81.7,65.3
				"/>
		</defs>
		<clipPath id="SVGID_14_">
			<use xlink:href="#SVGID_13_"  style="overflow:visible;"/>
		</clipPath>
		<g class="st6">
			<defs>
				<rect id="SVGID_15_" x="-781.3" y="-1158.1" width="4458.6" height="4272.8"/>
			</defs>
			<clipPath id="SVGID_16_">
				<use xlink:href="#SVGID_15_"  style="overflow:visible;"/>
			</clipPath>
			
				<rect x="65.2" y="42.1" transform="matrix(0.766 -0.6428 0.6428 0.766 -20.0781 69.4415)" class="st7" width="40.4" height="40.5"/>
		</g>
	</g>
	<g>
		<defs>
			<path id="SVGID_17_" d="M66,46.5c-1.7-2-1.4-5,0.6-6.7c2-1.7,5-1.4,6.7,0.6c1.7,2,1.4,5-0.6,6.7C70.6,48.8,67.7,48.5,66,46.5"/>
		</defs>
		<clipPath id="SVGID_18_">
			<use xlink:href="#SVGID_17_"  style="overflow:visible;"/>
		</clipPath>
		<g class="st8">
			<defs>
				<rect id="SVGID_19_" x="-781.3" y="-1158.1" width="4458.6" height="4272.8"/>
			</defs>
			<clipPath id="SVGID_20_">
				<use xlink:href="#SVGID_19_"  style="overflow:visible;"/>
			</clipPath>
			
				<rect x="49.4" y="23.3" transform="matrix(0.766 -0.6428 0.6428 0.766 -11.6825 54.8999)" class="st9" width="40.4" height="40.5"/>
		</g>
	</g>
	<g>
		<defs>
			<path id="SVGID_21_" d="M97.5,84.1c-1.7-2-1.4-5,0.6-6.7c2-1.7,5-1.4,6.7,0.6c1.7,2,1.4,5-0.6,6.7
				C102.2,86.4,99.2,86.1,97.5,84.1"/>
		</defs>
		<clipPath id="SVGID_22_">
			<use xlink:href="#SVGID_21_"  style="overflow:visible;"/>
		</clipPath>
		<g class="st10">
			<defs>
				<rect id="SVGID_23_" x="-781.3" y="-1158.1" width="4458.6" height="4272.8"/>
			</defs>
			<clipPath id="SVGID_24_">
				<use xlink:href="#SVGID_23_"  style="overflow:visible;"/>
			</clipPath>
			
				<rect x="80.9" y="60.9" transform="matrix(0.766 -0.6428 0.6428 0.766 -28.4742 83.9841)" class="st11" width="40.4" height="40.5"/>
		</g>
	</g>
	<g>
		<defs>
			<path id="SVGID_25_" d="M102.2,48.2c-1.7-2-1.4-5,0.6-6.7c2-1.7,5-1.4,6.7,0.6c1.7,2,1.4,5-0.6,6.7
				C106.8,50.5,103.9,50.2,102.2,48.2"/>
		</defs>
		<clipPath id="SVGID_26_">
			<use xlink:href="#SVGID_25_"  style="overflow:visible;"/>
		</clipPath>
		<g class="st12">
			<defs>
				<rect id="SVGID_27_" x="-781.3" y="-1158.1" width="4458.6" height="4272.8"/>
			</defs>
			<clipPath id="SVGID_28_">
				<use xlink:href="#SVGID_27_"  style="overflow:visible;"/>
			</clipPath>
			
				<rect x="85.6" y="24.9" transform="matrix(0.766 -0.6428 0.6428 0.766 -4.2843 78.56)" class="st13" width="40.4" height="40.5"/>
		</g>
	</g>
	<g>
		<defs>
			<path id="SVGID_29_" d="M86.4,29.4c-1.7-2-1.4-5,0.6-6.7c2-1.7,5-1.4,6.7,0.6c1.7,2,1.4,5-0.6,6.7C91.1,31.7,88.1,31.4,86.4,29.4
				"/>
		</defs>
		<clipPath id="SVGID_30_">
			<use xlink:href="#SVGID_29_"  style="overflow:visible;"/>
		</clipPath>
		<g class="st14">
			<defs>
				<rect id="SVGID_31_" x="-781.3" y="-1158.1" width="4458.6" height="4272.8"/>
			</defs>
			<clipPath id="SVGID_32_">
				<use xlink:href="#SVGID_31_"  style="overflow:visible;"/>
			</clipPath>
			
				<rect x="69.8" y="6.1" transform="matrix(0.766 -0.6428 0.6428 0.766 4.1112 64.0184)" class="st15" width="40.4" height="40.5"/>
		</g>
	</g>
	<g>
		<defs>
			<path id="SVGID_33_" d="M118,67c-1.7-2-1.4-5,0.6-6.7c2-1.7,5-1.4,6.7,0.6c1.7,2,1.4,5-0.6,6.7C122.6,69.3,119.6,69,118,67"/>
		</defs>
		<clipPath id="SVGID_34_">
			<use xlink:href="#SVGID_33_"  style="overflow:visible;"/>
		</clipPath>
		<g class="st16">
			<defs>
				<rect id="SVGID_35_" x="-781.3" y="-1158.1" width="4458.6" height="4272.8"/>
			</defs>
			<clipPath id="SVGID_36_">
				<use xlink:href="#SVGID_35_"  style="overflow:visible;"/>
			</clipPath>
			
				<rect x="101.4" y="43.7" transform="matrix(0.766 -0.6428 0.6428 0.766 -12.6805 93.1026)" class="st17" width="40.4" height="40.5"/>
		</g>
	</g>
	<g>
		<defs>
			<path id="SVGID_37_" d="M62.7,81.4c-1.7-2-1.4-5,0.6-6.7c2-1.7,5-1.4,6.7,0.6c1.7,2,1.4,5-0.6,6.7C67.3,83.6,64.3,83.4,62.7,81.4
				"/>
		</defs>
		<clipPath id="SVGID_38_">
			<use xlink:href="#SVGID_37_"  style="overflow:visible;"/>
		</clipPath>
		<g class="st18">
			<defs>
				<rect id="SVGID_39_" x="-781.3" y="-1158.1" width="4458.6" height="4272.8"/>
			</defs>
			<clipPath id="SVGID_40_">
				<use xlink:href="#SVGID_39_"  style="overflow:visible;"/>
			</clipPath>
			
				<rect x="46.1" y="58.1" transform="matrix(0.766 -0.6428 0.6428 0.766 -34.8444 60.9162)" class="st19" width="40.4" height="40.5"/>
		</g>
	</g>
	<g>
		<defs>
			<path id="SVGID_41_" d="M46.9,62.5c-1.7-2-1.4-5,0.6-6.7c2-1.7,5-1.4,6.7,0.6c1.7,2,1.4,5-0.6,6.7C51.5,64.8,48.6,64.6,46.9,62.5
				"/>
		</defs>
		<clipPath id="SVGID_42_">
			<use xlink:href="#SVGID_41_"  style="overflow:visible;"/>
		</clipPath>
		<g class="st20">
			<defs>
				<rect id="SVGID_43_" x="-781.3" y="-1158.1" width="4458.6" height="4272.8"/>
			</defs>
			<clipPath id="SVGID_44_">
				<use xlink:href="#SVGID_43_"  style="overflow:visible;"/>
			</clipPath>
			
				<rect x="30.3" y="39.3" transform="matrix(0.766 -0.6428 0.6428 0.766 -26.4488 46.3746)" class="st21" width="40.4" height="40.5"/>
		</g>
	</g>
	<g>
		<defs>
			<path id="SVGID_45_" d="M78.4,100.2c-1.7-2-1.4-5,0.6-6.7c2-1.7,5-1.4,6.7,0.6c1.7,2,1.4,5-0.6,6.7
				C83.1,102.4,80.1,102.2,78.4,100.2"/>
		</defs>
		<clipPath id="SVGID_46_">
			<use xlink:href="#SVGID_45_"  style="overflow:visible;"/>
		</clipPath>
		<g class="st22">
			<defs>
				<rect id="SVGID_47_" x="-781.3" y="-1158.1" width="4458.6" height="4272.8"/>
			</defs>
			<clipPath id="SVGID_48_">
				<use xlink:href="#SVGID_47_"  style="overflow:visible;"/>
			</clipPath>
			
				<rect x="61.9" y="76.9" transform="matrix(0.766 -0.6428 0.6428 0.766 -43.2406 75.4588)" class="st23" width="40.4" height="40.5"/>
		</g>
	</g>
	<g>
		<defs>
			<path id="SVGID_49_" d="M21.8,115.6c-1.7-2-1.4-5,0.6-6.7c2-1.7,5-1.4,6.7,0.6c1.7,2,1.4,5-0.6,6.7
				C26.5,117.9,23.5,117.6,21.8,115.6"/>
		</defs>
		<clipPath id="SVGID_50_">
			<use xlink:href="#SVGID_49_"  style="overflow:visible;"/>
		</clipPath>
		<g class="st24">
			<defs>
				<rect id="SVGID_51_" x="-781.3" y="-1158.1" width="4458.6" height="4272.8"/>
			</defs>
			<clipPath id="SVGID_52_">
				<use xlink:href="#SVGID_51_"  style="overflow:visible;"/>
			</clipPath>
			
				<rect x="5.2" y="92.4" transform="matrix(0.766 -0.6428 0.6428 0.766 -66.4321 42.679)" class="st25" width="40.4" height="40.5"/>
		</g>
	</g>
	<g>
		<defs>
			<path id="SVGID_53_" d="M6,96.8c-1.7-2-1.4-5,0.6-6.7c2-1.7,5-1.4,6.7,0.6c1.7,2,1.4,5-0.6,6.7C10.7,99.1,7.7,98.8,6,96.8"/>
		</defs>
		<clipPath id="SVGID_54_">
			<use xlink:href="#SVGID_53_"  style="overflow:visible;"/>
		</clipPath>
		<g class="st26">
			<defs>
				<rect id="SVGID_55_" x="-781.3" y="-1158.1" width="4458.6" height="4272.8"/>
			</defs>
			<clipPath id="SVGID_56_">
				<use xlink:href="#SVGID_55_"  style="overflow:visible;"/>
			</clipPath>
			
				<rect x="-10.6" y="73.6" transform="matrix(0.766 -0.6428 0.6428 0.766 -58.0365 28.1374)" class="st27" width="40.4" height="40.5"/>
		</g>
	</g>
	<g>
		<defs>
			<path id="SVGID_57_" d="M37.6,134.4c-1.7-2-1.4-5,0.6-6.7c2-1.7,5-1.4,6.7,0.6c1.7,2,1.4,5-0.6,6.7
				C42.3,136.7,39.3,136.4,37.6,134.4"/>
		</defs>
		<clipPath id="SVGID_58_">
			<use xlink:href="#SVGID_57_"  style="overflow:visible;"/>
		</clipPath>
		<g class="st28">
			<defs>
				<rect id="SVGID_59_" x="-781.3" y="-1158.1" width="4458.6" height="4272.8"/>
			</defs>
			<clipPath id="SVGID_60_">
				<use xlink:href="#SVGID_59_"  style="overflow:visible;"/>
			</clipPath>
			
				<rect x="21" y="111.2" transform="matrix(0.766 -0.6428 0.6428 0.766 -74.8283 57.2216)" class="st29" width="40.4" height="40.5"/>
		</g>
	</g>
	<g>
		<defs>
			<path id="SVGID_61_" d="M42.2,98.5c-1.7-2-1.4-5,0.6-6.7c2-1.7,5-1.4,6.7,0.6c1.7,2,1.4,5-0.6,6.7
				C46.9,100.8,43.9,100.5,42.2,98.5"/>
		</defs>
		<clipPath id="SVGID_62_">
			<use xlink:href="#SVGID_61_"  style="overflow:visible;"/>
		</clipPath>
		<g class="st30">
			<defs>
				<rect id="SVGID_63_" x="-781.3" y="-1158.1" width="4458.6" height="4272.8"/>
			</defs>
			<clipPath id="SVGID_64_">
				<use xlink:href="#SVGID_63_"  style="overflow:visible;"/>
			</clipPath>
			
				<rect x="25.6" y="75.2" transform="matrix(0.766 -0.6428 0.6428 0.766 -50.6384 51.7974)" class="st31" width="40.4" height="40.5"/>
		</g>
	</g>
	<g>
		<defs>
			<path id="SVGID_65_" d="M26.5,79.7c-1.7-2-1.4-5,0.6-6.7c2-1.7,5-1.4,6.7,0.6c1.7,2,1.4,5-0.6,6.7C31.1,82,28.1,81.7,26.5,79.7"
				/>
		</defs>
		<clipPath id="SVGID_66_">
			<use xlink:href="#SVGID_65_"  style="overflow:visible;"/>
		</clipPath>
		<g class="st32">
			<defs>
				<rect id="SVGID_67_" x="-781.3" y="-1158.1" width="4458.6" height="4272.8"/>
			</defs>
			<clipPath id="SVGID_68_">
				<use xlink:href="#SVGID_67_"  style="overflow:visible;"/>
			</clipPath>
			
				<rect x="9.9" y="56.4" transform="matrix(0.766 -0.6428 0.6428 0.766 -42.2428 37.2559)" class="st33" width="40.4" height="40.5"/>
		</g>
	</g>
	<g>
		<defs>
			<path id="SVGID_69_" d="M58,117.3c-1.7-2-1.4-5,0.6-6.7c2-1.7,5-1.4,6.7,0.6c1.7,2,1.4,5-0.6,6.7C62.7,119.6,59.7,119.3,58,117.3
				"/>
		</defs>
		<clipPath id="SVGID_70_">
			<use xlink:href="#SVGID_69_"  style="overflow:visible;"/>
		</clipPath>
		<g class="st34">
			<defs>
				<rect id="SVGID_71_" x="-781.3" y="-1158.1" width="4458.6" height="4272.8"/>
			</defs>
			<clipPath id="SVGID_72_">
				<use xlink:href="#SVGID_71_"  style="overflow:visible;"/>
			</clipPath>
			
				<rect x="41.4" y="94" transform="matrix(0.766 -0.6428 0.6428 0.766 -59.0346 66.3401)" class="st35" width="40.4" height="40.5"/>
		</g>
	</g>
	<g>
		<defs>
			<path id="SVGID_73_" d="M169.9,87.4c-1.7-2-1.4-5,0.6-6.7c2-1.7,5-1.4,6.7,0.6c1.7,2,1.4,5-0.6,6.7
				C174.6,89.7,171.6,89.4,169.9,87.4"/>
		</defs>
		<clipPath id="SVGID_74_">
			<use xlink:href="#SVGID_73_"  style="overflow:visible;"/>
		</clipPath>
		<g class="st36">
			<defs>
				<rect id="SVGID_75_" x="-781.3" y="-1158.1" width="4458.6" height="4272.8"/>
			</defs>
			<clipPath id="SVGID_76_">
				<use xlink:href="#SVGID_75_"  style="overflow:visible;"/>
			</clipPath>
			
				<rect x="153.3" y="64.2" transform="matrix(0.766 -0.6428 0.6428 0.766 -13.6551 131.2653)" class="st37" width="40.4" height="40.5"/>
		</g>
	</g>
	<g>
		<defs>
			<path id="SVGID_77_" d="M154.1,68.6c-1.7-2-1.4-5,0.6-6.7c2-1.7,5-1.4,6.7,0.6c1.7,2,1.4,5-0.6,6.7
				C158.8,70.9,155.8,70.6,154.1,68.6"/>
		</defs>
		<clipPath id="SVGID_78_">
			<use xlink:href="#SVGID_77_"  style="overflow:visible;"/>
		</clipPath>
		<g class="st38">
			<defs>
				<rect id="SVGID_79_" x="-781.3" y="-1158.1" width="4458.6" height="4272.8"/>
			</defs>
			<clipPath id="SVGID_80_">
				<use xlink:href="#SVGID_79_"  style="overflow:visible;"/>
			</clipPath>
			
				<rect x="137.5" y="45.4" transform="matrix(0.766 -0.6428 0.6428 0.766 -5.2595 116.7237)" class="st39" width="40.4" height="40.5"/>
		</g>
	</g>
	<g>
		<defs>
			<path id="SVGID_81_" d="M185.7,106.2c-1.7-2-1.4-5,0.6-6.7c2-1.7,5-1.4,6.7,0.6c1.7,2,1.4,5-0.6,6.7
				C190.3,108.5,187.4,108.2,185.7,106.2"/>
		</defs>
		<clipPath id="SVGID_82_">
			<use xlink:href="#SVGID_81_"  style="overflow:visible;"/>
		</clipPath>
		<g class="st40">
			<defs>
				<rect id="SVGID_83_" x="-781.3" y="-1158.1" width="4458.6" height="4272.8"/>
			</defs>
			<clipPath id="SVGID_84_">
				<use xlink:href="#SVGID_83_"  style="overflow:visible;"/>
			</clipPath>
			
				<rect x="169.1" y="83" transform="matrix(0.766 -0.6428 0.6428 0.766 -22.0513 145.8079)" class="st41" width="40.4" height="40.5"/>
		</g>
	</g>
	<g>
		<defs>
			<path id="SVGID_85_" d="M129,121.7c-1.7-2-1.4-5,0.6-6.7c2-1.7,5-1.4,6.7,0.6c1.7,2,1.4,5-0.6,6.7
				C133.7,124,130.7,123.7,129,121.7"/>
		</defs>
		<clipPath id="SVGID_86_">
			<use xlink:href="#SVGID_85_"  style="overflow:visible;"/>
		</clipPath>
		<g class="st42">
			<defs>
				<rect id="SVGID_87_" x="-781.3" y="-1158.1" width="4458.6" height="4272.8"/>
			</defs>
			<clipPath id="SVGID_88_">
				<use xlink:href="#SVGID_87_"  style="overflow:visible;"/>
			</clipPath>
			
				<rect x="112.5" y="98.4" transform="matrix(0.766 -0.6428 0.6428 0.766 -45.2428 113.0281)" class="st43" width="40.4" height="40.5"/>
		</g>
	</g>
	<g>
		<defs>
			<path id="SVGID_89_" d="M113.3,102.9c-1.7-2-1.4-5,0.6-6.7c2-1.7,5-1.4,6.7,0.6c1.7,2,1.4,5-0.6,6.7
				C117.9,105.2,114.9,104.9,113.3,102.9"/>
		</defs>
		<clipPath id="SVGID_90_">
			<use xlink:href="#SVGID_89_"  style="overflow:visible;"/>
		</clipPath>
		<g class="st44">
			<defs>
				<rect id="SVGID_91_" x="-781.3" y="-1158.1" width="4458.6" height="4272.8"/>
			</defs>
			<clipPath id="SVGID_92_">
				<use xlink:href="#SVGID_91_"  style="overflow:visible;"/>
			</clipPath>
			
				<rect x="96.7" y="79.6" transform="matrix(0.766 -0.6428 0.6428 0.766 -36.8472 98.4866)" class="st45" width="40.4" height="40.5"/>
		</g>
	</g>
	<g>
		<defs>
			<path id="SVGID_93_" d="M144.8,140.5c-1.7-2-1.4-5,0.6-6.7c2-1.7,5-1.4,6.7,0.6c1.7,2,1.4,5-0.6,6.7
				C149.5,142.8,146.5,142.5,144.8,140.5"/>
		</defs>
		<clipPath id="SVGID_94_">
			<use xlink:href="#SVGID_93_"  style="overflow:visible;"/>
		</clipPath>
		<g class="st46">
			<defs>
				<rect id="SVGID_95_" x="-781.3" y="-1158.1" width="4458.6" height="4272.8"/>
			</defs>
			<clipPath id="SVGID_96_">
				<use xlink:href="#SVGID_95_"  style="overflow:visible;"/>
			</clipPath>
			
				<rect x="128.2" y="117.2" transform="matrix(0.766 -0.6428 0.6428 0.766 -53.639 127.5706)" class="st47" width="40.4" height="40.5"/>
		</g>
	</g>
	<g>
		<defs>
			<path id="SVGID_97_" d="M149.5,104.6c-1.7-2-1.4-5,0.6-6.7c2-1.7,5-1.4,6.7,0.6c1.7,2,1.4,5-0.6,6.7
				C154.1,106.8,151.2,106.6,149.5,104.6"/>
		</defs>
		<clipPath id="SVGID_98_">
			<use xlink:href="#SVGID_97_"  style="overflow:visible;"/>
		</clipPath>
		<g class="st48">
			<defs>
				<rect id="SVGID_99_" x="-781.3" y="-1158.1" width="4458.6" height="4272.8"/>
			</defs>
			<clipPath id="SVGID_100_">
				<use xlink:href="#SVGID_99_"  style="overflow:visible;"/>
			</clipPath>
			
				<rect x="132.9" y="81.3" transform="matrix(0.766 -0.6428 0.6428 0.766 -29.4491 122.1466)" class="st49" width="40.4" height="40.5"/>
		</g>
	</g>
	<g>
		<defs>
			<path id="SVGID_101_" d="M133.7,85.8c-1.7-2-1.4-5,0.6-6.7c2-1.7,5-1.4,6.7,0.6c1.7,2,1.4,5-0.6,6.7
				C138.4,88,135.4,87.8,133.7,85.8"/>
		</defs>
		<clipPath id="SVGID_102_">
			<use xlink:href="#SVGID_101_"  style="overflow:visible;"/>
		</clipPath>
		<g class="st50">
			<defs>
				<rect id="SVGID_103_" x="-781.3" y="-1158.1" width="4458.6" height="4272.8"/>
			</defs>
			<clipPath id="SVGID_104_">
				<use xlink:href="#SVGID_103_"  style="overflow:visible;"/>
			</clipPath>
			
				<rect x="117.1" y="62.5" transform="matrix(0.766 -0.6428 0.6428 0.766 -21.0535 107.6051)" class="st51" width="40.4" height="40.5"/>
		</g>
	</g>
	<g>
		<defs>
			<path id="SVGID_105_" d="M165.2,123.4c-1.7-2-1.4-5,0.6-6.7c2-1.7,5-1.4,6.7,0.6c1.7,2,1.4,5-0.6,6.7
				C169.9,125.6,166.9,125.4,165.2,123.4"/>
		</defs>
		<clipPath id="SVGID_106_">
			<use xlink:href="#SVGID_105_"  style="overflow:visible;"/>
		</clipPath>
		<g class="st52">
			<defs>
				<rect id="SVGID_107_" x="-781.3" y="-1158.1" width="4458.6" height="4272.8"/>
			</defs>
			<clipPath id="SVGID_108_">
				<use xlink:href="#SVGID_107_"  style="overflow:visible;"/>
			</clipPath>
			
				<rect x="148.7" y="100.1" transform="matrix(0.766 -0.6428 0.6428 0.766 -37.8453 136.6892)" class="st53" width="40.4" height="40.5"/>
		</g>
	</g>
	<g>
		<defs>
			<path id="SVGID_109_" d="M109.9,137.7c-1.7-2-1.4-5,0.6-6.7c2-1.7,5-1.4,6.7,0.6c1.7,2,1.4,5-0.6,6.7
				C114.6,140,111.6,139.7,109.9,137.7"/>
		</defs>
		<clipPath id="SVGID_110_">
			<use xlink:href="#SVGID_109_"  style="overflow:visible;"/>
		</clipPath>
		<g class="st54">
			<defs>
				<rect id="SVGID_111_" x="-781.3" y="-1158.1" width="4458.6" height="4272.8"/>
			</defs>
			<clipPath id="SVGID_112_">
				<use xlink:href="#SVGID_111_"  style="overflow:visible;"/>
			</clipPath>
			
				<rect x="93.4" y="114.5" transform="matrix(0.766 -0.6428 0.6428 0.766 -60.0091 104.5028)" class="st55" width="40.4" height="40.5"/>
		</g>
	</g>
	<g>
		<defs>
			<path id="SVGID_113_" d="M94.2,118.9c-1.7-2-1.4-5,0.6-6.7c2-1.7,5-1.4,6.7,0.6c1.7,2,1.4,5-0.6,6.7
				C98.8,121.2,95.9,120.9,94.2,118.9"/>
		</defs>
		<clipPath id="SVGID_114_">
			<use xlink:href="#SVGID_113_"  style="overflow:visible;"/>
		</clipPath>
		<g class="st56">
			<defs>
				<rect id="SVGID_115_" x="-781.3" y="-1158.1" width="4458.6" height="4272.8"/>
			</defs>
			<clipPath id="SVGID_116_">
				<use xlink:href="#SVGID_115_"  style="overflow:visible;"/>
			</clipPath>
			
				<rect x="77.6" y="95.7" transform="matrix(0.766 -0.6428 0.6428 0.766 -51.6136 89.9612)" class="st57" width="40.4" height="40.5"/>
		</g>
	</g>
	<g>
		<defs>
			<path id="SVGID_117_" d="M125.7,156.5c-1.7-2-1.4-5,0.6-6.7c2-1.7,5-1.4,6.7,0.6c1.7,2,1.4,5-0.6,6.7
				C130.4,158.8,127.4,158.5,125.7,156.5"/>
		</defs>
		<clipPath id="SVGID_118_">
			<use xlink:href="#SVGID_117_"  style="overflow:visible;"/>
		</clipPath>
		<g class="st58">
			<defs>
				<rect id="SVGID_119_" x="-781.3" y="-1158.1" width="4458.6" height="4272.8"/>
			</defs>
			<clipPath id="SVGID_120_">
				<use xlink:href="#SVGID_119_"  style="overflow:visible;"/>
			</clipPath>
			
				<rect x="109.1" y="133.3" transform="matrix(0.766 -0.6428 0.6428 0.766 -68.4053 119.0454)" class="st59" width="40.4" height="40.5"/>
		</g>
	</g>
	<g>
		<defs>
			<path id="SVGID_121_" d="M69.1,172c-1.7-2-1.4-5,0.6-6.7c2-1.7,5-1.4,6.7,0.6c1.7,2,1.4,5-0.6,6.7C73.8,174.3,70.8,174,69.1,172"
				/>
		</defs>
		<clipPath id="SVGID_122_">
			<use xlink:href="#SVGID_121_"  style="overflow:visible;"/>
		</clipPath>
		<g class="st60">
			<defs>
				<rect id="SVGID_123_" x="-781.3" y="-1158.1" width="4458.6" height="4272.8"/>
			</defs>
			<clipPath id="SVGID_124_">
				<use xlink:href="#SVGID_123_"  style="overflow:visible;"/>
			</clipPath>
			
				<rect x="52.5" y="148.7" transform="matrix(0.766 -0.6428 0.6428 0.766 -91.5969 86.2656)" class="st61" width="40.4" height="40.5"/>
		</g>
	</g>
	<g>
		<defs>
			<path id="SVGID_125_" d="M53.3,153.2c-1.7-2-1.4-5,0.6-6.7c2-1.7,5-1.4,6.7,0.6c1.7,2,1.4,5-0.6,6.7
				C58,155.5,55,155.2,53.3,153.2"/>
		</defs>
		<clipPath id="SVGID_126_">
			<use xlink:href="#SVGID_125_"  style="overflow:visible;"/>
		</clipPath>
		<g class="st62">
			<defs>
				<rect id="SVGID_127_" x="-781.3" y="-1158.1" width="4458.6" height="4272.8"/>
			</defs>
			<clipPath id="SVGID_128_">
				<use xlink:href="#SVGID_127_"  style="overflow:visible;"/>
			</clipPath>
			
				<rect x="36.7" y="129.9" transform="matrix(0.766 -0.6428 0.6428 0.766 -83.2013 71.7241)" class="st63" width="40.4" height="40.5"/>
		</g>
	</g>
	<g>
		<defs>
			<path id="SVGID_129_" d="M84.9,190.8c-1.7-2-1.4-5,0.6-6.7c2-1.7,5-1.4,6.7,0.6c1.7,2,1.4,5-0.6,6.7
				C89.5,193.1,86.6,192.8,84.9,190.8"/>
		</defs>
		<clipPath id="SVGID_130_">
			<use xlink:href="#SVGID_129_"  style="overflow:visible;"/>
		</clipPath>
		<g class="st64">
			<defs>
				<rect id="SVGID_131_" x="-781.3" y="-1158.1" width="4458.6" height="4272.8"/>
			</defs>
			<clipPath id="SVGID_132_">
				<use xlink:href="#SVGID_131_"  style="overflow:visible;"/>
			</clipPath>
			
				<rect x="68.3" y="167.5" transform="matrix(0.766 -0.6428 0.6428 0.766 -99.993 100.8082)" class="st65" width="40.4" height="40.5"/>
		</g>
	</g>
	<g>
		<defs>
			<path id="SVGID_133_" d="M89.5,154.9c-1.7-2-1.4-5,0.6-6.7c2-1.7,5-1.4,6.7,0.6c1.7,2,1.4,5-0.6,6.7
				C94.2,157.1,91.2,156.9,89.5,154.9"/>
		</defs>
		<clipPath id="SVGID_134_">
			<use xlink:href="#SVGID_133_"  style="overflow:visible;"/>
		</clipPath>
		<g class="st66">
			<defs>
				<rect id="SVGID_135_" x="-781.3" y="-1158.1" width="4458.6" height="4272.8"/>
			</defs>
			<clipPath id="SVGID_136_">
				<use xlink:href="#SVGID_135_"  style="overflow:visible;"/>
			</clipPath>
			
				<rect x="72.9" y="131.6" transform="matrix(0.766 -0.6428 0.6428 0.766 -75.8031 95.3841)" class="st67" width="40.4" height="40.5"/>
		</g>
	</g>
	<g>
		<defs>
			<path id="SVGID_137_" d="M73.7,136c-1.7-2-1.4-5,0.6-6.7c2-1.7,5-1.4,6.7,0.6c1.7,2,1.4,5-0.6,6.7
				C78.4,138.3,75.4,138.1,73.7,136"/>
		</defs>
		<clipPath id="SVGID_138_">
			<use xlink:href="#SVGID_137_"  style="overflow:visible;"/>
		</clipPath>
		<g class="st68">
			<defs>
				<rect id="SVGID_139_" x="-781.3" y="-1158.1" width="4458.6" height="4272.8"/>
			</defs>
			<clipPath id="SVGID_140_">
				<use xlink:href="#SVGID_139_"  style="overflow:visible;"/>
			</clipPath>
			
				<rect x="57.2" y="112.8" transform="matrix(0.766 -0.6428 0.6428 0.766 -67.4076 80.8426)" class="st69" width="40.4" height="40.5"/>
		</g>
	</g>
	<g>
		<defs>
			<path id="SVGID_141_" d="M105.3,173.7c-1.7-2-1.4-5,0.6-6.7c2-1.7,5-1.4,6.7,0.6c1.7,2,1.4,5-0.6,6.7
				C110,175.9,107,175.7,105.3,173.7"/>
		</defs>
		<clipPath id="SVGID_142_">
			<use xlink:href="#SVGID_141_"  style="overflow:visible;"/>
		</clipPath>
		<g class="st70">
			<defs>
				<rect id="SVGID_143_" x="-781.3" y="-1158.1" width="4458.6" height="4272.8"/>
			</defs>
			<clipPath id="SVGID_144_">
				<use xlink:href="#SVGID_143_"  style="overflow:visible;"/>
			</clipPath>
			
				<rect x="88.7" y="150.4" transform="matrix(0.766 -0.6428 0.6428 0.766 -84.1993 109.9267)" class="st71" width="40.4" height="40.5"/>
		</g>
	</g>
</g>
</svg>
