<?xml version="1.0" encoding="utf-8"?>
<!-- Generator: Adobe Illustrator 21.1.0, SVG Export Plug-In . SVG Version: 6.00 Build 0)  -->
<svg version="1.1" id="Layer_1" xmlns="http://www.w3.org/2000/svg" xmlns:xlink="http://www.w3.org/1999/xlink" x="0px" y="0px"
	 viewBox="0 0 200 200" style="enable-background:new 0 0 200 200;" xml:space="preserve">
<style type="text/css">
	.st0{clip-path:url(#SVGID_2_);}
	.st1{clip-path:url(#SVGID_4_);fill:#EF9B75;}
	.st2{clip-path:url(#SVGID_6_);}
	.st3{clip-path:url(#SVGID_8_);fill:#EF9B75;}
	.st4{clip-path:url(#SVGID_10_);}
	.st5{clip-path:url(#SVGID_12_);fill:#EF9B75;}
	.st6{clip-path:url(#SVGID_14_);}
	.st7{clip-path:url(#SVGID_16_);fill:#EF9B75;}
	.st8{clip-path:url(#SVGID_18_);}
	.st9{clip-path:url(#SVGID_20_);fill:#EF9B75;}
	.st10{clip-path:url(#SVGID_22_);}
	.st11{clip-path:url(#SVGID_24_);fill:#EF9B75;}
	.st12{clip-path:url(#SVGID_26_);}
	.st13{clip-path:url(#SVGID_28_);fill:#EF9B75;}
	.st14{clip-path:url(#SVGID_30_);}
	.st15{clip-path:url(#SVGID_32_);fill:#EF9B75;}
	.st16{clip-path:url(#SVGID_34_);}
	.st17{clip-path:url(#SVGID_36_);fill:#EF9B75;}
	.st18{clip-path:url(#SVGID_38_);}
	.st19{clip-path:url(#SVGID_40_);fill:#EF9B75;}
</style>
<g>
	<g>
		<defs>
			<path id="SVGID_1_" d="M52.5,89.1L47,122.5c-0.6,3.4-3.7,5.6-7.1,4.7c-3.3-0.9-5.6-4.4-5-7.9l5.5-33.5c0.6-3.4,3.7-5.6,7.1-4.7
				C50.8,82.1,53.1,85.6,52.5,89.1"/>
		</defs>
		<clipPath id="SVGID_2_">
			<use xlink:href="#SVGID_1_"  style="overflow:visible;"/>
		</clipPath>
		<g class="st0">
			<defs>
				<rect id="SVGID_3_" x="-152.8" y="-1136.4" width="4256.1" height="4078.8"/>
			</defs>
			<clipPath id="SVGID_4_">
				<use xlink:href="#SVGID_3_"  style="overflow:visible;"/>
			</clipPath>
			
				<rect x="12.7" y="69.4" transform="matrix(0.8829 -0.4695 0.4695 0.8829 -43.8025 32.7309)" class="st1" width="62.1" height="69.7"/>
		</g>
	</g>
	<g>
		<defs>
			<path id="SVGID_5_" d="M8.1,112.7l30.8,14.2c3.2,1.5,6.7,0,7.8-3.2c1.1-3.2-0.5-7.1-3.7-8.6l-30.8-14.2c-3.2-1.5-6.7,0-7.8,3.2
				C3.3,107.4,5,111.2,8.1,112.7"/>
		</defs>
		<clipPath id="SVGID_6_">
			<use xlink:href="#SVGID_5_"  style="overflow:visible;"/>
		</clipPath>
		<g class="st2">
			<defs>
				<rect id="SVGID_7_" x="-152.8" y="-1136.4" width="4256.1" height="4078.8"/>
			</defs>
			<clipPath id="SVGID_8_">
				<use xlink:href="#SVGID_7_"  style="overflow:visible;"/>
			</clipPath>
			
				<rect x="-5.4" y="79" transform="matrix(0.8829 -0.4695 0.4695 0.8829 -50.4562 25.3412)" class="st3" width="62.1" height="69.7"/>
		</g>
	</g>
	<g>
		<defs>
			<path id="SVGID_9_" d="M79.5,95.7L48.7,81.5c-3.2-1.5-6.7,0-7.8,3.2c-1.1,3.2,0.5,7.1,3.7,8.6l30.8,14.2c3.2,1.5,6.7,0,7.8-3.2
				C84.3,101,82.6,97.1,79.5,95.7"/>
		</defs>
		<clipPath id="SVGID_10_">
			<use xlink:href="#SVGID_9_"  style="overflow:visible;"/>
		</clipPath>
		<g class="st4">
			<defs>
				<rect id="SVGID_11_" x="-152.8" y="-1136.4" width="4256.1" height="4078.8"/>
			</defs>
			<clipPath id="SVGID_12_">
				<use xlink:href="#SVGID_11_"  style="overflow:visible;"/>
			</clipPath>
			
				<rect x="31" y="59.6" transform="matrix(0.8829 -0.4695 0.4695 0.8829 -37.1075 40.1667)" class="st5" width="62.1" height="69.7"/>
		</g>
	</g>
	<g>
		<defs>
			<path id="SVGID_13_" d="M115.8,76.4L85,62.2c-3.2-1.5-6.7,0-7.8,3.2c-1.1,3.2,0.5,7.1,3.7,8.6l30.8,14.2c3.2,1.5,6.7,0,7.8-3.2
				C120.6,81.7,119,77.8,115.8,76.4"/>
		</defs>
		<clipPath id="SVGID_14_">
			<use xlink:href="#SVGID_13_"  style="overflow:visible;"/>
		</clipPath>
		<g class="st6">
			<defs>
				<rect id="SVGID_15_" x="-152.8" y="-1136.4" width="4256.1" height="4078.8"/>
			</defs>
			<clipPath id="SVGID_16_">
				<use xlink:href="#SVGID_15_"  style="overflow:visible;"/>
			</clipPath>
			
				<rect x="67.3" y="40.3" transform="matrix(0.8829 -0.4695 0.4695 0.8829 -23.7883 54.9592)" class="st7" width="62.1" height="69.7"/>
		</g>
	</g>
	<g>
		<defs>
			<path id="SVGID_17_" d="M152.1,57.1l-30.8-14.2c-3.2-1.5-6.7,0-7.8,3.2c-1.1,3.2,0.5,7.1,3.7,8.6L148,68.9c3.2,1.5,6.7,0,7.8-3.2
				C157,62.4,155.3,58.5,152.1,57.1"/>
		</defs>
		<clipPath id="SVGID_18_">
			<use xlink:href="#SVGID_17_"  style="overflow:visible;"/>
		</clipPath>
		<g class="st8">
			<defs>
				<rect id="SVGID_19_" x="-152.8" y="-1136.4" width="4256.1" height="4078.8"/>
			</defs>
			<clipPath id="SVGID_20_">
				<use xlink:href="#SVGID_19_"  style="overflow:visible;"/>
			</clipPath>
			
				<rect x="103.6" y="21" transform="matrix(0.8829 -0.4695 0.4695 0.8829 -10.4788 69.7618)" class="st9" width="62.1" height="69.7"/>
		</g>
	</g>
	<g>
		<defs>
			<path id="SVGID_21_" d="M188.5,37.8l-30.8-14.2c-3.2-1.5-6.7,0-7.8,3.2c-1.1,3.2,0.5,7.1,3.7,8.6l30.8,14.2
				c3.2,1.5,6.7,0,7.8-3.2C193.3,43.1,191.7,39.2,188.5,37.8"/>
		</defs>
		<clipPath id="SVGID_22_">
			<use xlink:href="#SVGID_21_"  style="overflow:visible;"/>
		</clipPath>
		<g class="st10">
			<defs>
				<rect id="SVGID_23_" x="-152.8" y="-1136.4" width="4256.1" height="4078.8"/>
			</defs>
			<clipPath id="SVGID_24_">
				<use xlink:href="#SVGID_23_"  style="overflow:visible;"/>
			</clipPath>
			
				<rect x="140" y="1.7" transform="matrix(0.8829 -0.4695 0.4695 0.8829 2.8507 84.5701)" class="st11" width="62.1" height="69.7"/>
		</g>
	</g>
	<g>
		<defs>
			<path id="SVGID_25_" d="M71.4,100l5.5-33.5c0.6-3.4,3.7-5.6,7.1-4.7c3.3,0.9,5.6,4.4,5,7.9l-5.5,33.5c-0.6,3.4-3.7,5.6-7.1,4.7
				C73.1,107,70.8,103.4,71.4,100"/>
		</defs>
		<clipPath id="SVGID_26_">
			<use xlink:href="#SVGID_25_"  style="overflow:visible;"/>
		</clipPath>
		<g class="st12">
			<defs>
				<rect id="SVGID_27_" x="-152.8" y="-1136.4" width="4256.1" height="4078.8"/>
			</defs>
			<clipPath id="SVGID_28_">
				<use xlink:href="#SVGID_27_"  style="overflow:visible;"/>
			</clipPath>
			
				<rect x="49.1" y="50" transform="matrix(0.8829 -0.4695 0.4695 0.8829 -30.4405 47.5712)" class="st13" width="62.1" height="69.7"/>
		</g>
	</g>
	<g>
		<defs>
			<path id="SVGID_29_" d="M107.7,80.7l5.5-33.5c0.6-3.4,3.7-5.6,7.1-4.7c3.3,0.9,5.6,4.4,5,7.9l-5.5,33.5c-0.6,3.4-3.7,5.6-7.1,4.7
				C109.4,87.7,107.2,84.1,107.7,80.7"/>
		</defs>
		<clipPath id="SVGID_30_">
			<use xlink:href="#SVGID_29_"  style="overflow:visible;"/>
		</clipPath>
		<g class="st14">
			<defs>
				<rect id="SVGID_31_" x="-152.8" y="-1136.4" width="4256.1" height="4078.8"/>
			</defs>
			<clipPath id="SVGID_32_">
				<use xlink:href="#SVGID_31_"  style="overflow:visible;"/>
			</clipPath>
			
				<rect x="85.5" y="30.7" transform="matrix(0.8829 -0.4695 0.4695 0.8829 -17.129 62.3759)" class="st15" width="62.1" height="69.7"/>
		</g>
	</g>
	<g>
		<defs>
			<path id="SVGID_33_" d="M144.1,61.4l5.5-33.5c0.6-3.4,3.7-5.6,7.1-4.7c3.3,0.9,5.6,4.4,5,7.9l-5.5,33.5c-0.6,3.4-3.7,5.6-7.1,4.7
				C145.8,68.4,143.5,64.8,144.1,61.4"/>
		</defs>
		<clipPath id="SVGID_34_">
			<use xlink:href="#SVGID_33_"  style="overflow:visible;"/>
		</clipPath>
		<g class="st16">
			<defs>
				<rect id="SVGID_35_" x="-152.8" y="-1136.4" width="4256.1" height="4078.8"/>
			</defs>
			<clipPath id="SVGID_36_">
				<use xlink:href="#SVGID_35_"  style="overflow:visible;"/>
			</clipPath>
			
				<rect x="121.8" y="11.4" transform="matrix(0.8829 -0.4695 0.4695 0.8829 -3.8147 77.1674)" class="st17" width="62.1" height="69.7"/>
		</g>
	</g>
	<g>
		<defs>
			<path id="SVGID_37_" d="M180.3,42.1l5.5-33.5c0.6-3.4,3.7-5.6,7.1-4.7c3.3,0.9,5.6,4.4,5,7.9l-5.5,33.5c-0.6,3.4-3.7,5.6-7.1,4.7
				C182,49.1,179.8,45.5,180.3,42.1"/>
		</defs>
		<clipPath id="SVGID_38_">
			<use xlink:href="#SVGID_37_"  style="overflow:visible;"/>
		</clipPath>
		<g class="st18">
			<defs>
				<rect id="SVGID_39_" x="-152.8" y="-1136.4" width="4256.1" height="4078.8"/>
			</defs>
			<clipPath id="SVGID_40_">
				<use xlink:href="#SVGID_39_"  style="overflow:visible;"/>
			</clipPath>
			
				<rect x="158.1" y="-7.9" transform="matrix(0.8829 -0.4695 0.4695 0.8829 9.4902 91.9441)" class="st19" width="62.1" height="69.7"/>
		</g>
	</g>
</g>
</svg>
