<?xml version="1.0" encoding="utf-8"?>
<!-- Generator: Adobe Illustrator 21.1.0, SVG Export Plug-In . SVG Version: 6.00 Build 0)  -->
<svg version="1.1" id="Layer_1" xmlns="http://www.w3.org/2000/svg" xmlns:xlink="http://www.w3.org/1999/xlink" x="0px" y="0px"
	 viewBox="0 0 200 200" style="enable-background:new 0 0 200 200;" xml:space="preserve">
<style type="text/css">
	.st0{clip-path:url(#SVGID_2_);}
	.st1{clip-path:url(#SVGID_4_);fill:#EF9B75;}
</style>
<g>
	<defs>
		<path id="SVGID_1_" d="M176.2,46.6L176.2,46.6c0-0.1-0.1-0.1-0.1-0.2c-0.3-0.4-0.6-0.8-0.8-1.2l-0.1,0C145,4.1,87.3-5.4,45.6,24.3
			c-42.2,30-52.2,88.5-22.3,130.8l0.5-0.4l-0.5,0.3c30.3,42,88.9,51.5,130.9,21.1C195.7,146.2,205.3,88.5,176.2,46.6 M146.6,165.8
			c-36.2,26.2-86.8,18-113-18.2l0,0C7.9,111.1,16.5,60.6,53,34.7c36.4-25.8,86.8-17.2,112.7,19.1
			C190.8,90.1,182.5,139.9,146.6,165.8"/>
	</defs>
	<clipPath id="SVGID_2_">
		<use xlink:href="#SVGID_1_"  style="overflow:visible;"/>
	</clipPath>
	<g class="st0">
		<defs>
			<rect id="SVGID_3_" x="-7517.6" y="-1738.3" width="8976" height="8602"/>
		</defs>
		<clipPath id="SVGID_4_">
			<use xlink:href="#SVGID_3_"  style="overflow:visible;"/>
		</clipPath>
		<rect x="-25.2" y="-24.2" class="st1" width="249.3" height="249.3"/>
	</g>
</g>
</svg>
