<?xml version="1.0" encoding="utf-8"?>
<!-- Generator: Adobe Illustrator 21.1.0, SVG Export Plug-In . SVG Version: 6.00 Build 0)  -->
<svg version="1.1" id="Layer_1" xmlns="http://www.w3.org/2000/svg" xmlns:xlink="http://www.w3.org/1999/xlink" x="0px" y="0px"
	 viewBox="0 0 200 200" style="enable-background:new 0 0 200 200;" xml:space="preserve">
<style type="text/css">
	.st0{clip-path:url(#SVGID_2_);}
	.st1{clip-path:url(#SVGID_4_);fill:#1C998B;}
</style>
<g>
	<defs>
		<path id="SVGID_1_" d="M148.2,167.9c-37.4,27-89.6,18.6-116.6-18.8l0,0C5,111.4,13.9,59.3,51.5,32.6C89.1,6,141.1,14.8,167.8,52.4
			C193.8,89.7,185.1,141.2,148.2,167.9 M178.7,44.9L178.7,44.9c0-0.1-0.1-0.1-0.1-0.2c-0.3-0.4-0.6-0.9-0.9-1.3l-0.1,0
			C146.5,1,87-8.8,43.8,21.8c-43.6,30.9-53.9,91.4-23,135l0.5-0.4l-0.5,0.4c31.3,43.4,91.8,53.1,135.1,21.8
			C198.7,147.7,208.7,88.1,178.7,44.9"/>
	</defs>
	<clipPath id="SVGID_2_">
		<use xlink:href="#SVGID_1_"  style="overflow:visible;"/>
	</clipPath>
	<g class="st0">
		<defs>
			<rect id="SVGID_3_" x="-507.5" y="-2741.6" width="8965.2" height="8591.6"/>
		</defs>
		<clipPath id="SVGID_4_">
			<use xlink:href="#SVGID_3_"  style="overflow:visible;"/>
		</clipPath>
		<rect x="-28.1" y="-27.1" class="st1" width="255.3" height="255.3"/>
	</g>
</g>
</svg>
