<?xml version="1.0" encoding="utf-8"?>
<!-- Generator: Adobe Illustrator 21.1.0, SVG Export Plug-In . SVG Version: 6.00 Build 0)  -->
<svg version="1.1" id="Layer_1" xmlns="http://www.w3.org/2000/svg" xmlns:xlink="http://www.w3.org/1999/xlink" x="0px" y="0px"
	 viewBox="0 0 200 200" style="enable-background:new 0 0 200 200;" xml:space="preserve">
<style type="text/css">
	.st0{clip-path:url(#SVGID_2_);}
	.st1{clip-path:url(#SVGID_4_);fill:#1C998B;}
	.st2{clip-path:url(#SVGID_6_);}
	.st3{clip-path:url(#SVGID_8_);fill:#1C998B;}
	.st4{clip-path:url(#SVGID_10_);}
	.st5{clip-path:url(#SVGID_12_);fill:#1C998B;}
	.st6{clip-path:url(#SVGID_14_);}
	.st7{clip-path:url(#SVGID_16_);fill:#1C998B;}
	.st8{clip-path:url(#SVGID_18_);}
	.st9{clip-path:url(#SVGID_20_);fill:#1C998B;}
	.st10{clip-path:url(#SVGID_22_);}
	.st11{clip-path:url(#SVGID_24_);fill:#1C998B;}
	.st12{clip-path:url(#SVGID_26_);}
	.st13{clip-path:url(#SVGID_28_);fill:#1C998B;}
	.st14{clip-path:url(#SVGID_30_);}
	.st15{clip-path:url(#SVGID_32_);fill:#1C998B;}
	.st16{clip-path:url(#SVGID_34_);}
	.st17{clip-path:url(#SVGID_36_);fill:#1C998B;}
	.st18{clip-path:url(#SVGID_38_);}
	.st19{clip-path:url(#SVGID_40_);fill:#1C998B;}
</style>
<g>
	<g>
		<defs>
			<path id="SVGID_1_" d="M49.2,22L26.6,43c-2.3,2.2-5.8,1.9-7.7-0.6c-1.9-2.5-1.5-6.3,0.8-8.5l22.6-21c2.3-2.2,5.8-1.9,7.7,0.6
				C51.9,16.1,51.5,19.9,49.2,22"/>
		</defs>
		<clipPath id="SVGID_2_">
			<use xlink:href="#SVGID_1_"  style="overflow:visible;"/>
		</clipPath>
		<g class="st0">
			<defs>
				<rect id="SVGID_3_" x="-453.2" y="-746.3" width="3877" height="3715.4"/>
			</defs>
			<clipPath id="SVGID_4_">
				<use xlink:href="#SVGID_3_"  style="overflow:visible;"/>
			</clipPath>
			
				<rect x="2.7" y="-0.2" transform="matrix(0.1736 -0.9848 0.9848 0.1736 0.9194 57.0827)" class="st1" width="63.5" height="56.4"/>
		</g>
	</g>
	<g>
		<defs>
			<path id="SVGID_5_" d="M4.4,14.1l14.1,27.4c1.4,2.8,4.8,3.8,7.4,2.1c2.6-1.7,3.6-5.4,2.1-8.2L13.9,8c-1.4-2.8-4.8-3.8-7.4-2.1
				C3.9,7.6,2.9,11.3,4.4,14.1"/>
		</defs>
		<clipPath id="SVGID_6_">
			<use xlink:href="#SVGID_5_"  style="overflow:visible;"/>
		</clipPath>
		<g class="st2">
			<defs>
				<rect id="SVGID_7_" x="-453.2" y="-746.3" width="3877" height="3715.4"/>
			</defs>
			<clipPath id="SVGID_8_">
				<use xlink:href="#SVGID_7_"  style="overflow:visible;"/>
			</clipPath>
			
				<rect x="-15.6" y="-3.4" transform="matrix(0.1736 -0.9848 0.9848 0.1736 -11.0407 36.3671)" class="st3" width="63.5" height="56.4"/>
		</g>
	</g>
	<g>
		<defs>
			<path id="SVGID_9_" d="M64.7,41.9L50.6,14.4c-1.4-2.8-4.8-3.8-7.4-2.1c-2.6,1.7-3.6,5.4-2.1,8.2L55.2,48c1.4,2.8,4.8,3.8,7.4,2.1
				C65.2,48.4,66.2,44.7,64.7,41.9"/>
		</defs>
		<clipPath id="SVGID_10_">
			<use xlink:href="#SVGID_9_"  style="overflow:visible;"/>
		</clipPath>
		<g class="st4">
			<defs>
				<rect id="SVGID_11_" x="-453.2" y="-746.3" width="3877" height="3715.4"/>
			</defs>
			<clipPath id="SVGID_12_">
				<use xlink:href="#SVGID_11_"  style="overflow:visible;"/>
			</clipPath>
			
				<rect x="21.2" y="3.1" transform="matrix(0.1736 -0.9848 0.9848 0.1736 12.9536 77.9274)" class="st5" width="63.5" height="56.4"/>
		</g>
	</g>
	<g>
		<defs>
			<path id="SVGID_13_" d="M101.4,48.3L87.3,20.9c-1.4-2.8-4.8-3.8-7.4-2.1c-2.6,1.7-3.6,5.4-2.1,8.2l14.1,27.4
				c1.4,2.8,4.8,3.8,7.4,2.1C101.9,54.9,102.8,51.2,101.4,48.3"/>
		</defs>
		<clipPath id="SVGID_14_">
			<use xlink:href="#SVGID_13_"  style="overflow:visible;"/>
		</clipPath>
		<g class="st6">
			<defs>
				<rect id="SVGID_15_" x="-453.2" y="-746.3" width="3877" height="3715.4"/>
			</defs>
			<clipPath id="SVGID_16_">
				<use xlink:href="#SVGID_15_"  style="overflow:visible;"/>
			</clipPath>
			
				<rect x="57.8" y="9.5" transform="matrix(0.1736 -0.9848 0.9848 0.1736 36.8952 119.3955)" class="st7" width="63.5" height="56.4"/>
		</g>
	</g>
	<g>
		<defs>
			<path id="SVGID_17_" d="M138.1,54.8L124,27.4c-1.4-2.8-4.8-3.8-7.4-2.1c-2.6,1.7-3.6,5.4-2.1,8.2L128.5,61
				c1.4,2.8,4.8,3.8,7.4,2.1C138.6,61.4,139.5,57.7,138.1,54.8"/>
		</defs>
		<clipPath id="SVGID_18_">
			<use xlink:href="#SVGID_17_"  style="overflow:visible;"/>
		</clipPath>
		<g class="st8">
			<defs>
				<rect id="SVGID_19_" x="-453.2" y="-746.3" width="3877" height="3715.4"/>
			</defs>
			<clipPath id="SVGID_20_">
				<use xlink:href="#SVGID_19_"  style="overflow:visible;"/>
			</clipPath>
			
				<rect x="94.5" y="16" transform="matrix(0.1736 -0.9848 0.9848 0.1736 60.8087 160.8824)" class="st9" width="63.5" height="56.4"/>
		</g>
	</g>
	<g>
		<defs>
			<path id="SVGID_21_" d="M174.8,61.3l-14.1-27.4c-1.4-2.8-4.8-3.8-7.4-2.1c-2.6,1.7-3.6,5.4-2.1,8.2l14.1,27.4
				c1.4,2.8,4.8,3.8,7.4,2.1C175.3,67.8,176.2,64.1,174.8,61.3"/>
		</defs>
		<clipPath id="SVGID_22_">
			<use xlink:href="#SVGID_21_"  style="overflow:visible;"/>
		</clipPath>
		<g class="st10">
			<defs>
				<rect id="SVGID_23_" x="-453.2" y="-746.3" width="3877" height="3715.4"/>
			</defs>
			<clipPath id="SVGID_24_">
				<use xlink:href="#SVGID_23_"  style="overflow:visible;"/>
			</clipPath>
			
				<rect x="131.2" y="22.5" transform="matrix(0.1736 -0.9848 0.9848 0.1736 84.7664 202.3928)" class="st11" width="63.5" height="56.4"/>
		</g>
	</g>
	<g>
		<defs>
			<path id="SVGID_25_" d="M56.6,40.4l22.6-21c2.3-2.2,5.8-1.9,7.7,0.6c1.9,2.5,1.5,6.3-0.8,8.5l-22.6,21c-2.3,2.2-5.8,1.9-7.7-0.6
				C53.9,46.4,54.2,42.6,56.6,40.4"/>
		</defs>
		<clipPath id="SVGID_26_">
			<use xlink:href="#SVGID_25_"  style="overflow:visible;"/>
		</clipPath>
		<g class="st12">
			<defs>
				<rect id="SVGID_27_" x="-453.2" y="-746.3" width="3877" height="3715.4"/>
			</defs>
			<clipPath id="SVGID_28_">
				<use xlink:href="#SVGID_27_"  style="overflow:visible;"/>
			</clipPath>
			
				<rect x="39.5" y="6.3" transform="matrix(0.1736 -0.9848 0.9848 0.1736 24.9377 98.6845)" class="st13" width="63.5" height="56.4"/>
		</g>
	</g>
	<g>
		<defs>
			<path id="SVGID_29_" d="M93.2,46.9l22.6-21c2.3-2.2,5.8-1.9,7.7,0.6c1.9,2.5,1.5,6.3-0.8,8.5l-22.6,21c-2.3,2.2-5.8,1.9-7.7-0.6
				C90.5,52.9,90.9,49.1,93.2,46.9"/>
		</defs>
		<clipPath id="SVGID_30_">
			<use xlink:href="#SVGID_29_"  style="overflow:visible;"/>
		</clipPath>
		<g class="st14">
			<defs>
				<rect id="SVGID_31_" x="-453.2" y="-746.3" width="3877" height="3715.4"/>
			</defs>
			<clipPath id="SVGID_32_">
				<use xlink:href="#SVGID_31_"  style="overflow:visible;"/>
			</clipPath>
			
				<rect x="76.2" y="12.8" transform="matrix(0.1736 -0.9848 0.9848 0.1736 48.8548 140.1776)" class="st15" width="63.5" height="56.4"/>
		</g>
	</g>
	<g>
		<defs>
			<path id="SVGID_33_" d="M129.9,53.4l22.6-21c2.3-2.2,5.8-1.9,7.7,0.6c1.9,2.5,1.5,6.3-0.8,8.5l-22.6,21c-2.3,2.2-5.8,1.9-7.7-0.6
				C127.2,59.4,127.6,55.6,129.9,53.4"/>
		</defs>
		<clipPath id="SVGID_34_">
			<use xlink:href="#SVGID_33_"  style="overflow:visible;"/>
		</clipPath>
		<g class="st16">
			<defs>
				<rect id="SVGID_35_" x="-453.2" y="-746.3" width="3877" height="3715.4"/>
			</defs>
			<clipPath id="SVGID_36_">
				<use xlink:href="#SVGID_35_"  style="overflow:visible;"/>
			</clipPath>
			
				<rect x="112.9" y="19.3" transform="matrix(0.1736 -0.9848 0.9848 0.1736 72.7852 181.6406)" class="st17" width="63.5" height="56.4"/>
		</g>
	</g>
	<g>
		<defs>
			<path id="SVGID_37_" d="M166.6,59.9l22.6-21c2.3-2.2,5.8-1.9,7.7,0.6c1.9,2.5,1.5,6.3-0.8,8.5l-22.6,21c-2.3,2.2-5.8,1.9-7.7-0.6
				C163.9,65.8,164.2,62,166.6,59.9"/>
		</defs>
		<clipPath id="SVGID_38_">
			<use xlink:href="#SVGID_37_"  style="overflow:visible;"/>
		</clipPath>
		<g class="st18">
			<defs>
				<rect id="SVGID_39_" x="-453.2" y="-746.3" width="3877" height="3715.4"/>
			</defs>
			<clipPath id="SVGID_40_">
				<use xlink:href="#SVGID_39_"  style="overflow:visible;"/>
			</clipPath>
			
				<rect x="149.5" y="25.7" transform="matrix(0.1736 -0.9848 0.9848 0.1736 96.7011 223.0643)" class="st19" width="63.5" height="56.4"/>
		</g>
	</g>
</g>
</svg>
