<?xml version="1.0" encoding="utf-8"?>
<!-- Generator: Adobe Illustrator 21.1.0, SVG Export Plug-In . SVG Version: 6.00 Build 0)  -->
<svg version="1.1" id="Layer_1" xmlns="http://www.w3.org/2000/svg" xmlns:xlink="http://www.w3.org/1999/xlink" x="0px" y="0px"
	 viewBox="0 0 200 200" style="enable-background:new 0 0 200 200;" xml:space="preserve">
<style type="text/css">
	.st0{clip-path:url(#SVGID_2_);}
	.st1{clip-path:url(#SVGID_4_);fill:#F05352;}
</style>
<g>
	<defs>
		<path id="SVGID_1_" d="M146.6,166.8c-36.2,26.2-86.8,18-113-18.2l0,0C7.9,112.1,16.5,61.6,53,35.8c36.4-25.8,86.8-17.2,112.7,19.1
			C190.8,91.1,182.5,140.9,146.6,166.8 M176.2,47.6L176.2,47.6c0-0.1-0.1-0.1-0.1-0.2c-0.3-0.4-0.6-0.8-0.8-1.2l0,0
			C145,5.1,87.3-4.4,45.6,25.3c-42.2,30-52.2,88.5-22.3,130.8l0.5-0.4l-0.5,0.3c30.3,42,88.9,51.5,130.9,21.1
			C195.7,147.2,205.3,89.5,176.2,47.6"/>
	</defs>
	<clipPath id="SVGID_2_">
		<use xlink:href="#SVGID_1_"  style="overflow:visible;"/>
	</clipPath>
	<g class="st0">
		<defs>
			<rect id="SVGID_3_" x="-11596.9" y="-2903.9" width="12822.9" height="12288.6"/>
		</defs>
		<clipPath id="SVGID_4_">
			<use xlink:href="#SVGID_3_"  style="overflow:visible;"/>
		</clipPath>
		<rect x="-38.5" y="-36.5" class="st1" width="276" height="276"/>
	</g>
</g>
</svg>
