<?xml version="1.0" encoding="utf-8"?>
<!-- Generator: Adobe Illustrator 21.1.0, SVG Export Plug-In . SVG Version: 6.00 Build 0)  -->
<svg version="1.1" id="Layer_1" xmlns="http://www.w3.org/2000/svg" xmlns:xlink="http://www.w3.org/1999/xlink" x="0px" y="0px"
	 viewBox="0 0 200 200" style="enable-background:new 0 0 200 200;" xml:space="preserve">
<style type="text/css">
	.st0{clip-path:url(#SVGID_2_);}
	.st1{clip-path:url(#SVGID_4_);fill:#F05352;}
	.st2{clip-path:url(#SVGID_6_);}
	.st3{clip-path:url(#SVGID_8_);fill:#F05352;}
	.st4{clip-path:url(#SVGID_10_);}
	.st5{clip-path:url(#SVGID_12_);fill:#F05352;}
	.st6{clip-path:url(#SVGID_14_);}
	.st7{clip-path:url(#SVGID_16_);fill:#F05352;}
	.st8{clip-path:url(#SVGID_18_);}
	.st9{clip-path:url(#SVGID_20_);fill:#F05352;}
	.st10{clip-path:url(#SVGID_22_);}
	.st11{clip-path:url(#SVGID_24_);fill:#F05352;}
	.st12{clip-path:url(#SVGID_26_);}
	.st13{clip-path:url(#SVGID_28_);fill:#F05352;}
	.st14{clip-path:url(#SVGID_30_);}
	.st15{clip-path:url(#SVGID_32_);fill:#F05352;}
	.st16{clip-path:url(#SVGID_34_);}
	.st17{clip-path:url(#SVGID_36_);fill:#F05352;}
</style>
<g>
	<g>
		<defs>
			<path id="SVGID_1_" d="M61.2,161.4c1.4-0.4,2.9,0.5,3.3,2.1l5.8,21.6c0.4,1.5-0.4,3.1-1.8,3.4l-20.3,5.4
				c-1.4,0.4-2.9-0.5-3.3-2.1l-5.8-21.6c-0.4-1.5,0.4-3.1,1.8-3.4L61.2,161.4z"/>
		</defs>
		<clipPath id="SVGID_2_">
			<use xlink:href="#SVGID_1_"  style="overflow:visible;"/>
		</clipPath>
		<g class="st0">
			<defs>
				<rect id="SVGID_3_" x="-4928.4" y="-3628" width="7947.8" height="5000.5"/>
			</defs>
			<clipPath id="SVGID_4_">
				<use xlink:href="#SVGID_3_"  style="overflow:visible;"/>
			</clipPath>
			
				<rect x="13.9" y="136" transform="matrix(0.9659 -0.2588 0.2588 0.9659 -44.1148 20.2143)" class="st1" width="81.6" height="83.2"/>
		</g>
	</g>
	<g>
		<defs>
			<path id="SVGID_5_" d="M44.1,97.6c1.4-0.4,2.9,0.5,3.3,2.1l5.8,21.6c0.4,1.5-0.4,3.1-1.8,3.4l-20.3,5.4c-1.4,0.4-2.9-0.5-3.3-2.1
				L22,106.5c-0.4-1.5,0.4-3.1,1.8-3.4L44.1,97.6z"/>
		</defs>
		<clipPath id="SVGID_6_">
			<use xlink:href="#SVGID_5_"  style="overflow:visible;"/>
		</clipPath>
		<g class="st2">
			<defs>
				<rect id="SVGID_7_" x="-4928.4" y="-3628" width="7947.8" height="5000.5"/>
			</defs>
			<clipPath id="SVGID_8_">
				<use xlink:href="#SVGID_7_"  style="overflow:visible;"/>
			</clipPath>
			
				<rect x="-3.2" y="72.2" transform="matrix(0.9659 -0.2588 0.2588 0.9659 -28.1884 13.6174)" class="st3" width="81.6" height="83.2"/>
		</g>
	</g>
	<g>
		<defs>
			<path id="SVGID_9_" d="M27.1,33.8c1.4-0.4,2.9,0.5,3.3,2.1l5.8,21.6c0.4,1.5-0.4,3.1-1.8,3.4L14,66.3c-1.4,0.4-2.9-0.5-3.3-2.1
				L4.9,42.7c-0.4-1.5,0.4-3.1,1.8-3.4L27.1,33.8z"/>
		</defs>
		<clipPath id="SVGID_10_">
			<use xlink:href="#SVGID_9_"  style="overflow:visible;"/>
		</clipPath>
		<g class="st4">
			<defs>
				<rect id="SVGID_11_" x="-4928.4" y="-3628" width="7947.8" height="5000.5"/>
			</defs>
			<clipPath id="SVGID_12_">
				<use xlink:href="#SVGID_11_"  style="overflow:visible;"/>
			</clipPath>
			
				<rect x="-20.2" y="8.5" transform="matrix(0.9659 -0.2588 0.2588 0.9659 -12.2621 7.0205)" class="st5" width="81.6" height="83.2"/>
		</g>
	</g>
	<g>
		<defs>
			<path id="SVGID_13_" d="M116.6,146.6c1.4-0.4,2.9,0.5,3.3,2.1l5.8,21.6c0.4,1.5-0.4,3.1-1.8,3.4l-20.3,5.4
				c-1.4,0.4-2.9-0.5-3.3-2.1l-5.8-21.6c-0.4-1.5,0.4-3.1,1.8-3.4L116.6,146.6z"/>
		</defs>
		<clipPath id="SVGID_14_">
			<use xlink:href="#SVGID_13_"  style="overflow:visible;"/>
		</clipPath>
		<g class="st6">
			<defs>
				<rect id="SVGID_15_" x="-4928.4" y="-3628" width="7947.8" height="5000.5"/>
			</defs>
			<clipPath id="SVGID_16_">
				<use xlink:href="#SVGID_15_"  style="overflow:visible;"/>
			</clipPath>
			
				<rect x="69.3" y="121.2" transform="matrix(0.9659 -0.2588 0.2588 0.9659 -38.3905 34.0337)" class="st7" width="81.6" height="83.2"/>
		</g>
	</g>
	<g>
		<defs>
			<path id="SVGID_17_" d="M99.5,82.8c1.4-0.4,2.9,0.5,3.3,2.1l5.8,21.6c0.4,1.5-0.4,3.1-1.8,3.4l-20.3,5.4
				c-1.4,0.4-2.9-0.5-3.3-2.1l-5.8-21.6c-0.4-1.5,0.4-3.1,1.8-3.4L99.5,82.8z"/>
		</defs>
		<clipPath id="SVGID_18_">
			<use xlink:href="#SVGID_17_"  style="overflow:visible;"/>
		</clipPath>
		<g class="st8">
			<defs>
				<rect id="SVGID_19_" x="-4928.4" y="-3628" width="7947.8" height="5000.5"/>
			</defs>
			<clipPath id="SVGID_20_">
				<use xlink:href="#SVGID_19_"  style="overflow:visible;"/>
			</clipPath>
			
				<rect x="52.2" y="57.4" transform="matrix(0.9659 -0.2588 0.2588 0.9659 -22.4642 27.4369)" class="st9" width="81.6" height="83.2"/>
		</g>
	</g>
	<g>
		<defs>
			<path id="SVGID_21_" d="M82.4,19c1.4-0.4,2.9,0.5,3.3,2.1l5.8,21.6c0.4,1.5-0.4,3.1-1.8,3.4l-20.3,5.4c-1.4,0.4-2.9-0.5-3.3-2.1
				l-5.8-21.6c-0.4-1.5,0.4-3.1,1.8-3.4L82.4,19z"/>
		</defs>
		<clipPath id="SVGID_22_">
			<use xlink:href="#SVGID_21_"  style="overflow:visible;"/>
		</clipPath>
		<g class="st10">
			<defs>
				<rect id="SVGID_23_" x="-4928.4" y="-3628" width="7947.8" height="5000.5"/>
			</defs>
			<clipPath id="SVGID_24_">
				<use xlink:href="#SVGID_23_"  style="overflow:visible;"/>
			</clipPath>
			
				<rect x="35.1" y="-6.4" transform="matrix(0.9659 -0.2588 0.2588 0.9659 -6.5379 20.84)" class="st11" width="81.6" height="83.2"/>
		</g>
	</g>
	<g>
		<defs>
			<path id="SVGID_25_" d="M171.9,131.7c1.4-0.4,2.9,0.5,3.3,2.1l5.8,21.6c0.4,1.5-0.4,3.1-1.8,3.4l-20.3,5.4
				c-1.4,0.4-2.9-0.5-3.3-2.1l-5.8-21.6c-0.4-1.5,0.4-3.1,1.8-3.4L171.9,131.7z"/>
		</defs>
		<clipPath id="SVGID_26_">
			<use xlink:href="#SVGID_25_"  style="overflow:visible;"/>
		</clipPath>
		<g class="st12">
			<defs>
				<rect id="SVGID_27_" x="-4928.4" y="-3628" width="7947.8" height="5000.5"/>
			</defs>
			<clipPath id="SVGID_28_">
				<use xlink:href="#SVGID_27_"  style="overflow:visible;"/>
			</clipPath>
			
				<rect x="124.6" y="106.4" transform="matrix(0.9659 -0.2588 0.2588 0.9659 -32.6663 47.8533)" class="st13" width="81.6" height="83.2"/>
		</g>
	</g>
	<g>
		<defs>
			<path id="SVGID_29_" d="M154.8,67.9c1.4-0.4,2.9,0.5,3.3,2.1l5.8,21.6c0.4,1.5-0.4,3.1-1.8,3.4l-20.3,5.4
				c-1.4,0.4-2.9-0.5-3.3-2.1l-5.8-21.6c-0.4-1.5,0.4-3.1,1.8-3.4L154.8,67.9z"/>
		</defs>
		<clipPath id="SVGID_30_">
			<use xlink:href="#SVGID_29_"  style="overflow:visible;"/>
		</clipPath>
		<g class="st14">
			<defs>
				<rect id="SVGID_31_" x="-4928.4" y="-3628" width="7947.8" height="5000.5"/>
			</defs>
			<clipPath id="SVGID_32_">
				<use xlink:href="#SVGID_31_"  style="overflow:visible;"/>
			</clipPath>
			
				<rect x="107.5" y="42.6" transform="matrix(0.9659 -0.2588 0.2588 0.9659 -16.7399 41.2564)" class="st15" width="81.6" height="83.2"/>
		</g>
	</g>
	<g>
		<defs>
			<path id="SVGID_33_" d="M137.7,4.2c1.4-0.4,2.9,0.5,3.3,2.1l5.8,21.6c0.4,1.5-0.4,3.1-1.8,3.4l-20.3,5.4
				c-1.4,0.4-2.9-0.5-3.3-2.1L115.6,13c-0.4-1.5,0.4-3.1,1.8-3.4L137.7,4.2z"/>
		</defs>
		<clipPath id="SVGID_34_">
			<use xlink:href="#SVGID_33_"  style="overflow:visible;"/>
		</clipPath>
		<g class="st16">
			<defs>
				<rect id="SVGID_35_" x="-4928.4" y="-3628" width="7947.8" height="5000.5"/>
			</defs>
			<clipPath id="SVGID_36_">
				<use xlink:href="#SVGID_35_"  style="overflow:visible;"/>
			</clipPath>
			
				<rect x="90.4" y="-21.2" transform="matrix(0.9659 -0.2588 0.2588 0.9659 -0.8136 34.6595)" class="st17" width="81.6" height="83.2"/>
		</g>
	</g>
</g>
</svg>
