<svg xmlns="http://www.w3.org/2000/svg" xmlns:xlink="http://www.w3.org/1999/xlink" fill="none" viewBox="0 0 1920 1080">
<defs>
   <path id="bee-path" d="M1967 51.5C1942 49.5 1776 -61 1516.5 51.5C1308.9 141.5 1212.33 339.667 1190 427.5C1165.83 522.333 1067.1 699 865.5 647C663.9 595 205.167 616.333 1 633.5"/>
</defs>
  <use xlink:href="#bee-path" stroke="#000" stroke-width="4" stroke-dasharray="20"/>
  <g id="bee" style="offset-anchor='200% 300%'">
    <path fill="#000" d="M43 14l10-2 8 47-11 2z"/>
    <ellipse fill="#000" rx="9.1" ry="9.9" transform="matrix(.95877 -.28418 .23542 .9719 48 13)"/>
    <rect width="452" height="269" y="22" fill="#F6D374" rx="134.5"/>
    <path fill="#000" d="M203 22h46v269h-46zM113 22h45v269h-45zM294 22h45v269h-45z"/>
    <rect width="163.3" height="98.7" fill="#fff" rx="49.4" transform="matrix(.9815 -.19144 .15741 .98753 179 91)"/>
    <ellipse cx="57" cy="124" fill="#000" rx="9" ry="10"/>
    <path fill="#000" d="M71 11l11 3-12 46-10-3z"/>
    <ellipse fill="#000" rx="9.1" ry="10" transform="matrix(.9815 .19144 -.15741 .98753 76 12)"/>
    <animateMotion dur="20s" repeatCount="infinite" >
      <mpath xlink:href="#bee-path" />
    </animateMotion>
  </g>

    </svg>