<svg xmlns="http://www.w3.org/2000/svg" viewBox="0 -50 415.57 640.67"><defs><style>.prefix__cls-1{fill:#b9df9b}.prefix__cls-2{fill:#a1d579}.prefix__cls-3{fill:#98c865}</style></defs><g id="prefix__Layer_1-2" data-name="Layer 1" transform="translate(0 50)"><path id="prefix__Path_57" d="M202.31 479.55s-51.87-66.86-108.74-133.2S-2.19 209.84.1 151.22 60.51 3.53 188.36.15s231 49.94 227.11 151.07-85.82 195.13-85.82 195.13-93.59 118.38-103.22 133.2z" class="prefix__cls-1" data-name="Path 57"/><path d="M172.57 442c18.18 22.7 29.74 37.6 29.74 37.6h24.12c3-4.64 14.27-19.45 28.31-37.6z" class="prefix__cls-2"/><path id="prefix__Path_60" d="M203.27 479.55l-4.2 30h1.39l4.15-30z" class="prefix__cls-3" data-name="Path 60"/><path id="prefix__Path_61" d="M225.71 479.55l4.55 30h-1.39l-4.5-30z" class="prefix__cls-3" data-name="Path 61"/><path id="prefix__Rectangle_12" d="M205.19 508.67h26v32h-26z" class="prefix__cls-1" data-name="Rectangle 12"/><path id="prefix__Rectangle_13" d="M198.19 508.67h10v32h-10z" class="prefix__cls-2" data-name="Rectangle 13"/><path d="M97.88 351.4l1.69 2 1.6 1.88 1.15 1.35 6 7 1.66 2 .9 1.06c25.41 30.19 48.77 59 65.51 80C167 431.75 105.48 332 90.2 272c-16.55-64.94-30.83-134-6-180.49 18.8-35.17 43.72-71.05 26.24-76.61-.85.33-1.69.66-2.52 1l-1.38.55-2.44 1-1.32.57-2.47 1.08c-1.9.85-3.76 1.73-5.61 2.63l-1.14.56c-.78.38-1.55.78-2.32 1.17l-1.2.62-2.32 1.22-.8.44q-2.38 1.26-4.67 2.64l-.8.46c-.74.44-1.48.88-2.21 1.33l-1.09.66c-.72.45-1.44.89-2.14 1.35l-.94.6c-2.37 1.53-4.68 3.09-6.93 4.7l-1 .7-2 1.44-1 .73a148.96 148.96 0 00-6.31 5l-.9.74-1.78 1.51-.95.82c-.58.51-1.17 1-1.74 1.54l-.66.6c-1.13 1-2.24 2.06-3.34 3.1l-.81.77-1.5 1.57-.92.92c-.52.52-1 1-1.53 1.55l-.85.89Q41.4 60.83 40 62.38c-.23.25-.46.49-.69.75-.46.51-.92 1-1.37 1.55-.31.34-.61.69-.91 1l-1.31 1.53-.9 1.07c-.42.52-.85 1-1.27 1.54a1 1 0 01-.13.16q-1.42 1.86-2.85 3.68l-.89 1.17c-.37.5-.74 1-1.1 1.49l-.89 1.23L26.64 79l-1 1.44-1.55 2.31c-.31.46-.62.92-.92 1.39l-.9 1.41c-.29.46-.58.91-.86 1.37s-.57.92-.85 1.39-.62 1-.93 1.55l-1.08 1.85-1.06 1.87-.71 1.3-.78 1.53-.68 1.3c-.29.55-.56 1.09-.84 1.64l-.57 1.14c-.43.87-.84 1.73-1.25 2.6-.18.37-.34.74-.51 1.11l-.78 1.71-.52 1.2c-.25.57-.49 1.14-.73 1.72-.16.36-.31.72-.46 1.09-.36.88-.71 1.76-1.06 2.65l-.3.79c-.25.67-.5 1.34-.74 2l-.39 1.07c-.21.6-.42 1.2-.62 1.8-.11.34-.23.68-.34 1-.26.77-.5 1.54-.74 2.3-.05.17-.11.34-.16.51-.27.88-.53 1.76-.78 2.63-.08.31-.17.62-.25.93-.18.62-.34 1.24-.5 1.86-.09.32-.17.65-.25 1-.18.69-.34 1.38-.5 2.07-.06.21-.11.43-.16.65-.2.89-.39 1.77-.57 2.65-.06.25-.1.5-.15.75-.13.65-.26 1.3-.37 2-.06.3-.11.6-.16.9-.11.64-.22 1.28-.32 1.93 0 .24-.08.49-.11.73-.19.86-.28 1.7-.39 2.56l-.06.49c-.08.7-.16 1.4-.23 2.1 0 .28 0 .55-.07.83Q.35 147 .29 148l-.06.77c-.05.84-.1 1.67-.13 2.5C-2.19 209.84 36.7 280 93.57 346.35l3 3.56z" class="prefix__cls-2"/><animateTransform fill="freeze" attributeName="transform" attributeType="XML" begin="0.85s" calcMode="spline" dur="20s" keySplines=".42,0,.58,1; .42,0,.58,1" repeatCount="indefinite" type="translate" values="0 50;0 -50; 0 50"/></g></svg>