<svg xmlns="http://www.w3.org/2000/svg" viewBox="0 -50 415.6 640.7">
  <defs>
    <style>
      .cls-1{fill:#f9aba5}.cls-2{fill:#fc8377}.cls-3{fill:#fe735f}
    </style>
  </defs>
<g id="redBalloon" data-name="redBalloon" transform="translate(0,-50)">
    <path id="Path_57" d="M202.3 479.6s-51.9-67-108.7-133.3S-2.2 209.9 0 151.4 60.5 3.4 188.4 0s231 50 227 151.1-85.7 195.2-85.7 195.2S236 464.7 226.4 479.6z" class="cls-1" data-name="Path 57"/>
    <path d="M172.6 442c18.1 22.7 29.7 37.6 29.7 37.6h24.1c3-4.6 14.3-19.4 28.3-37.6z" class="cls-2"/>
    <path id="Path_60" d="M203.3 479.6l-4.2 30h1.4l4.1-30z" class="cls-3" data-name="Path 60"/>
    <path id="Path_61" d="M225.7 479.6l4.6 30h-1.4l-4.5-30z" class="cls-3" data-name="Path 61"/>
    <path id="Rectangle_12" d="M205.2 508.7h26v32h-26z" class="cls-1" data-name="Rectangle 12"/>
    <path id="Rectangle_13" d="M198.2 508.7h10v32h-10z" class="cls-2" data-name="Rectangle 13"/>
    <path d="M97.9 351.4l1.7 2 1.6 1.9 1.1 1.3 6 7 1.7 2 .9 1c25.4 30.3 48.7 59 65.5 80-9.4-14.9-71-114.6-86.2-174.6-16.6-65-30.8-134-6-180.5 18.8-35.2 43.7-71 26.2-76.6l-2.5 1-1.4.6-2.4 1-1.3.5-2.5 1.1-5.6 2.6-1.1.6-2.4 1.2-1.2.6-2.3 1.2-.8.4-4.7 2.7-.8.4-2.2 1.4-1 .6-2.2 1.4-1 .6a175 175 0 00-6.9 4.7l-1 .7-2 1.4-1 .8a149 149 0 00-6.3 5l-.9.7-1.7 1.5-1 .8-1.7 1.6-.7.6-3.3 3-.8.8L46 56l-.9 1-1.5 1.5-.9.9-2.8 3-.7.7-1.4 1.6-.9 1-1.3 1.5-.9 1-1.2 1.6a1 1 0 01-.2.2l-2.8 3.7-1 1.1-1 1.5-1 1.2-1 1.5-1 1.4-1.5 2.3-1 1.4-.8 1.5-.9 1.3-.8 1.4-1 1.6-1 1.8-1.1 1.9-.7 1.3-.8 1.5-.7 1.3-.8 1.6-.6 1.2-1.2 2.6-.5 1.1-.8 1.7-.5 1.2a88.8 88.8 0 00-2.3 5.5l-.3.8-.7 2-.4 1-.7 1.8c0 .4-.2.7-.3 1l-.7 2.3-.2.5-.8 2.7-.2.9a64 64 0 00-1.3 5l-.1.6-.6 2.6-.2.8-.3 2-.2.9-.3 2-.1.6-.4 2.6v.5l-.3 2v1q-.2.8-.2 1.8v.8l-.2 2.5c-2.3 58.5 36.6 128.7 93.5 195l3 3.6z" class="cls-2"/>
    <animateTransform attributeName="transform"
                          attributeType="XML"
                          type="translate"
                          values="0 -50;0 50; 0 -50"
                          dur="15s"
                          begin="1s" 
                          fill="freeze"
                          repeatCount="indefinite"
                          keySplines=".42,0,.58,1; .42,0,.58,1"
                          calcMode="spline"
                          />
</g>
</svg>