<svg xmlns="http://www.w3.org/2000/svg" xmlns:xlink="http://www.w3.org/1999/xlink" id="Layer_1" x="0" y="0" version="1.1" viewBox="0 0 967 199.9" xml:space="preserve" style="enable-background:new 0 0 967 199.9"><style type="text/css">.st0{fill:#0098ff}.st1{fill:#bcbcbc}.st2,.st3{fill:none;stroke-width:4;stroke-miterlimit:10}.st2{display:none;stroke:#bcbcbc}.st3{stroke:#fff;stroke-linecap:round}</style><path id="Ellipse_8_2_" d="M0,100C0,44.8,216.5,0,483.5,0S967,44.8,967,100" class="st0"/><path d="M718.3,70.5l-11.7-1.8l-0.2,0c-2.4-0.4-4.1-2.4-4.4-4.8c-0.5-5.6-3.8-11.8-9.5-16.4c-9.4-7.7-21.7-8.3-27.4-1.4	c-5.7,6.9-2.8,18.6,6.7,26.3c5.2,4.2,11.2,6.3,16.6,6.2c2.4-0.1,4.5,1.5,5.1,3.8l0.3,0.9l3.2,11.4c0.7,2.7,4.2,3,6.4,0.6l8.2-9.2	l8.2-9.2C721.8,74.3,721.1,70.9,718.3,70.5z" class="st1"/><path id="Ellipse_8_1_" d="M967,99.9c0,55.2-216.5,100-483.5,100S0,155.1,0,99.9" class="st0"/><ellipse id="animationPath" cx="587.5" cy="165.7" class="st2" rx="151.6" ry="141.8"/><path d="M731.3,99.9c0,0,1.5-24,13.5-26.4" class="st3"/><path d="M688,99.9c0,0,1.2-18.2-16.4-13.2" class="st3"/><path d="M718.7,99.9c0,0-4.4-15.5,4.4-19" class="st3"/><path d="M706.1,99.9c0,0,1.2-12.6-4.7-13.2" class="st3"/><ellipse cx="709.3" cy="101.3" class="st3" rx="26.4" ry="1.3"/></svg>