<svg xmlns="http://www.w3.org/2000/svg" xmlns:xlink="http://www.w3.org/1999/xlink" id="Layer_1" x="0" y="0" version="1.1" viewBox="0 0 1440 320" xml:space="preserve" style="enable-background:new 0 0 1440 320"><style type="text/css">.st0{display:none}.st0,.st1{fill:#e6c8bc}</style><path d="M0,256l48-32c48-32,144-96,240-90.7C384,139,480,213,576,240s192,5,288-42.7C960,149,1056,75,1152,80	s192,91,240,133.3l48,42.7v64h-48c-48,0-144,0-240,0s-192,0-288,0s-192,0-288,0s-192,0-288,0s-192,0-240,0H0V256z" class="st0"/><path d="M1440,184.5V320h-48c-48,0-144,0-240,0s-192,0-288,0s-192,0-288,0s-192,0-288,0s-192,0-240,0H0V128l48,5.3	c48,5.7,144,15.7,240,48C384,213,480,267,576,288s192,11,288-37.3c96-47.7,191.9-111.5,287.8-118.2	C1288.7,123,1373.3,146,1440,184.5z" class="st1"/></svg>