<svg xmlns="http://www.w3.org/2000/svg" viewBox="0 0 673.43 883.49"><defs><style>.cls-1{fill:#306e6e;}.cls-2{fill:#e5d7d1;stroke:#707070;}</style></defs><g id="Layer_2" data-name="Layer 2"><g id="Layer_1-2" data-name="Layer 1"><path id="Path_63" data-name="Path 63" class="cls-1" d="M494.54,749.87l7-26.22-340.63,4-4.31,16Z"/><path id="Path_64" data-name="Path 64" class="cls-1" d="M145.58,734.67,281.44,607.11s-64.81,23.94-94.13,57.06S145.58,734.67,145.58,734.67Z"/><path id="Path_65" data-name="Path 65" class="cls-1" d="M144.86,734.8,85.44,600.23S79.2,670.49,97.26,698.6,144.86,734.8,144.86,734.8Z"/><path id="Path_66" data-name="Path 66" class="cls-1" d="M145.57,734.26,0,844.16s64.58-14.3,96.72-43.79S145.57,734.26,145.57,734.26Z"/><path id="Path_67" data-name="Path 67" class="cls-1" d="M145.31,734.93l38.57,148.56s15.18-71.56,1.76-103.51S145.31,734.93,145.31,734.93Z"/><ellipse class="cls-1" cx="143.51" cy="735.38" rx="22.86" ry="16.62" transform="translate(-538.2 424.49) rotate(-54.44)"/><path id="Path_63-2" data-name="Path 63" class="cls-2" d="M468.8,751.88h36.33L497.31,208h-22.2Z"/><path id="Path_64-2" data-name="Path 64" class="cls-2" d="M487.47,186.38,664.93,349.1s-33.58-93.51-79.61-126.21S487.47,186.38,487.47,186.38Z"/><path id="Path_65-2" data-name="Path 65" class="cls-2" d="M487.28,185.28,673.12,32.19S575.84,52.43,537.05,93.46,487.28,185.28,487.28,185.28Z"/><path id="Path_66-2" data-name="Path 66" class="cls-2" d="M488,186.19,334.94.32s20.24,97.28,61.27,136.07S488,186.19,488,186.19Z"/><path id="Path_67-2" data-name="Path 67" class="cls-2" d="M487.1,186.06,281.76,311.79s99.15-6.5,143.27-41.73S487.1,186.06,487.1,186.06Z"/><circle class="cls-2" cx="486.47" cy="183.38" r="31.2"/></g></g></svg>