<svg xmlns="http://www.w3.org/2000/svg" viewBox="0 0 673.42 830.2"><defs><style>.cls-1{fill:#306e6e;}.cls-2{fill:#e5d7d1;stroke:#707070;}</style></defs><g id="Layer_2" data-name="Layer 2"><g id="Layer_1-2" data-name="Layer 1"><path id="Path_63" data-name="Path 63" class="cls-1" d="M494.5,748.73l7-20-340.6,3L156.6,744Z"/><path id="Path_64" data-name="Path 64" class="cls-1" d="M145.6,737.41l135.8-79.57s-64.8,14.9-94.1,35.61S145.6,737.41,145.6,737.41Z"/><path id="Path_65" data-name="Path 65" class="cls-1" d="M144.9,737.47,85.4,653.54s-6.2,43.84,11.8,61.36S144.9,737.47,144.9,737.47Z"/><path id="Path_66" data-name="Path 66" class="cls-1" d="M145.6,737.16,0,805.69s64.6-8.92,96.7-27.31S145.6,737.16,145.6,737.16Z"/><path id="Path_67" data-name="Path 67" class="cls-1" d="M145.3,737.53l38.6,92.67s15.2-44.65,1.8-64.54S145.3,737.53,145.3,737.53Z"/><ellipse class="cls-1" cx="143.47" cy="737.84" rx="19.62" ry="12.08" transform="translate(-231.91 86.62) rotate(-18.96)"/><path id="Path_63-2" data-name="Path 63" class="cls-2" d="M468.8,751.92h36.3L497.3,208H475.1Z"/><path id="Path_64-2" data-name="Path 64" class="cls-2" d="M487.5,186.42,665,349.12s-33.6-93.5-79.6-126.2S487.5,186.42,487.5,186.42Z"/><path id="Path_65-2" data-name="Path 65" class="cls-2" d="M487.3,185.32,673.1,32.22S575.8,52.42,537,93.52,487.3,185.32,487.3,185.32Z"/><path id="Path_66-2" data-name="Path 66" class="cls-2" d="M488,186.22,334.9.32s20.2,97.3,61.3,136.1S488,186.22,488,186.22Z"/><path id="Path_67-2" data-name="Path 67" class="cls-2" d="M487.1,186.12,281.7,311.82s99.2-6.5,143.3-41.7S487.1,186.12,487.1,186.12Z"/><circle class="cls-2" cx="486.5" cy="183.42" r="31.2"/></g></g></svg>