<svg xmlns="http://www.w3.org/2000/svg"  xmlns:xlink="http://www.w3.org/1999/xlink" viewBox="0 0 408 295">
    <defs>
        <style>.cls-1{fill:#c4b7b1;}.cls-2{fill:#e6c8bc;}</style>
        


<g transform="translate(-4323 -7747)" id="worm">
    <path fill="#f9aba5" stroke="#fe735f" stroke-width="3" d="M4202 7951c15 21 16 35 46 60s66 25 102 13 75-60 78-110-19-106-56-144-72-12-72-12-32 22-10 74 30 45 42 82-3 52-26 51-36-32-50-59-33-46-66-43-43 69-50 88-11 32-31 29-47-44-69-35-18 46 0 66 64 37 100 26 50-40 53-54l9-32z"/>
    <path fill="none" stroke="#fe735f" stroke-width="3" d="M4337 7937s47 35 86 0M4332 7953s47 35 86 0M4314 7964s-18 46 9 66M4302 7964s-23 38 0 67M4285 7954s-59-1-41 53M4280 7947s-63-3-46 51M4270 7932s-64-10-53 43M4231 7873s-65 2-27 81M4190 7863s-39 24 10 96M4148 7922s6 53 50 40M4141 7950s12 39 54 27M4124 7979s-18 46 30 52M4114 7981s-26 44 14 58M4078 7960s-47 12-29 58"/>
    <circle cx="20" cy="20" r="20" fill="#f7f7f7" transform="translate(4353 7798)"/>
    <circle cx="20" cy="20" r="20" fill="#f7f7f7" transform="translate(4308 7802)"/>
    <circle cx="12" cy="12" r="12" transform="translate(4367 7806)">
        <animateTransform attributeName="transform"
                          attributeType="XML"
                          type="translate"
                          values="4367 7806;4357 7806; 4367 7806"
                          dur="6s"
                          begin="0" 
                          fill="freeze"
                          repeatCount="indefinite"
                          keySplines=".42,0,.58,1; .42,0,.58,1"
                          calcMode="spline"
                          />
    </circle>

    <circle cx="12" cy="12" r="12" transform="translate(4322 7810)">
     <animateTransform attributeName="transform"
                          attributeType="XML"
                          type="translate"
                          values="4322 7810;4312 7810; 4322 7810"
                          dur="6s"
                          begin="0" 
                          fill="freeze"
                          repeatCount="indefinite"
                          keySplines=".42,0,.58,1; .42,0,.58,1"
                          calcMode="spline"
                          />
                        
    </circle>


    <animateTransform attributeName="transform"
                          attributeType="XML"
                          type="translate"
                          values="-4323 -7747;-4023 -7747;-4323 -7747;"
                          dur="18s"
                          begin="0" 
                          fill="freeze"
                          repeatCount="indefinite"
                          keySplines=".42,0,.58,1; .42,0,.58,1"
                          calcMode="spline"
                          />
  </g>
  

  <clipPath id="myClippy">
    
       <!-- <circle cx="50" cy="50" r="35">
         <animate dur="1s" attributeName="r" values="60;10;56;60" repeatCount="indefinite"/>
       </circle> -->
       <!-- <g transform="translate(-10 0)" > -->
        <ellipse id="Ellipse_24" data-name="Ellipse 24" class="cls-1" cx="90.66" cy="175.87" rx="70" ry="181.5"/>
        <rect x="80" y="-200" width="1000" height="1000"  fill="red" />

    <!-- </g> -->
  </clipPath>
    <path id="heart" d="M10,30 A20,20,0,0,1,50,30 A20,20,0,0,1,90,30 Q90,60,50,90 Q10,60,10,30 Z" />


    </defs>
    
   
            <ellipse id="Ellipse_24" data-name="Ellipse 24" class="cls-1" cx="90.66" cy="175.87" rx="70" ry="181.5"/>
  <!-- <circle id="circle" cx="175" cy="40" r="190" fill="green" stroke="green" stroke-width="4" transform="" /> -->

 
  <!-- <use clip-path="url(#myClip)" xlink:href="#circle" /> -->
  <!-- <use clip-path="url(#myClippy)" xlink:href="#heart" fill="red">  -->

  <use clip-path="url(#myClippy)" xlink:href="#worm" />
</svg>



