<svg xmlns="http://www.w3.org/2000/svg" width="648" height="554" viewBox="0 0 648 554" version="1.1">
	<path d="M 326.022 1.895 C 314.791 5.897, 306.940 18.404, 308.324 30.089 C 309.047 36.195, 309.424 36.912, 337.409 85.500 C 363.548 130.883, 365.645 133.678, 375.764 136.620 C 395.076 142.234, 414.068 125.031, 410.015 105.596 C 409.245 101.904, 401.956 88.389, 383.554 56.535 C 369.586 32.354, 356.974 11.088, 355.529 9.277 C 349.361 1.546, 336.225 -1.740, 326.022 1.895 M 300.500 126.431 C 294.735 128.301, 196.140 185.538, 192.162 189.323 C 186.371 194.835, 184.535 199.452, 184.535 208.500 C 184.535 214.762, 185.001 217.379, 186.683 220.545 C 189.934 226.666, 196.959 232.613, 203.087 234.433 C 209.535 236.348, 212.381 236.392, 218.121 234.664 C 222.825 233.248, 322.353 176.257, 327.106 172.257 C 328.642 170.965, 331.156 167.341, 332.694 164.204 C 343.056 143.068, 322.730 119.220, 300.500 126.431 M 414.500 165.066 C 410.233 166.325, 310.294 224.160, 305.632 228.069 C 294.230 237.626, 294.089 257.847, 305.355 267.739 C 307.375 269.512, 310.463 271.705, 312.218 272.613 C 316.517 274.836, 326.748 275.568, 331.518 273.994 C 333.611 273.303, 358.314 259.500, 386.412 243.321 C 441.441 211.635, 445.188 208.991, 447.897 199.949 C 451.086 189.306, 448.087 177.887, 440.305 171.037 C 433.262 164.838, 423.179 162.505, 414.500 165.066 M 464.994 238.874 C 451.382 243.340, 443.024 257.222, 445.987 270.444 C 447.638 277.807, 492.928 356.080, 499.018 362.094 C 507.881 370.847, 521.588 372.020, 532.276 364.941 C 540.685 359.371, 544.552 350.962, 543.765 339.957 C 543.286 333.260, 543.060 332.812, 519.488 291.848 C 506.402 269.107, 494.077 248.774, 492.098 246.665 C 486.945 241.173, 481.674 238.759, 474 238.376 C 470.425 238.198, 466.372 238.422, 464.994 238.874 M 243.484 264.463 C 240.485 265.286, 211.529 281.367, 171.484 304.451 C 97.991 346.814, 97.456 347.184, 94.380 357.764 C 91.617 367.268, 94.597 378.501, 101.657 385.196 C 107.833 391.054, 118.472 393.854, 126.500 391.735 C 132.847 390.060, 262.976 315.182, 268.335 310.121 C 273.449 305.292, 276.112 299.852, 276.737 292.961 C 278.389 274.747, 260.835 259.703, 243.484 264.463 M 387.938 283.099 C 385.979 283.655, 300.704 332.378, 198.438 391.373 C 60.152 471.147, 11.319 499.789, 7.892 503.133 C 2.016 508.867, -0.481 515.758, 0.279 524.142 C 2.003 543.148, 22.280 554.527, 39.122 545.939 C 53.443 538.636, 411.105 331.278, 413.872 328.674 C 423.688 319.437, 424.711 302.384, 416.078 291.910 C 409.902 284.418, 397.251 280.457, 387.938 283.099 M 429.463 359.591 C 416.391 364.233, 408.759 380.681, 413.730 393.500 C 416.013 399.387, 496.221 538.514, 499.123 541.619 C 502.353 545.077, 510.579 549.044, 515.797 549.662 C 526.359 550.913, 538.199 544.412, 543.195 534.617 C 545.790 529.530, 546.634 520.470, 544.985 515.396 C 543.140 509.718, 462.411 370.115, 458.667 366.128 C 451.750 358.761, 439.514 356.023, 429.463 359.591 M 557.500 393.080 C 551.218 394.264, 548.420 395.627, 543.895 399.705 C 535.944 406.874, 532.858 418.760, 536.386 428.624 C 537.149 430.756, 551.254 455.900, 567.732 484.500 C 588.313 520.223, 599.082 537.935, 602.137 541.085 C 618.656 558.119, 648 545.890, 648 521.971 C 648 519.401, 647.468 515.769, 646.819 513.899 C 644.859 508.259, 584.121 403.745, 580.811 400.316 C 575.392 394.704, 565.376 391.595, 557.500 393.080 M 354.966 405.290 C 348.679 407.648, 182.610 504.022, 179.162 507.313 C 173.367 512.847, 171.535 517.455, 171.535 526.500 C 171.535 532.762, 172.001 535.379, 173.683 538.545 C 176.934 544.666, 183.959 550.613, 190.087 552.433 C 196.528 554.346, 199.382 554.391, 205.091 552.673 C 212.112 550.559, 377.759 454.563, 382.745 449.718 C 385.080 447.450, 387.777 443.548, 388.740 441.047 C 390.882 435.481, 390.886 425.864, 388.749 420.860 C 386.609 415.851, 380.451 409.271, 375.568 406.778 C 370.515 404.197, 359.921 403.432, 354.966 405.290 M 399.296 482.953 C 391.930 486.297, 361.610 504.145, 358.661 506.873 C 353.487 511.659, 350.766 517.533, 350.226 525.080 C 349.775 531.384, 350.019 532.597, 352.925 538.500 C 356.480 545.721, 360.290 549.163, 367.952 552.074 C 373.786 554.291, 379.911 554.480, 385.161 552.605 C 393.041 549.790, 425.764 529.980, 429.842 525.555 C 442.470 511.856, 436.626 488.719, 418.965 482.488 C 413.120 480.425, 404.409 480.631, 399.296 482.953" stroke="none" fill="black" fill-rule="evenodd"/>
</svg>