<svg xmlns="http://www.w3.org/2000/svg" fill="none" viewBox="0 0 734 866">
  <defs/>
  <rect width="522" height="773" x="106" fill="#80D2FF" rx="100"/>
  <path fill="#0098FF" d="M581.5 672.7s18.4 1.8 25 8.5a69.6 69.6 0 0113.6 25.4c1.4 5 2.5 10.2 3.1 15.3.3 2 1.1 5.3 3.8 5.1 2.7-.2 4.5-2 3.5-7s-4-18.9-10.4-30.8c-6.4-11.9-10.9-18.9-18-23.3a26 26 0 00-21-2.9c-5.2 2-11 7.2-11 7.2l11.4 2.5z"/>
  <path fill="#0098FF" d="M609.8 745.7s-.8 6.4 3 6.8c3.8.4 4.3-3.8 4.1-7-.2-3.2-2.2-28.7-6.7-39.3-4.5-10.6-8.7-22-18.3-26.8-9.6-4.7-10.7-8.7-21-4-10.5 4.5 6.2 7.6 6.2 7.6s10.5-1.6 16.8 7.3a97.4 97.4 0 0113.5 33.5 89.1 89.1 0 012.4 22z"/>
  <path fill="#FE755F" d="M572.6 677.6s12.3-1.8 17.2.5c5 2.3 11.2 4 18.4 21.6 7.2 17.6 6.7 39.6 8 42.4 1.3 2.8 3.8 2 5.3.6 1.5-1.3 1.4-6.2.8-11.4-.6-5.2-2-24.2-8.3-36.3-6.2-12-11-20-21-24-9.9-4-19.8-.2-23.8 1.5s3.4 5.1 3.4 5.1z"/>
  <path fill="#306E6E" d="M574.6 686.2s20 8 22.2 28.5c1.3 13 1.8 26.1 1.4 39.2 0 0-1 5.8 2.7 6.1 3.7.3 4.8-2.3 4.8-7.7s0-32-2.3-40.6c-2.3-8.6-6.8-21.4-17.5-27.5-10.7-6-16.2-2.5-16.2-2.5l5 4.5z"/>
  <path fill="#4BBC79" d="M571.2 674s3.4-4.9 11-7.5a27 27 0 0119.6 1.5c4.1 2 10.1 5.5 16.3 14a72.6 72.6 0 0111.6 20.4c3 8 5.1 7 6.1 6.5 1-.4 3.7-2.3 1.7-6.7s-7.6-17-11.9-22.5c-4.3-5.5-12.8-15.8-22.5-18.9-9.7-3-16.9-3.8-24.6-.5a39.2 39.2 0 00-11.9 8l4.6 5.7z"/>
  <path fill="#AC9792" d="M359.3 806.5l9.8 53.5 30-5.2 7.4-51.8-7.7-15-29.2.1-10.3 18.4z"/>
  <path fill="#E6C8BC" d="M400.6 798.6l33.5 55.2 28.7-6.8-12-62.7-26.5-27.2-23.7 41.5z"/>
  <path fill="#AC9792" d="M478.1 779.2l12-1.3 8.1 55.7 31.3-3.6 6.8-55.8 47-6.4-10.7-20.6-59.5-6-48.4 2 13.4 36z"/>
  <path fill="#E6C8BC" d="M533.1 774.2l31.2 55.6 27.6-7-8.4-56.2-50.4 7.6z"/>
  <path fill="#FE755F" d="M501 841.2l25.1-4.3a3.3 3.3 0 002.8-3c.3-1.2.5-2.6.5-3.8l-31.3 3.6 3 7.5zM462.8 847l-.6 7.1-20.5 5s-5 1.4-6.5-2.2l-1.2-3 28.8-6.9zM377.2 865.5L392 863s6.1 0 6.7-4c.6-4 .4-4 .4-4l-29.9 5.1s.2 7 8.1 5.5z"/>
  <path fill="#0098FF" d="M351.5 811.5l23.2-3.5.4-9.8 3.6 8 10.1-1.6-1.3-13.7 6 13.4 20.7-5v-13.2l4 12.6 12.5-2.9.1-17 4.1 15 6.4-1.5.8-8.6 2.6 10.6 25.6-4.9 1-10.4 3.7 8.3 11.5-2.2-2.3-20.2 8 17.7 11.8-.6.6-10.6 4.5 10.2 15.4-2.8.8-11 4 9 16.4-2.7 2-5.6 3 6.5 15.6-3.4-1.8-14.7 6.2 13.8 3.7-.4v-9l4.3 10s7.3-1 10.5-4.8-3.7-18.5-9.3-45.6c-5.6-27-32.6-27.5-32.6-27.5L359.5 743l-14.9 25.5 2 6.5 5 36.5z"/>
  <path fill="#4BBC79" d="M342.2 776.8l9 .2v-14.6l4 14 8.8-1.8 1-8 3.4 8 25-4.8v-10.5l4.3 9.6 7.1-1.9-1.6-15.7 5.2 16 14.1-2.3-.2-10.3 4.4 9.8 20.7-4.8-.2-8.5 3.6 8.2 5.8-1.7-.5-18 5 16 28-5.7.2-9 3.7 8.2 15-2.6.6-8.5 3.8 8.4 18-2-1-19.3 6 18.1L550 740l-1-16.7 6 16 12.3-2.8-.6-11 4.2 9.3 3-1.3-1.2-15.7 6.7 15 5.2-1-9-43.6-34.7-26.3-203.3 53.2-1.2 22.5 6 39.2z"/>
  <path fill="#21998A" d="M333.7 741.5l15-2.3-.3-13.5 4 13.1 3.8-.5.2-6 2.2 5 17.1-2.4.6-6.7 3.1 7 7-1.4-1.8-18 6 16.2 21-3.3-.5-12 5 11.2 15.4-3-1.2-14.2 6 13.5 17.8-3-.8-17 6.5 14.5 5.1-.3-.7-8 4.5 6.3 13-1.4.2-12.8 5.3 11.8 10.8-1.6-.2-17.3 5.7 16.7 17.5-4 .1-7.7 3.5 7.8 10.1-2.2-.8-18.5 5.8 17.5 9.4-1.7.5-6.3 3 6.5 11.7-3.3-2.5-16 6.4 14.3s8.7-.9 10.4-4.6c1.7-3.7-9.4-31.4-14.9-37.7-5.5-6.3-14.2-9.9-29.9-8.3-15.7 1.6-83.8 10-90.7 11a61.3 61.3 0 01-21-1.4c-2.7-1-29.8-1-29.8-1l-56.6 25.1-9.4 15.5 7.4 44.4z"/>
  <path fill="#2E998A" d="M293.6 599.6l10.5 17.1 25.1-20.8-17.4-14.3-13.5-1.7-7.2 11 2.2 8.1"/>
  <path fill="#E6C8BC" d="M318.8 669c-33.2 7.2-35.8 7-35.8 7s-8.8 3.6-14.8-10c-6-13.8-8.5-14 1.7-23.5 10.2-9.4 43.8-38 43.8-38l23.5 59.7s14.8-2.6-18.4 4.7z"/>
  <path fill="#AC9792" d="M286 675.6c-3.2-.2-7.8-7.3-8.4-8.5-.6-1.2-4.6-9.3-5.5-11.4-.9-2-3-6.9-6.9-5.3-3.8 1.6-.9 7-.9 7s5.8 15.4 9.2 17.5c2.3 1.4 5 2 7.7 1.4l4.8-.7z"/>
  <path fill="#FE755F" d="M326 708.3h4v-8.4l3.1 7 15-2.3-2.8-13.3 7.3 13 23.6-7-1.7-11.9 6.1 9.8 9-2.9-5.7-14.9 9.5 13.2 18.2-9.2-8.4-16.3 13.1 13 6.7-4.5-6.7-9.4 8.2 6.2 2.3-2.9-6.9-7.3 7.2 3.7 2-2.7-26.6-26.4-46.5-4.5-35.7 39.6-.8 6.8 6.5 31.6z"/>
  <path fill="#0098FF" d="M317.5 678.6l8.6-1.8-1.3-10.3 4 9.1 16.3-5-1.9-9.6 5.5 8 15.8-6-5.8-13.2 9.8 11.5 4-1.7-3-6.8 6 5.5 11-5.9L381 640l9.8 10.5 8.6-6-5.6-10 9.5 8.2 5.2-4.9-24.3-27.5-50.8-8.3-22.8 49 7 27.6z"/>
  <path fill="#4BBC79" d="M297 617l12 35 11.6-4.6-2-10.3 5.5 8.8 3.2-1.4-5-11.3 8.3 9.8 14-6.2-3.3-8.8 7 7.2 13.1-7.7-8.6-14.9 12.1 13 11.6-6.3-4-10.8 8.3 9s6.3-4.5 5.7-6.3a4883 4883 0 01-28.8-36l-11.2-5.3-19.9 22.8s-25 19.4-29.6 24.2z"/>
  <path fill="#FE755F" d="M316 583.8l-6 6.3-7-4.8 4.8 8-5.8 4.1-6.5-4.5 2.8 6.2-4.4 3.1-12-20.7-.2-17.2 16.6 3.1 17.7 16.4z"/>
  <path fill="#2E998A" d="M328.1 597.6l8.1-2-.8-3.9 4 3 7.5-3.9-5.3-9.6 8.5 8.2 8-5-7-10 9.6 7.2 3.1-1.4-19-17.2-14.5-3.3-11.2 16.5 9 21.4z"/>
  <path fill="#FE755F" d="M320.3 582.4l3-1.3-1.6-5.7 4.5 5 5-2.2-4.4-7.6 7 5.8 7-3-3.8-8.5 7 6.4 6.1-5.5-16.7-18-11.4-4.4-12 14.8 10.3 24.2z"/>
  <path fill="#E6C8BC" d="M312 566.3l3.1-1.4-1.8-6.6 4.3 5.5 5.3-2.3-3.3-7.5 5.6 5 4.8-2-5-11.2 8 7.5 4-3.2-8.9-11s-6.4-9.2-12.6-5.7c-6.2 3.5-16 6.6-12.2 15.5 4 9 8.7 17.4 8.7 17.4z"/>
  <path fill="#AC9792" d="M283.3 586.5l4.7-3.6-2.9-6.6 5.6 5.4 6.5-4-5.3-8.2 8.6 6.7 4.2-3.5-12.8-14s-4.6-5.7-11.9-1c-7.2 4.7-8.6 8.3-6.2 12.7 2.3 4.3 9.5 16.1 9.5 16.1z"/>
  <path fill="#FE755F" d="M580 832.4l10.1-2.4a2.7 2.7 0 002.5-2.5c0-1.6-.2-3.2-.6-4.8l-27.6 7.1s1.6 5.6 5.5 4.8a675 675 0 0010.1-2.2z"/>
  <path fill="#fff" d="M314.3 643.4a14.5 14.5 0 100-29 14.5 14.5 0 000 29z"/>
  <path fill="#000" d="M314.6 638.2c4.5-2 6.6-7.2 4.7-11.5a8.8 8.8 0 00-11.6-4 8.8 8.8 0 00-4.8 11.4c1.9 4.3 7.1 6 11.7 4z"/>
  <path stroke="#455152" stroke-linecap="round" stroke-miterlimit="10" stroke-width="4" d="M382.9 474s40.1 85.6 55.9 147.8c17.3 68.3 29.5 159.8 33.2 163.4"/>
  <path fill="#F4DA98" d="M386.2 493.3c52.5-23.3 74.1-89 48.4-146.8-25.7-57.7-89-85.5-141.5-62.2-52.4 23.4-74 89-48.3 146.8 25.7 57.7 89 85.6 141.4 62.2z"/>
  <path fill="#F4DA98" d="M381.4 494.2l1.2 11.4L404 496l-8.4-8.2-14.2 6.4z"/>
  <path stroke="#455152" stroke-linecap="round" stroke-miterlimit="10" stroke-width="4" d="M487.4 778.3c4.4-4.6-28.5-180.8-31.2-201.5-2.7-20.7-21.7-147.2-3.8-251.1"/>
  <path fill="#24B1FF" d="M461.8 348.2c57.4 0 104-51.2 104-114.4s-46.6-114.4-104-114.4-104 51.2-104 114.4 46.6 114.4 104 114.4z"/>
  <path fill="#0098FF" d="M459.5 345.2l3.5 10.9h-23.5l4.3-10.9h15.7z"/>
  <rect width="212" height="28" y="105" fill="#AEE2FF" rx="14"/>
  <rect width="212" height="28" y="515" fill="#AEE2FF" rx="14"/>
  <rect width="212" height="28" x="522" y="411" fill="#AEE2FF" rx="14"/>
  <rect width="212" height="28" x="38" y="156" fill="#AEE2FF" rx="14"/>
</svg>
