<svg xmlns="http://www.w3.org/2000/svg" width="70.599" height="33.882" viewBox="0 0 70.599 33.882">
  <g id="Group_121" data-name="Group 121" transform="matrix(0.946, 0.326, -0.326, 0.946, 2602.264, -8832.059)">
    <ellipse id="Ellipse_19" data-name="Ellipse 19" cx="17.319" cy="10.565" rx="17.319" ry="10.565" transform="translate(419.102 9196.659) rotate(-7)"/>
    <ellipse id="Ellipse_20" data-name="Ellipse 20" cx="13.846" cy="8.587" rx="13.846" ry="8.587" transform="translate(444.585 9195.202) rotate(-16)"/>
    <ellipse id="Ellipse_21" data-name="Ellipse 21" cx="9.733" cy="6.272" rx="9.733" ry="6.272" transform="translate(465.303 9189.206) rotate(-22)"/>
    <path id="Path_262" data-name="Path 262" d="M.989,0l.633,5.275L0,9.89" transform="translate(437.908 9213.263)" fill="none" stroke="#000" stroke-width="2"/>
    <path id="Path_260" data-name="Path 260" d="M0,0,3.5,3.988,4.544,8.7" transform="translate(471.177 9201.523)" fill="none" stroke="#000" stroke-width="2"/>
    <path id="Path_259" data-name="Path 259" d="M0,0,2.588,4.64l-.61,5.25" transform="translate(465.329 9205.065)" fill="none" stroke="#000" stroke-width="2"/>
    <path id="Path_261" data-name="Path 261" d="M0,0,2.43,3.783,1.978,8.9" transform="translate(446.688 9211.08)" fill="none" stroke="#000" stroke-width="2"/>
    <path id="Path_258" data-name="Path 258" d="M0,0,1.77,3.759,0,8.9" transform="translate(459.665 9208.318)" fill="none" stroke="#000" stroke-width="2"/>
    <path id="Path_263" data-name="Path 263" d="M1.978,0l.754,5.819L0,9.89" transform="translate(428.505 9213.047)" fill="none" stroke="#000" stroke-width="2"/>
  </g>
</svg>
