<svg xmlns="http://www.w3.org/2000/svg" fill="none" viewBox="0 0 810 244"><path stroke="#000" stroke-miterlimit="10" d="M221 153c27-4 53 10 74 27s39 38 63 50c28 15 63 16 94 7s58-28 79-52c21-23 37-50 55-75s40-49 69-62c25-10 53-12 80-16s55-12 74-31"/><path fill="#000" d="M19 101l5-1 3 21-5 1z"/><ellipse fill="#000" rx="4" ry="4.4" transform="matrix(.95877 -.28418 .23542 .9719 21 100)"/><rect width="200" height="119" y="104.4" fill="#F6D374" rx="59.5"/><path fill="#000" d="M90 104h20v119H90zM50 104h20v119H50zM130 104h20v119h-20z"/><rect width="72.2" height="43.7" fill="#fff" rx="21.8" transform="matrix(.9815 -.19144 .15741 .98753 79 135)"/><ellipse cx="25.2" cy="149.6" fill="#000" rx="4" ry="4.4"/><path fill="#000" d="M31 99l5 2-5 20-5-1z"/><ellipse fill="#000" rx="4" ry="4.4" transform="matrix(.9815 .19144 -.15741 .98753 34 100)"/></svg>