<svg xmlns="http://www.w3.org/2000/svg" xmlns:xlink="http://www.w3.org/1999/xlink" viewBox="0 0 1398 599.491">
  <defs>
    <clipPath id="clip-path">
      <rect x="86" y="-76" width="1398" height="599.255" fill="none"/>
    </clipPath>
  </defs>
  <g id="Group_123" data-name="Group 123" transform="translate(382.688 307.431)">
    <g id="Component_1_1" data-name="Component 1 – 1" transform="translate(-382.688 -307.195)">
      <g id="Scroll_Group_1" data-name="Scroll Group 1" transform="translate(-86 76)" clip-path="url(#clip-path)" style="isolation: isolate">
        <path id="Path_1" data-name="Path 1" d="M5187.021,7431.922s293.317,302.566,893.608,0,751.077,0,751.077,0l48.8,1559.145L5153.313,9153.7Z" transform="translate(-5153.313 -7297.444)" fill="#e6c8bc"/>
      </g>
    </g>
    <g id="Group_121" data-name="Group 121">
      <g id="Group_1" data-name="Group 1" transform="matrix(0.946, 0.326, -0.326, 0.946, 2454.064, -8818.635)">
        <ellipse id="Ellipse_19" data-name="Ellipse 19" cx="17.319" cy="10.565" rx="17.319" ry="10.565" transform="translate(419.102 9196.659) rotate(-7)"/>
        <ellipse id="Ellipse_20" data-name="Ellipse 20" cx="13.846" cy="8.587" rx="13.846" ry="8.587" transform="translate(444.585 9195.202) rotate(-16)"/>
        <ellipse id="Ellipse_21" data-name="Ellipse 21" cx="9.733" cy="6.272" rx="9.733" ry="6.272" transform="translate(465.303 9189.206) rotate(-22)"/>
        <path id="Path_262" data-name="Path 262" d="M.989,0l.633,5.275L0,9.89" transform="translate(437.908 9213.263)" fill="none" stroke="#000" stroke-width="2"/>
        <path id="Path_260" data-name="Path 260" d="M0,0,3.5,3.988,4.544,8.7" transform="translate(471.177 9201.523)" fill="none" stroke="#000" stroke-width="2"/>
        <path id="Path_259" data-name="Path 259" d="M0,0,2.588,4.64l-.61,5.25" transform="translate(465.329 9205.065)" fill="none" stroke="#000" stroke-width="2"/>
        <path id="Path_261" data-name="Path 261" d="M0,0,2.43,3.783,1.978,8.9" transform="translate(446.688 9211.08)" fill="none" stroke="#000" stroke-width="2"/>
        <path id="Path_258" data-name="Path 258" d="M0,0,1.77,3.759,0,8.9" transform="translate(459.665 9208.318)" fill="none" stroke="#000" stroke-width="2"/>
        <path id="Path_263" data-name="Path 263" d="M1.978,0l.754,5.819L0,9.89" transform="translate(428.505 9213.047)" fill="none" stroke="#000" stroke-width="2"/>
      </g>
    </g>
    <g id="Group_122" data-name="Group 122">
      <g id="Group_2" data-name="Group 2" transform="translate(-717 -9154)">
        <path id="Path_281" data-name="Path 281" d="M34.113.522c.373,14.854,36.334,75.424,36.334,75.424S33.082,79.938,25.082,61.438,33.739-14.332,34.113.522Z" transform="translate(1475 8878)" fill="#4bbc79"/>
        <path id="Path_282" data-name="Path 282" d="M35.258,9.618c2.165,2.572,37.253,100.717,37.253,100.717S46.3,120.132,31.3,119.4c-5.073-.249-24.429-3.527-29.887-5.687-1.945-.769,9.728-.054,7.69-1.032a108.7,108.7,0,0,1-11.687-6.525S33.093,7.046,35.258,9.618Z" transform="translate(1513 8837)" fill="#4bbc79"/>
        <path id="Path_280" data-name="Path 280" d="M23.35,12.221C23.962-5.683,46.7,56.648,39.072,81.4s-49.6,21.668-49.6,21.668S22.737,30.124,23.35,12.221Z" transform="translate(1557 8853)" fill="#4bbc79"/>
      </g>
    </g>
    <g id="Group_3" data-name="Group 3" transform="translate(-368 -9862)">
      <g id="Logo" transform="translate(74.609 10011.754)">
        <g id="Group_1-2" data-name="Group 1" transform="translate(51.615)">
          <path id="Path_1-2" data-name="Path 1" d="M43.059,210.228a2.125,2.125,0,0,1-1.07-3.968l29.14-16.75a2.129,2.129,0,1,1,2.135,3.683l-29.14,16.75A2.134,2.134,0,0,1,43.059,210.228Z" transform="translate(-40.921 -166.996)" fill="#fff"/>
          <path id="Path_2" data-name="Path 2" d="M64.467,216.259a2.125,2.125,0,0,1-1.07-3.968l13.1-7.529a2.128,2.128,0,1,1,2.135,3.683l-13.1,7.529A2.131,2.131,0,0,1,64.467,216.259Z" transform="translate(-48.796 -172.649)" fill="#fff"/>
          <path id="Path_3" data-name="Path 3" d="M66.095,178.258a2.125,2.125,0,0,1-1.07-3.968l7.717-4.436a2.128,2.128,0,1,1,2.135,3.682l-7.717,4.437A2.134,2.134,0,0,1,66.095,178.258Z" transform="translate(-49.395 -159.712)" fill="#fff"/>
          <path id="Path_4" data-name="Path 4" d="M80.215,183.165a2.125,2.125,0,0,1-1.07-3.967l7.8-4.483A2.128,2.128,0,1,1,89.08,178.4l-7.8,4.483A2.127,2.127,0,0,1,80.215,183.165Z" transform="translate(-54.589 -161.513)" fill="#fff"/>
          <path id="Path_5" data-name="Path 5" d="M54.74,197.04a2.125,2.125,0,0,1-1.07-3.968l10.257-5.9a2.128,2.128,0,1,1,2.135,3.683l-10.257,5.9A2.131,2.131,0,0,1,54.74,197.04Z" transform="translate(-45.218 -166.132)" fill="#fff"/>
          <path id="Path_6" data-name="Path 6" d="M100.979,213.809a2.136,2.136,0,0,1-1.852-1.063l-6.3-10.865a2.133,2.133,0,0,1,3.7-2.126l6.3,10.865a2.129,2.129,0,0,1-1.847,3.189Z" transform="translate(-59.909 -170.504)" fill="#fff"/>
          <path id="Path_7" data-name="Path 7" d="M102.387,194.043a2.135,2.135,0,0,1-1.851-1.063L97,186.877a2.133,2.133,0,0,1,3.7-2.126l3.539,6.1a2.129,2.129,0,0,1-1.847,3.189Z" transform="translate(-61.443 -164.944)" fill="#fff"/>
          <path id="Path_8" data-name="Path 8" d="M85.464,164.731a2.137,2.137,0,0,1-1.851-1.063L79.8,157.1a2.133,2.133,0,0,1,3.7-2.126l3.811,6.571a2.129,2.129,0,0,1-1.848,3.189Z" transform="translate(-55.118 -153.907)" fill="#fff"/>
          <path id="Path_9" data-name="Path 9" d="M114.707,215.373a2.136,2.136,0,0,1-1.852-1.063l-4.677-8.066a2.133,2.133,0,0,1,3.7-2.126l4.678,8.066a2.129,2.129,0,0,1-1.847,3.189Z" transform="translate(-65.556 -172.121)" fill="#fff"/>
          <path id="Path_10" data-name="Path 10" d="M86.883,219.836a2.125,2.125,0,0,1-1.07-3.968l2.584-1.485a2.128,2.128,0,1,1,2.135,3.683l-2.584,1.485A2.134,2.134,0,0,1,86.883,219.836Z" transform="translate(-57.042 -176.214)" fill="#fff"/>
        </g>
        <g id="Group_2-2" data-name="Group 2" transform="translate(0 55.539)">
          <path id="Path_11" data-name="Path 11" d="M139.833,210.652V191.717h5.616a7.33,7.33,0,0,1,4.637,1.256,4.445,4.445,0,0,1,1.58,3.7,4.185,4.185,0,0,1-.8,2.557,4.385,4.385,0,0,1-2.2,1.555,4.569,4.569,0,0,1,2.671,1.625,4.517,4.517,0,0,1,1.012,2.911,4.913,4.913,0,0,1-1.626,3.919,6.689,6.689,0,0,1-4.526,1.41Zm1.606-10.443h4.389a4.944,4.944,0,0,0,3.115-.945,3.215,3.215,0,0,0,1.1-2.638,3.16,3.16,0,0,0-1.143-2.69,5.69,5.69,0,0,0-3.455-.867h-4.01Zm0,1.353V209.3h4.82a4.83,4.83,0,0,0,3.271-1.045,3.631,3.631,0,0,0,1.209-2.9,3.508,3.508,0,0,0-1.156-2.772,4.665,4.665,0,0,0-3.194-1.019Z" transform="translate(-139.833 -190.677)" fill="#fff"/>
          <path id="Path_12" data-name="Path 12" d="M163.822,206.12a8.244,8.244,0,0,1,.79-3.654,5.938,5.938,0,0,1,5.505-3.433,5.826,5.826,0,0,1,4.572,1.97,7.57,7.57,0,0,1,1.75,5.221v.325a8.319,8.319,0,0,1-.79,3.674,5.878,5.878,0,0,1-2.227,2.516,6.124,6.124,0,0,1-3.278.884,5.829,5.829,0,0,1-4.565-1.97,7.554,7.554,0,0,1-1.757-5.221Zm1.567.429a6.365,6.365,0,0,0,1.313,4.142,4.454,4.454,0,0,0,6.87,0,6.578,6.578,0,0,0,1.313-4.272v-.3a7.125,7.125,0,0,0-.6-2.952,4.808,4.808,0,0,0-1.685-2.074,4.321,4.321,0,0,0-2.482-.735,4.183,4.183,0,0,0-3.409,1.633,6.585,6.585,0,0,0-1.319,4.272Z" transform="translate(-148.657 -193.388)" fill="#fff"/>
          <path id="Path_13" data-name="Path 13" d="M196.931,209.787a2.214,2.214,0,0,0-.934-1.86,7.218,7.218,0,0,0-2.815-1.1,12.743,12.743,0,0,1-2.919-.91,3.89,3.89,0,0,1-1.541-1.255,3.123,3.123,0,0,1-.5-1.8,3.343,3.343,0,0,1,1.4-2.75,5.663,5.663,0,0,1,3.579-1.086,5.826,5.826,0,0,1,3.794,1.164,3.729,3.729,0,0,1,1.431,3.037h-1.568a2.516,2.516,0,0,0-1.038-2.055,4.7,4.7,0,0,0-5.095-.137,2.1,2.1,0,0,0-.934,1.776,1.917,1.917,0,0,0,.777,1.632,8.253,8.253,0,0,0,2.835,1.06,13.348,13.348,0,0,1,3.082,1.027A3.99,3.99,0,0,1,198,207.849a3.6,3.6,0,0,1-.947,4.708,6.191,6.191,0,0,1-3.769,1.066,6.349,6.349,0,0,1-4-1.19,3.657,3.657,0,0,1-1.534-3.01h1.567a2.7,2.7,0,0,0,1.156,2.126,4.739,4.739,0,0,0,2.814.761,4.458,4.458,0,0,0,2.639-.715A2.144,2.144,0,0,0,196.931,209.787Z" transform="translate(-157.459 -193.388)" fill="#fff"/>
          <path id="Path_14" data-name="Path 14" d="M211.731,193.722v3.6h2.926V198.6h-2.926v9.387a2.928,2.928,0,0,0,.425,1.745,1.647,1.647,0,0,0,1.417.573,9.828,9.828,0,0,0,1.267-.13l.065,1.263a5.129,5.129,0,0,1-1.672.219,2.792,2.792,0,0,1-2.338-.93,4.362,4.362,0,0,1-.731-2.738V198.6h-2.6v-1.275h2.6v-3.6Z" transform="translate(-164.747 -191.42)" fill="#fff"/>
          <path id="Path_15" data-name="Path 15" d="M222.131,206.12a8.244,8.244,0,0,1,.79-3.654,5.938,5.938,0,0,1,5.505-3.433A5.826,5.826,0,0,1,233,201a7.571,7.571,0,0,1,1.75,5.221v.325a8.327,8.327,0,0,1-.79,3.674,5.886,5.886,0,0,1-2.227,2.516,6.126,6.126,0,0,1-3.279.884,5.83,5.83,0,0,1-4.565-1.97,7.554,7.554,0,0,1-1.757-5.221Zm1.567.429a6.365,6.365,0,0,0,1.313,4.142,4.454,4.454,0,0,0,6.87,0,6.574,6.574,0,0,0,1.313-4.272v-.3a7.125,7.125,0,0,0-.6-2.952,4.808,4.808,0,0,0-1.685-2.074,4.32,4.32,0,0,0-2.482-.735,4.183,4.183,0,0,0-3.409,1.633,6.585,6.585,0,0,0-1.319,4.272Z" transform="translate(-170.106 -193.388)" fill="#fff"/>
          <path id="Path_16" data-name="Path 16" d="M248.683,199.292l.052,2.406a5.6,5.6,0,0,1,1.986-1.983,5.173,5.173,0,0,1,2.625-.683,4.25,4.25,0,0,1,3.383,1.275,5.731,5.731,0,0,1,1.123,3.824v9.233H256.3v-9.246a4.287,4.287,0,0,0-.8-2.809,3.154,3.154,0,0,0-2.527-.923,3.962,3.962,0,0,0-2.567.9,5.294,5.294,0,0,0-1.652,2.438v9.637h-1.554V199.292Z" transform="translate(-179.325 -193.388)" fill="#fff"/>
          <path id="Path_17" data-name="Path 17" d="M285.38,210.652h-3.919v-8.115h-7.641v8.115H269.9V191.717h3.919v7.673h7.641v-7.673h3.919Z" transform="translate(-187.678 -190.677)" fill="#fff"/>
          <path id="Path_18" data-name="Path 18" d="M307.271,213.363a4.155,4.155,0,0,1-.379-1.261,4.579,4.579,0,0,1-3.566,1.521,5.034,5.034,0,0,1-3.442-1.2,3.841,3.841,0,0,1-1.365-3.017,3.97,3.97,0,0,1,1.665-3.433,8.245,8.245,0,0,1,4.813-1.21h1.738v-.806a2.314,2.314,0,0,0-.5-1.561,1.984,1.984,0,0,0-1.587-.585,2.255,2.255,0,0,0-1.5.455,1.542,1.542,0,0,0-.542,1.248h-3.775a3.765,3.765,0,0,1,.757-2.263,5.007,5.007,0,0,1,2.142-1.632,7.833,7.833,0,0,1,3.109-.592,6.187,6.187,0,0,1,4.147,1.307,4.566,4.566,0,0,1,1.535,3.674v6.1a6.7,6.7,0,0,0,.561,3.031v.221Zm-3.122-2.614a3.269,3.269,0,0,0,1.542-.371,2.449,2.449,0,0,0,1.045-1v-2.419h-1.411q-2.834,0-3.017,1.951l-.013.222a1.5,1.5,0,0,0,.5,1.157A1.929,1.929,0,0,0,304.148,210.75Z" transform="translate(-198.205 -193.388)" fill="#fff"/>
          <path id="Path_19" data-name="Path 19" d="M327.631,210.593a2.483,2.483,0,0,0,1.7-.572,2,2,0,0,0,.679-1.522h3.54a4.808,4.808,0,0,1-.784,2.621,5.168,5.168,0,0,1-2.11,1.847,6.631,6.631,0,0,1-2.958.656,6.147,6.147,0,0,1-4.78-1.918,7.568,7.568,0,0,1-1.75-5.3v-.247a7.482,7.482,0,0,1,1.737-5.189,6.076,6.076,0,0,1,4.768-1.938,5.959,5.959,0,0,1,4.251,1.5,5.307,5.307,0,0,1,1.627,4h-3.54a2.573,2.573,0,0,0-.679-1.784,2.532,2.532,0,0,0-3.716.271,5.532,5.532,0,0,0-.673,3.106v.391a5.6,5.6,0,0,0,.666,3.126A2.306,2.306,0,0,0,327.631,210.593Z" transform="translate(-206.535 -193.388)" fill="#fff"/>
          <path id="Path_20" data-name="Path 20" d="M349.3,204.4l-1.359,1.353v4.292h-3.775V190.064h3.775v11.067l.732-.937,3.618-4.226h4.533l-5.107,5.865,5.551,8.206h-4.336Z" transform="translate(-214.994 -190.064)" fill="#fff"/>
          <path id="Path_21" data-name="Path 21" d="M374,209.475a1.212,1.212,0,0,0-.686-1.086,7.828,7.828,0,0,0-2.2-.709q-5.042-1.053-5.041-4.265a3.861,3.861,0,0,1,1.561-3.127,6.315,6.315,0,0,1,4.082-1.255,6.8,6.8,0,0,1,4.3,1.261,3.97,3.97,0,0,1,1.613,3.277h-3.775a1.815,1.815,0,0,0-.523-1.333,2.217,2.217,0,0,0-1.633-.527,2.269,2.269,0,0,0-1.476.429,1.352,1.352,0,0,0-.522,1.093,1.156,1.156,0,0,0,.594,1.008,6.122,6.122,0,0,0,2.005.663,16.415,16.415,0,0,1,2.377.631q2.992,1.092,2.991,3.785a3.666,3.666,0,0,1-1.659,3.114,7.178,7.178,0,0,1-4.284,1.19,7.5,7.5,0,0,1-3.154-.631,5.284,5.284,0,0,1-2.162-1.73,4.005,4.005,0,0,1-.784-2.374h3.579a1.958,1.958,0,0,0,.744,1.534,2.964,2.964,0,0,0,1.855.533,2.743,2.743,0,0,0,1.639-.41A1.273,1.273,0,0,0,374,209.475Z" transform="translate(-222.891 -193.388)" fill="#fff"/>
        </g>
      </g>
      <g id="Group_119" data-name="Group 119" transform="translate(3 -0.292)">
        <path id="Icon_awesome-instagram" data-name="Icon awesome-instagram" d="M28.531,16.135A14.626,14.626,0,1,0,43.156,30.761,14.6,14.6,0,0,0,28.531,16.135Zm0,24.135a9.509,9.509,0,1,1,9.509-9.509,9.526,9.526,0,0,1-9.509,9.509ZM47.166,15.537a3.411,3.411,0,1,1-3.411-3.411A3.4,3.4,0,0,1,47.166,15.537ZM56.853,19c-.216-4.57-1.26-8.618-4.608-11.953S44.862,2.667,40.292,2.438c-4.71-.267-18.827-.267-23.536,0C12.2,2.655,8.151,3.7,4.8,7.033S.424,14.416.2,18.986C-.072,23.7-.072,37.813.2,42.523c.216,4.57,1.26,8.618,4.608,11.953s7.383,4.379,11.953,4.608c4.71.267,18.827.267,23.536,0,4.57-.216,8.618-1.26,11.953-4.608s4.379-7.383,4.608-11.953c.267-4.71.267-18.814,0-23.524ZM50.769,47.576A9.627,9.627,0,0,1,45.346,53c-3.755,1.489-12.666,1.146-16.815,1.146S15.458,54.475,11.715,53a9.627,9.627,0,0,1-5.423-5.423C4.8,43.821,5.147,34.911,5.147,30.761S4.816,17.688,6.293,13.945a9.627,9.627,0,0,1,5.423-5.423C15.47,7.033,24.381,7.377,28.531,7.377S41.6,7.046,45.346,8.523a9.627,9.627,0,0,1,5.423,5.423c1.489,3.755,1.146,12.666,1.146,16.815S52.258,43.834,50.769,47.576Z" transform="translate(393.69 10018.763)" fill="#fff"/>
        <path id="Icon_awesome-twitter-square" data-name="Icon awesome-twitter-square" d="M45.823,2.25H5.5A5.5,5.5,0,0,0,0,7.749V48.073a5.5,5.5,0,0,0,5.5,5.5H45.823a5.5,5.5,0,0,0,5.5-5.5V7.749A5.5,5.5,0,0,0,45.823,2.25Zm-5.6,18.192c.023.321.023.653.023.974a22.336,22.336,0,0,1-3.321,11.46,20.508,20.508,0,0,1-18.055,9.917A21.278,21.278,0,0,1,7.332,39.424a15.829,15.829,0,0,0,1.81.092,15.064,15.064,0,0,0,9.325-3.208A7.523,7.523,0,0,1,11.444,31.1a8.1,8.1,0,0,0,3.391-.137A7.514,7.514,0,0,1,8.821,23.58v-.092a7.508,7.508,0,0,0,3.391.951,7.5,7.5,0,0,1-3.345-6.255,7.419,7.419,0,0,1,1.02-3.792,21.333,21.333,0,0,0,15.488,7.859A7.529,7.529,0,0,1,38.193,15.39a14.722,14.722,0,0,0,4.766-1.81,7.494,7.494,0,0,1-3.3,4.135,14.952,14.952,0,0,0,4.33-1.168A15.814,15.814,0,0,1,40.221,20.442Z" transform="translate(298 10019.567)" fill="#fff"/>
        <path id="Icon_awesome-facebook-square" data-name="Icon awesome-facebook-square" d="M48.5,2.25H5.82A5.666,5.666,0,0,0,0,7.749V48.073a5.666,5.666,0,0,0,5.82,5.5H22.463V36.123H14.824V27.911h7.639V21.651c0-7.12,4.487-11.052,11.358-11.052a48.909,48.909,0,0,1,6.732.554v6.988H36.762c-3.736,0-4.9,2.19-4.9,4.437v5.333H40.2l-1.334,8.213H31.861V53.571H48.5a5.666,5.666,0,0,0,5.82-5.5V7.749A5.666,5.666,0,0,0,48.5,2.25Z" transform="translate(491.823 10022.021)" fill="#fff"/>
      </g>
    </g>
    <g id="Group_120" data-name="Group 120" transform="translate(-97.001 0.301)">
      <text id="contact_bostonhacks.io" data-name="contact@bostonhacks.io" transform="translate(677.001 177.699)" fill="#fff" font-size="27" font-family="Roboto-Bold, Roboto" font-weight="700"><tspan x="0" y="0">contact@bostonhacks.io</tspan></text>
    </g>
  </g>
</svg>
