<svg xmlns="http://www.w3.org/2000/svg" width="54.324" height="51.321" viewBox="0 0 54.324 51.321">
  <path id="Icon_awesome-facebook-square" data-name="Icon awesome-facebook-square" d="M48.5,2.25H5.82A5.666,5.666,0,0,0,0,7.749V48.073a5.666,5.666,0,0,0,5.82,5.5H22.463V36.123H14.824V27.911h7.639V21.651c0-7.12,4.487-11.052,11.358-11.052a48.909,48.909,0,0,1,6.732.554v6.988H36.762c-3.736,0-4.9,2.19-4.9,4.437v5.333H40.2l-1.334,8.213H31.861V53.571H48.5a5.666,5.666,0,0,0,5.82-5.5V7.749A5.666,5.666,0,0,0,48.5,2.25Z" transform="translate(0 -2.25)" fill="#fff"/>
</svg>
