<svg xmlns="http://www.w3.org/2000/svg" width="57.059" height="57.047" viewBox="0 0 57.059 57.047">
  <path id="Icon_awesome-instagram" data-name="Icon awesome-instagram" d="M28.531,16.135A14.626,14.626,0,1,0,43.156,30.761,14.6,14.6,0,0,0,28.531,16.135Zm0,24.135a9.509,9.509,0,1,1,9.509-9.509,9.526,9.526,0,0,1-9.509,9.509ZM47.166,15.537a3.411,3.411,0,1,1-3.411-3.411A3.4,3.4,0,0,1,47.166,15.537ZM56.853,19c-.216-4.57-1.26-8.618-4.608-11.953S44.862,2.667,40.292,2.438c-4.71-.267-18.827-.267-23.536,0C12.2,2.655,8.151,3.7,4.8,7.033S.424,14.416.2,18.986C-.072,23.7-.072,37.813.2,42.523c.216,4.57,1.26,8.618,4.608,11.953s7.383,4.379,11.953,4.608c4.71.267,18.827.267,23.536,0,4.57-.216,8.618-1.26,11.953-4.608s4.379-7.383,4.608-11.953c.267-4.71.267-18.814,0-23.524ZM50.769,47.576A9.627,9.627,0,0,1,45.346,53c-3.755,1.489-12.666,1.146-16.815,1.146S15.458,54.475,11.715,53a9.627,9.627,0,0,1-5.423-5.423C4.8,43.821,5.147,34.911,5.147,30.761S4.816,17.688,6.293,13.945a9.627,9.627,0,0,1,5.423-5.423C15.47,7.033,24.381,7.377,28.531,7.377S41.6,7.046,45.346,8.523a9.627,9.627,0,0,1,5.423,5.423c1.489,3.755,1.146,12.666,1.146,16.815S52.258,43.834,50.769,47.576Z" transform="translate(0.005 -2.237)" fill="#fff"/>
</svg>
