<svg xmlns="http://www.w3.org/2000/svg" viewBox="0 0 752.8 789.5"><path d="M46.407 205.9l9.868 75.518c-11.7-1.5-18.075-2.913-19.175-3.413-3.8-1.6-6.3-4.2-6.3-4.2-.2-.2-1.7-1.8-2.9-4.1-3.2-6.1-6-30.5-6.4-33-.3-2-.7-3.8-1-5.5 0-.1 0-.3-.1-.4-.3-2 .1-9.263.1-9.263z" fill="#951a2e"/><path d="M579.75 757.08l-.45 4.225c-.1.9-.3 4.2-1.8 8.2-.8 2.2-1.8 3.9-2.3 4.8l-48.2-3c-1.7-.7-4.1-2.1-5.8-4.5-1.5-2.3-1.8-4.5-1.8-5l-1.125-6.475c20.3.9 41.075.65 61.475 1.75z" fill="#0a0144"/><path d="M384.88 725.68l65.8 10.475c-.6 1.6-2.475 6.35-4.175 9.15-1.4 2.3-2.8 4.1-3.8 5.4l-56.7-6.2c-.4-1.5-.8-3.4-1.1-5.7 0-.1-.625-7.425-.025-13.125z" fill="#0d063b"/><path d="M242.4 722.8c21.2 1.2 64.85 5.45 64.85 5.45l-1.05 8.55c-1.1 3.6-2.7 6.8-2.7 6.8-.9 1.9-1.9 3.3-2.4 4.2l-48-3.1c-.6 0-2.2.1-3.8-.8-3.9-2.2-4.5-7.9-4.7-9.3-.1-1.2-1.5-8.8-2.2-11.8z" fill="#0a0144"/><path d="M111.8 698.66l66.082 5.868-6.382 14.27c-.4.9-1.4 3.3-3.9 4.9-2.5 1.5-5.2 1.4-6.9 1.1l-42.4-4.9c-1.2-.2-3.8-.5-5.6-2.5-2-2.2-2.1-5.4-2-7l1.1-11.74z" fill="#0d063b"/><path d="M227.16 584.5L174.8 711.7l-63.6-7.3c1.3-15.2 21.26-138.4 21.26-138.4z" fill="#951a2e"/><path d="M319.02 604.86L307 732l-63.6-3.7-32.628-131.87z" fill="#fb2e36"/><path d="M240.5 552.53l105.7 65.948-106.62-12.874zm263.6 62.27s-40.993 88.752-53.6 121.8l-.6 1.9-65.3-10.6c.4-4.1 6.7-51.2 15.7-115.6-2.7-.3-13.45-2.25-13.45-2.25l6-30.2zm16.9-1.85l16 25.3-32.1-3.65z" fill="#951a2e"/><path d="M594.8 641.45L579.5 759.7l-61.1-3.1c-3.1-14.8-13-58.4-26.3-116.8-.4-1.6-1.1-8.9-1.1-8.9z" fill="#fb2e36"/><path d="m564.75 585.5 22.4 59.65-33-4z" fill="#951a2e"/><path d="M616.65 527.25L606.9 647.5c-2.7 1-6.6 2.2-11.4 2.6-.7.1-1.5.1-2.2.1-4.4.1-8.1-.5-10.8-1.1l-.9-4.9-2.7-14.9-4.5 13.9c-.3.8-.5 1.6-.8 2.4l-8.6-1c-.1-.9-.2-1.9-.2-2.8l-2.4-28.9-4.5 28c-.1.8-.3 1.6-.4 2.4l-34.4-3-.6-4.4-1.5-11.3-4.6 10.5c-.4.9-.8 1.9-1.3 2.9l-36.6-4.7-1.7-23.4-7.5 23.3-31.4-4.1-3.6-23.1-7 22.9-25.4-5.8-4.4-42.1-5.5 30.2c-.7 4.1-1.5 8.2-2.3 12.3l-24.6-1.2-2.9-20.8-7.8 20.8-37.6-3.5-17-1.6.3-4.9 1.1-18.3-5.7 17.8c-.1.3-.2.6-.3.8l-13.8-1.6v-.9l.6-30-9.4 29c-.3 1-.7 2.1-1 3.2l-27.3-2.2v-25.6l-4.8 20.8-1.2 5-46.8-3.4-3-28.8-4.7 28.4-11.8-.6c.7-23.7 1-119.7 1-119.7z" fill="#54afcd"/><path d="M175.85 488.75L172 605.9c-3.4-.2-6.7 0-10.2-.2l-2-20-5.2 19.7-33.2-5.1-17.2-2.6c3.2-24 11.25-118.35 11.25-118.35z" fill="#3c6391"/><path d="M622.5 460.7l-5.8 113.5-3.7-.2-8.5-.5-3.3-35.8-5.1 36.1-8-.6-2.9-22.9-4.9 23.3-26.5-1.8-2.3-39.2-7 38.5-32.8-3.1-.8-40.4-8.2 40.3-39.5-6.5-1.7-18.9-5.6 17.7-33.9-4.5.2-18.3-5.3 18.4-60.9-5.4.2-38-9.3 38.9-13.5-.3-1.7-18.6-4.3 18.2-45.6-3.6-3.4-21.3-3.7 20.8L244 542l-1.1-35.2-5.2 33.9-15.7-.8-2.7-21.6-5.9 20.9-42-4.95c.7-26 5.2-109.85 5.2-109.85z" fill="#f68a5c"/><path d="M116.92 409.34l60.55 6.9L174 534.7c-5.1-.6-10.4-.8-15.5-1.4l-1.3-19.5-5.9 18-19.4-1.9.5-32.2-7.7 30.7-18.7-5.1c3-24.3 10.92-113.96 10.92-113.96z" fill="#91484a"/><path d="M178.95 340.53l-.28 116.72-15.275-1.954-2.9-11.6-3.1 10.6-9.2-1.1-.7-30.4-5.9 29.3c-4 0-8.3-.2-12.8-.5-4.9-.4-9.6-.9-13.9-1.6l-5.1-.9 11.052-109.3z" fill="#2d5554"/><path d="M134.9 280.2c.3 2.2 8.725 14.8 9.025 16.9-.6-.1-12.975-1.825-13.575-1.925.3-2 4.35-12.975 4.55-14.975zm38.12.98l9.45 18.35c-1.5-.2-12.8-.225-14.3-.425.2-4.2 4.65-13.625 4.85-17.925z" fill="#0a0144"/><path d="M90.9 182.3l20.305-10.014L115.2 250.9l-1 35.2h-.8c-29-1.7-47.5-3.4-59-4.8-.9-.6-2.6-1.8-4.3-3.7-8-8.6-9-22-12.7-47.8-.3-2-1.1-6.8-4.7-9.5-.6-.5-3.2-2.4-6.3-1.7-1.8.4-2.9 1.6-3.5 2.1-3.2 3.3-2.7 8.5-2.4 10.5-1-5.5-1.4-9.2 1-12.6.3-.5 1.1-1.5 4.3-3.9 3.4-2.6 8-5.6 14.1-8.3 21.6-9.8 39-18.2 51-24.1z" fill="#fb2e36"/><path d="M148.88 93.65l29.725 44.15 1.507 8.344c-5.2 1.7-11.232 4.654-20.632 8.154-14.1 5.3-26.814 12-37.814 17.3-7.4-19.28-11.17-44.14-15.16-64.364z" fill="#2e5453"/><path d="M668.3 452.5c33.6 14.1 50.55 66.312 44.4 131.6a7.58 7.58 0 0 1-8.2 6.2c-.1 0-.3 0-.4-.1-4.1-.7-6.8-4.6-6.1-8.7 4.3-24.7 3.9-49-1.1-72.5-.1-.5-.2-1.1-.4-1.6-3.7-17.1-8.6-37.8-24.9-49.6-3.6-2.6-7.3-4.4-10.4-5.7-1.4-1-2.9-2-4.4-2.9 4.3.8 8.2 1.9 11.5 3.3z" fill="#fb2d33"/><path d="m696.75 459.86c2.4 2.7 5.425 6.225 7.725 9.425 22.738 26.362 26.65 66.725 24.925 81.212-3.7-0.4-6.7-3.6-6.7-7.5 0-17.2-3-33.7-8.8-49.2-3-7.9-8.25-22.038-17.15-33.938z" fill="#91484a"/><path d="m673.6 615c-1.4-1.8-2-4.2-1.4-6.6 1.8-6.7 8.225-32.6 9.525-60.3 0 21.6-1.725 45.05-8.125 66.9z" fill="#0a0144"/><path d="M680.5 526.3c.7 7.4 1 14.8 1 22.3-1.2 27.6-7.6 53.1-9.4 59.8-.6 2.3-.1 4.7 1.3 6.5-.9 3.8-1.9 7.7-3 11.5-1 3.6-4.5 5.8-8.1 5.4 5.4-16.8 11.6-43.5 9.3-76.3-1.5-21.1-6-38.8-10.6-52.2 0-.1-.1-.2-.1-.3-.2-.7-.5-1.4-.8-2.1-1.8-5-4.2-9.3-7.2-13.4-2.4-3.3-5.1-6.3-8.2-9.1-5-4.6-10.9-8.5-17.4-11.6 0-.9-.1-1.7-.1-2.6l-.4-8.2c7 .1 13.9 1.8 19.9 4.9.3.2.6.3.9.5 6.8 4.9 12.6 10.7 17.4 17.2 9.1 12.2 13.5 26 15.5 47.7z" fill="#3c6391"/><path d="M664.6 523.1c5 36.6-17.7 99.9-22.3 112.2-1.2 3.3-4.5 5.2-7.9 4.8-.6-.1-1.2-.2-1.8-.4 4.4-11 8.5-23.7 11.7-38 5.7-25.5 6.8-48.4 6-67.1v-.1c0-3.4-.2-6.6-.6-9.5-1.2-9-4.2-16.7-4.2-16.8-3.8-9.9-10.42-19.154-18.52-26.854.1-5.2.62-9.846.52-14.646 6.5 3.1 12.4 7 17.4 11.6 6.2 7.4 11.1 15.6 14.6 24.5.1.5 3.6 9.6 5.1 20.3z" fill="#295251"/><path d="M671.7 555.5c2.3 32.8-3.9 59.5-9.3 76.3-.4 0-.8-.1-1.2-.2-4-1.1-6.3-5.3-5.2-9.2 9.1-32.8 12.4-64.6 9.6-94.7-.9-9.9-2.3-17.8-4.5-24.4 4.6 13.4 9.2 31.1 10.6 52.2z" fill="#5dafcd"/><path d="M650.3 534c1.55 18.725-.2 42.288-6 67.788-3.2 14.3-6.837 26.9-11.7 37.9-3.9-1.5-5.9-5.7-4.4-9.6 8.7-23.3 22-67.488 22.1-96.088z" fill="#358a6d"/><path d="M626.4 441.1c9.5.1 19 2.3 27.2 6.5a47.53 47.53 0 0 1 3.1 1.7c1.5.9 2.9 1.8 4.4 2.9 3.6 2.5 7 5.5 10.2 8.9 15.1 16.1 19.9 35.6 21.7 42.9l.9 3.9c8.4 40.5-3.3 89.9-7.1 104.5-1 3.6-4.5 5.9-8.1 5.5-.4 0-.7-.1-1.1-.2-1.7-.4-3.1-1.4-4-2.7 5.4-22.6 8.1-44.8 8.1-66.3.6-13.8 0-28.2-3.2-41.1-1.7-6.9-5.6-23-18-36.2-3.9-4.2-8.2-7.6-12.5-9.9-.3-.2-.6-.3-.9-.5-6.1-3.1-12.9-4.7-19.9-4.9l-.3-4.7v-.4l-1-9.9h.5z" fill="#0c063d"/><path d="M625.5 440.8l-.6-4.4c-.6-3.8-1.2-7.4-1.9-10.6 9.9-4.4 20.6-6.3 31.2-5.7 13.5.8 23.2 5.8 26.9 7.6 29.6 15 41.3 45.9 46.9 60.8 6.5 17.2 9.8 35.5 9.8 54.5 0 4.1-3.4 7.5-7.5 7.5h-.9c.1-14.8-1.9-49.1-25.2-80.9-2.3-3.2-4.7-6.1-7.1-8.8-5.1-6.8-11.4-13.1-19.4-17.9-1.1-.6-2.2-1.3-3.4-1.9-2.3-1.2-7-3.5-13.4-4.9-2.3-.5-4.9-.9-7.6-1.1-8.6-.5-17.5 1.2-25.6 5.1-.8.4-1.5.6-2.2.7z" fill="#f68a5c"/><path d="M626.4 441.1c-.3 0-.6 0-.9.1v-.4a8.3 8.3 0 0 0 2.1-.6c8.1-3.9 17-5.6 25.6-5.1 2.8.2 5.3.6 7.6 1.1 4.8 1.5 12.3 4.4 19.5 9.6 21.5 15.5 27 41.3 31.1 60.2 5.5 25.3 5.9 51.5 1.3 78.1 6-64.7-10.8-117.4-44.4-131.5-3.3-1.4-7.2-2.6-11.5-3.2a47.53 47.53 0 0 0-3.1-1.7c-8.4-4.3-17.8-6.5-27.3-6.6z" fill="#951a2e"/><path d="M540.4 460.9c-.7 6.1-2.4 16.2-6.6 34l-23.8-3.4-2.9-17.1-2.8 16.1c-5.7.2-12.1.2-19-.2-7.7-.5-14.8-1.5-20.9-2.7l-.4-36.1-8.5 34.5-23.8-2.7-3.7-26.8-6.3 26.7-28.5-4.2-5.2-16.7-1.7 17.2-12.3-2.1-4.2-33.7-7 33.3-40-4.9-2.1-29.2-5.3 29-34.3-3.9-2.7-23.8-5.6 23.8-45.8-4.9-1.1-35.2-6 35.7-15.6-1.8-2-16.7-3.9 14.7-22.1-2.7 2.123-120.8s100.7-19.857 142.62-14.118c17.293 12.165 33.158 18.53 39.958 20.43 0 0 6.9 2 14.3 3.1 6.9 1 177.3 25.9 210.7 35.7 25.3 8.486 34.4 21.388 38.868 44.412 3.444 20.277 2.963 37.758 2.632 56.288 0 4.4-.2 9-.4 13.7a16.95 16.95 0 0 1-4.8 2.7c-2.6 1-4.8 1.1-6.6 1.2-3.2.1-7.9.2-13.9 0l-2.2-31.2-4.8 31-26.3-1.1-3-13.5-3 11.9-20.8-1.4c0-17.6-.2-36.7-.9-36.8-.1-.3-.3 1.5-.4 2.3z" fill="#358a6d"/><path d="M182.48 299.52l-3.775 77.575-10.8.1-6.1-31.3-1 31c-5.4.2-12 .1-19.4-1.1-5.1-.8-9.7-2-13.7-3.2l-1.7-17.7-4.5 17c-1.1-.2-2.2-.5-3.3-.7-1.6-.4-3.2-.7-4.8-1.1l6.95-80.85z" fill="#0c053d"/><path d="M295.75 237.3l49.15 96.9c-.2.6-.5 1.3-.9 2.1a8.05 8.05 0 0 1-.9 1.4c-.8 1.1-1.7 1.9-2.4 2.5L330 329.3l8.8 17.4-8.3 6-11.9-19.1 7.7 23-16 5.3-18.5-33.4 8.4 36.5c-5.9 1.8-12.3 3.4-19.1 4.9-8.6 1.9-16.7 3.2-24.2 4.1l-9.7-32 2 32.9-20.1.7-6-24.2-2.9 25.5-41.8.3 3-110.95z" fill="#0b034a"/><path d="M261.37 155.8l56.53 120.5-3.4 1.5-10.2 4.4-13.1-22 5.5 24.3c-2.9 1.6-6.6 3.4-11.1 4.7-3.9 1.2-7.4 1.7-10.4 2l-13-27.5 4.4 30.1-26.7 5.3-6.7-13.7.9 14.6-9.6 1.2-10.4-27.4 2.9 28.7c-5.8 1-12.2 1.9-19.2 2.4-6.2.5-12 .6-17.4.5.1-2 .1-4 .2-6-1-.1-1.9-.3-2.9-.4l-3.9-13.5-.6 12.9-37.4-5.6-.9-6.4-.8 6.2-20.1-3c0-1.1.1-2.2.1-3.3.3-11.7-.964-90.2-.964-90.2z" fill="#54afcd"/><path d="M244.2 110.72c19.716 26.254 35.896 77.08 46.596 103.08l-1.4 1.4a30.1 30.1 0 0 1-5.6 3.8c-3.6 1.9-6.9 2.6-9.1 2.9l-10.4-21.9 1.6 24.6-27.2 6.1-16.2-33.6 9.2 35.8-15.7 4.2c-5.6 1.4-11 2.6-16.3 3.7l-9.1-18.5 2.1 20c-4.9 1.1-10.2 2-16 2.8-5.7.7-11.1 1.2-16 1.4l-4.2-13-1.4-.5-45.5-32.8-1.4-26.3 12.3-6c11.1-5.4 23.82-10.768 35.693-16.23 29.396-13.522 76.727-37.77 88-40.95z" fill="#f68a5c"/><path d="M226 75.75l35.496 59.35-2.8 1-4.2 1.4-14.9-21.4 8.5 24.3c-2.6 1.2-5.7 2.5-9.3 3.6-4 1.2-7.6 1.8-10.6 2.2l-11.4-22.5 5.5 24c-2.5 1-5.9 2.1-9.9 2.7-3.5.5-6.6.6-9.2.4l-4.9-9.3-.3 9.9c-3.1.2-6.4.2-10 .1-2.7-.1-5.3-.2-7.8-.5l-.9-6.8c-.3-2.1-.6-4.3-.8-6.4-2.746-16.94-4.314-49.57-4.314-49.57z" fill="#3a896d"/><path d="M208.52 29.987L242.4 99.1c-.5.4-1.1.9-1.8 1.3-1.4 1-3.1 2-5.1 3-3.4 1.7-6.6 2.6-9.1 3.2L217 90.7l3.2 18-16.3 3.4-10.2-16.2 4.3 17.7-12.2.7-5.6-12.2.2 12.8h-6.8l-8.86-68.336z" fill="#0b034a"/><path d="M180.7 299.3l-.2 6h-.9l-1.9-6.5 3 .5zm-7.4-1.1l-.4 8.2-34.9.8-2.2-14.6 37.5 5.6z" fill="#3a6092"/><path d="M152.4 236.3l.9 10.1-7.7.5-1.7-7.1-.2-.7c2.8-.8 5.4-2 7.8-3.5l.9.7z" fill="#f68a5c"/><path d="M134.2 292.3l-1.8 14.5-13.7-.9-5-.3.5-16.2h.1l19.9 2.9z" fill="#3a6092"/><path d="M111 224.5c5.4 9.6 16 16.1 27.2 15.5v.4l.1 8.4-15.8 1.6-7.2.4c-1.1.1-2.1.1-3.2.2l-1.1-26.5z" fill="#f68a5c"/><path d="M134.85 65.725L165.5 114.9l-1.6.9-14.7 8.4c-3.1-5.5-6.9-10.5-11.3-15.1l5.6 19.9-14.4 5.1c-3-5-6.5-9.7-10.3-14.1l3.4 14.5-9.9 2.9c-.8.2-1.6.5-2.4.7L94.325 78.4z" fill="#0d063b"/><path d="M129.6 46.4l19.3 38.8-1.3 1c-.9.6-2 1.2-3.3 1.8-2.3 1.1-4.4 1.6-6 1.9l-6.3-8.5-6.7-9.5 6.4 19.6c-5.2 1.6-12 4-17.3 4.8-2.2-4.6-5-9.2-7.2-13.8l3.2 13.8c-1.8.8-3.9 1.7-6.1 2.5-1.4.5-2.8.9-4.2 1.3-.8.2-1.5.4-2.2.6-3.5-15.5-6.3-26.8-8.9-35.8-.8-3-2.1-7.5-.2-12 2.4-5.5 8.4-7.7 14.8-10s16-5.8 22.3-.9c2.1 1.4 3.1 3.1 3.7 4.4z" fill="#951a2e"/><path d="M225.7 60.3l-1.8.8-7.9 3.7c-3.5-6.8-7.5-13.3-11.8-19.6l3.5 23.5-11.1 2.8-7.7-13 1.1 9.4c.2 1.9.4 3.9.5 5.8L178.8 76l-5.3-13.2-.3 14.7c-1.6 0-3.3.1-4.9.1h-1.9l-7.6-41c-.3-1.7-1-4.9.3-8.3 2.5-6.2 9.9-8.4 18.1-10.7 10.7-3 22-6.2 29.1-.4 3.1 2.6 4.1 5.8 5.5 9.6 2.9 7.8 7.3 19.1 13.9 33.5z" fill="#fb2e36"/><g fill-rule="evenodd"><ellipse transform="scale(1 -1)" cx="136.29" cy="-211.44" rx="29.5" ry="30" fill="#fff"/><path d="M119.37 218.48a18.166 18.166 0 0 1 33.487-14.091" fill="#0b0b28"/><path d="M118.983 217.524a18.17 18.17 0 0 0 23.474 10.293 18.17 18.17 0 0 0 10.4-23.427" fill="#2d1650"/></g><path d="M166.5 165.5l4.75 11.75m.87-13.87l6.25 15M199.7 31.45l2.5 9.75m3.82-11.213l5.25 10.5M53.625 209.25l3 8.5M61.5 206l1 5.75M260.88 178l5.25 11m-10.25-5.5l3 8.25m-79.76 75.75l5.25 11m-10.62-7.12l3 8.25m83.13 41.12l5.25 11m1.62-14.63l3 8.25m133.63 66.13l1 12.75m6.62-13.87l.75 9.5m66.62 45.28l-1.74 12.67m7.24-13.03l1.26 12.795m93.5 58.225l1.26 12.795m4.96-17.745l2.674 19.16M193.82 507.68l2.674 19.16m5.706-17.86l.75 9.5m30.25-41.53l1 12.75m8.85-13.07l-1.74 12.67m87.06 75.83l8.063 17.584m.717-19.444l3.82 13.342m177.27 9.368l1.4 13.806m-7.7-9.166l.35 9.2M230.9 629.68l2.208 12.917m4.772-10.527l1.855 9.38M508.9 666.02l1.855 9.38m3.975-14.7l2.208 12.917m41.182 57.243l3.82 13.342m2.54-14.762l3.467 15.1" stroke-opacity=".583" fill="none" stroke="#fff" stroke-linecap="round" stroke-width="4"/></svg>