<svg xmlns="http://www.w3.org/2000/svg" width="51.321" height="51.321" viewBox="0 0 51.321 51.321">
  <path id="Icon_awesome-twitter-square" data-name="Icon awesome-twitter-square" d="M45.823,2.25H5.5A5.5,5.5,0,0,0,0,7.749V48.073a5.5,5.5,0,0,0,5.5,5.5H45.823a5.5,5.5,0,0,0,5.5-5.5V7.749A5.5,5.5,0,0,0,45.823,2.25Zm-5.6,18.192c.023.321.023.653.023.974a22.336,22.336,0,0,1-3.321,11.46,20.508,20.508,0,0,1-18.055,9.917A21.278,21.278,0,0,1,7.332,39.424a15.829,15.829,0,0,0,1.81.092,15.064,15.064,0,0,0,9.325-3.208A7.523,7.523,0,0,1,11.444,31.1a8.1,8.1,0,0,0,3.391-.137A7.514,7.514,0,0,1,8.821,23.58v-.092a7.508,7.508,0,0,0,3.391.951,7.5,7.5,0,0,1-3.345-6.255,7.419,7.419,0,0,1,1.02-3.792,21.333,21.333,0,0,0,15.488,7.859A7.529,7.529,0,0,1,38.193,15.39a14.722,14.722,0,0,0,4.766-1.81,7.494,7.494,0,0,1-3.3,4.135,14.952,14.952,0,0,0,4.33-1.168A15.814,15.814,0,0,1,40.221,20.442Z" transform="translate(0 -2.25)" fill="#fff"/>
</svg>
